<?xml version="1.0" encoding="utf-8" standalone="no"?>
<!DOCTYPE svg PUBLIC "-//W3C//DTD SVG 1.1//EN"
  "http://www.w3.org/Graphics/SVG/1.1/DTD/svg11.dtd">
<!-- Created with matplotlib (https://matplotlib.org/) -->
<svg height="250px" version="1.1" viewBox="0 0 417.0525 339.939" xmlns="http://www.w3.org/2000/svg" xmlns:xlink="http://www.w3.org/1999/xlink">
 <defs>
  <style type="text/css">
*{stroke-linecap:butt;stroke-linejoin:round;}
  </style>
 </defs>
 <g id="figure_1">
  <g id="patch_1">
   <path d="M 0 339.939 
L 417.0525 339.939 
L 417.0525 0 
L 0 0 
z
" style="fill:#ffffff;"/>
  </g>
  <g id="axes_1">
   <g id="patch_2">
    <path d="M 52.7325 292.644 
L 409.8525 292.644 
L 409.8525 26.532 
L 52.7325 26.532 
z
" style="fill:#ffffff;"/>
   </g>
   <g id="matplotlib.axis_1">
    <g id="xtick_1">
     <g id="line2d_1">
      <path clip-path="url(#pd5c0ba3c41)" d="M 52.7325 292.644 
L 52.7325 26.532 
" style="fill:none;stroke:#b0b0b0;stroke-linecap:square;stroke-width:0.8;"/>
     </g>
     <g id="line2d_2">
      <defs>
       <path d="M 0 0 
L 0 3.5 
" id="m415ff85c24" style="stroke:#000000;stroke-width:0.8;"/>
      </defs>
      <g>
       <use style="stroke:#000000;stroke-width:0.8;" x="52.7325" xlink:href="#m415ff85c24" y="292.644"/>
      </g>
     </g>
     <g id="text_1">
      <!-- 0 -->
      <defs>
       <path d="M 3.609375 32.71875 
Q 3.609375 44.046875 7.03125 52.21875 
Q 10.453125 60.40625 16.109375 64.40625 
Q 20.515625 67.578125 25.203125 67.578125 
Q 32.8125 67.578125 38.875 59.8125 
Q 46.4375 50.203125 46.4375 33.734375 
Q 46.4375 22.21875 43.109375 14.15625 
Q 39.796875 6.109375 34.640625 2.46875 
Q 29.5 -1.171875 24.703125 -1.171875 
Q 15.234375 -1.171875 8.9375 10.015625 
Q 3.609375 19.4375 3.609375 32.71875 
z
M 13.1875 31.5 
Q 13.1875 17.828125 16.546875 9.1875 
Q 19.34375 1.90625 24.859375 1.90625 
Q 27.484375 1.90625 30.3125 4.265625 
Q 33.15625 6.640625 34.625 12.203125 
Q 36.859375 20.609375 36.859375 35.890625 
Q 36.859375 47.21875 34.515625 54.78125 
Q 32.765625 60.40625 29.984375 62.75 
Q 27.984375 64.359375 25.140625 64.359375 
Q 21.828125 64.359375 19.234375 61.375 
Q 15.71875 57.328125 14.453125 48.625 
Q 13.1875 39.9375 13.1875 31.5 
z
" id="TimesNewRomanPSMT-48"/>
      </defs>
      <g transform="translate(48.7325 310.754)scale(0.16 -0.16)">
       <use xlink:href="#TimesNewRomanPSMT-48"/>
      </g>
     </g>
    </g>
    <g id="xtick_2">
     <g id="line2d_3">
      <path clip-path="url(#pd5c0ba3c41)" d="M 88.4445 292.644 
L 88.4445 26.532 
" style="fill:none;stroke:#b0b0b0;stroke-linecap:square;stroke-width:0.8;"/>
     </g>
     <g id="line2d_4">
      <g>
       <use style="stroke:#000000;stroke-width:0.8;" x="88.4445" xlink:href="#m415ff85c24" y="292.644"/>
      </g>
     </g>
     <g id="text_2">
      <!-- 2 -->
      <defs>
       <path d="M 45.84375 12.75 
L 41.21875 0 
L 2.15625 0 
L 2.15625 1.8125 
Q 19.390625 17.53125 26.421875 27.484375 
Q 33.453125 37.453125 33.453125 45.703125 
Q 33.453125 52 29.59375 56.046875 
Q 25.734375 60.109375 20.359375 60.109375 
Q 15.484375 60.109375 11.59375 57.25 
Q 7.71875 54.390625 5.859375 48.875 
L 4.046875 48.875 
Q 5.28125 57.90625 10.328125 62.734375 
Q 15.375 67.578125 22.953125 67.578125 
Q 31 67.578125 36.390625 62.40625 
Q 41.796875 57.234375 41.796875 50.203125 
Q 41.796875 45.171875 39.453125 40.140625 
Q 35.84375 32.234375 27.734375 23.390625 
Q 15.578125 10.109375 12.546875 7.375 
L 29.828125 7.375 
Q 35.109375 7.375 37.234375 7.765625 
Q 39.359375 8.15625 41.0625 9.34375 
Q 42.78125 10.546875 44.046875 12.75 
z
" id="TimesNewRomanPSMT-50"/>
      </defs>
      <g transform="translate(84.4445 310.754)scale(0.16 -0.16)">
       <use xlink:href="#TimesNewRomanPSMT-50"/>
      </g>
     </g>
    </g>
    <g id="xtick_3">
     <g id="line2d_5">
      <path clip-path="url(#pd5c0ba3c41)" d="M 124.1565 292.644 
L 124.1565 26.532 
" style="fill:none;stroke:#b0b0b0;stroke-linecap:square;stroke-width:0.8;"/>
     </g>
     <g id="line2d_6">
      <g>
       <use style="stroke:#000000;stroke-width:0.8;" x="124.1565" xlink:href="#m415ff85c24" y="292.644"/>
      </g>
     </g>
     <g id="text_3">
      <!-- 4 -->
      <defs>
       <path d="M 46.53125 24.421875 
L 46.53125 17.484375 
L 37.640625 17.484375 
L 37.640625 0 
L 29.59375 0 
L 29.59375 17.484375 
L 1.5625 17.484375 
L 1.5625 23.734375 
L 32.28125 67.578125 
L 37.640625 67.578125 
L 37.640625 24.421875 
z
M 29.59375 24.421875 
L 29.59375 57.28125 
L 6.34375 24.421875 
z
" id="TimesNewRomanPSMT-52"/>
      </defs>
      <g transform="translate(120.1565 310.754)scale(0.16 -0.16)">
       <use xlink:href="#TimesNewRomanPSMT-52"/>
      </g>
     </g>
    </g>
    <g id="xtick_4">
     <g id="line2d_7">
      <path clip-path="url(#pd5c0ba3c41)" d="M 159.8685 292.644 
L 159.8685 26.532 
" style="fill:none;stroke:#b0b0b0;stroke-linecap:square;stroke-width:0.8;"/>
     </g>
     <g id="line2d_8">
      <g>
       <use style="stroke:#000000;stroke-width:0.8;" x="159.8685" xlink:href="#m415ff85c24" y="292.644"/>
      </g>
     </g>
     <g id="text_4">
      <!-- 6 -->
      <defs>
       <path d="M 44.828125 67.578125 
L 44.828125 65.765625 
Q 38.375 65.140625 34.296875 63.203125 
Q 30.21875 61.28125 26.234375 57.328125 
Q 22.265625 53.375 19.65625 48.515625 
Q 17.046875 43.65625 15.28125 36.96875 
Q 22.3125 41.796875 29.390625 41.796875 
Q 36.1875 41.796875 41.15625 36.328125 
Q 46.140625 30.859375 46.140625 22.265625 
Q 46.140625 13.96875 41.109375 7.125 
Q 35.0625 -1.171875 25.09375 -1.171875 
Q 18.3125 -1.171875 13.578125 3.328125 
Q 4.296875 12.0625 4.296875 25.984375 
Q 4.296875 34.859375 7.859375 42.859375 
Q 11.421875 50.875 18.03125 57.078125 
Q 24.65625 63.28125 30.703125 65.421875 
Q 36.765625 67.578125 42 67.578125 
z
M 14.453125 33.40625 
Q 13.578125 26.8125 13.578125 22.75 
Q 13.578125 18.0625 15.3125 12.5625 
Q 17.046875 7.078125 20.453125 3.859375 
Q 22.953125 1.5625 26.515625 1.5625 
Q 30.765625 1.5625 34.109375 5.5625 
Q 37.453125 9.578125 37.453125 17 
Q 37.453125 25.34375 34.125 31.4375 
Q 30.8125 37.546875 24.703125 37.546875 
Q 22.859375 37.546875 20.734375 36.765625 
Q 18.609375 35.984375 14.453125 33.40625 
z
" id="TimesNewRomanPSMT-54"/>
      </defs>
      <g transform="translate(155.8685 310.754)scale(0.16 -0.16)">
       <use xlink:href="#TimesNewRomanPSMT-54"/>
      </g>
     </g>
    </g>
    <g id="xtick_5">
     <g id="line2d_9">
      <path clip-path="url(#pd5c0ba3c41)" d="M 195.5805 292.644 
L 195.5805 26.532 
" style="fill:none;stroke:#b0b0b0;stroke-linecap:square;stroke-width:0.8;"/>
     </g>
     <g id="line2d_10">
      <g>
       <use style="stroke:#000000;stroke-width:0.8;" x="195.5805" xlink:href="#m415ff85c24" y="292.644"/>
      </g>
     </g>
     <g id="text_5">
      <!-- 8 -->
      <defs>
       <path d="M 19.1875 33.34375 
Q 11.328125 39.796875 9.046875 43.703125 
Q 6.78125 47.609375 6.78125 51.8125 
Q 6.78125 58.25 11.765625 62.90625 
Q 16.75 67.578125 25 67.578125 
Q 33.015625 67.578125 37.890625 63.234375 
Q 42.78125 58.890625 42.78125 53.328125 
Q 42.78125 49.609375 40.140625 45.75 
Q 37.5 41.890625 29.15625 36.671875 
Q 37.75 30.03125 40.53125 26.21875 
Q 44.234375 21.234375 44.234375 15.71875 
Q 44.234375 8.734375 38.90625 3.78125 
Q 33.59375 -1.171875 24.953125 -1.171875 
Q 15.53125 -1.171875 10.25 4.734375 
Q 6.0625 9.46875 6.0625 15.09375 
Q 6.0625 19.484375 9.015625 23.796875 
Q 11.96875 28.125 19.1875 33.34375 
z
M 26.859375 38.578125 
Q 32.71875 43.84375 34.28125 46.890625 
Q 35.84375 49.953125 35.84375 53.8125 
Q 35.84375 58.9375 32.953125 61.84375 
Q 30.078125 64.75 25.09375 64.75 
Q 20.125 64.75 17 61.859375 
Q 13.875 58.984375 13.875 55.125 
Q 13.875 52.59375 15.15625 50.046875 
Q 16.453125 47.515625 18.84375 45.21875 
z
M 21.484375 31.5 
Q 17.4375 28.078125 15.484375 24.046875 
Q 13.53125 20.015625 13.53125 15.328125 
Q 13.53125 9.03125 16.96875 5.25 
Q 20.40625 1.46875 25.734375 1.46875 
Q 31 1.46875 34.171875 4.4375 
Q 37.359375 7.421875 37.359375 11.671875 
Q 37.359375 15.1875 35.5 17.96875 
Q 32.03125 23.140625 21.484375 31.5 
z
" id="TimesNewRomanPSMT-56"/>
      </defs>
      <g transform="translate(191.5805 310.754)scale(0.16 -0.16)">
       <use xlink:href="#TimesNewRomanPSMT-56"/>
      </g>
     </g>
    </g>
    <g id="xtick_6">
     <g id="line2d_11">
      <path clip-path="url(#pd5c0ba3c41)" d="M 231.2925 292.644 
L 231.2925 26.532 
" style="fill:none;stroke:#b0b0b0;stroke-linecap:square;stroke-width:0.8;"/>
     </g>
     <g id="line2d_12">
      <g>
       <use style="stroke:#000000;stroke-width:0.8;" x="231.2925" xlink:href="#m415ff85c24" y="292.644"/>
      </g>
     </g>
     <g id="text_6">
      <!-- 10 -->
      <defs>
       <path d="M 11.71875 59.71875 
L 27.828125 67.578125 
L 29.4375 67.578125 
L 29.4375 11.671875 
Q 29.4375 6.109375 29.90625 4.734375 
Q 30.375 3.375 31.828125 2.640625 
Q 33.296875 1.90625 37.796875 1.8125 
L 37.796875 0 
L 12.890625 0 
L 12.890625 1.8125 
Q 17.578125 1.90625 18.9375 2.609375 
Q 20.3125 3.328125 20.84375 4.515625 
Q 21.390625 5.71875 21.390625 11.671875 
L 21.390625 47.40625 
Q 21.390625 54.640625 20.90625 56.6875 
Q 20.5625 58.25 19.65625 58.984375 
Q 18.75 59.71875 17.484375 59.71875 
Q 15.671875 59.71875 12.453125 58.203125 
z
" id="TimesNewRomanPSMT-49"/>
      </defs>
      <g transform="translate(223.2925 310.754)scale(0.16 -0.16)">
       <use xlink:href="#TimesNewRomanPSMT-49"/>
       <use x="50" xlink:href="#TimesNewRomanPSMT-48"/>
      </g>
     </g>
    </g>
    <g id="xtick_7">
     <g id="line2d_13">
      <path clip-path="url(#pd5c0ba3c41)" d="M 267.0045 292.644 
L 267.0045 26.532 
" style="fill:none;stroke:#b0b0b0;stroke-linecap:square;stroke-width:0.8;"/>
     </g>
     <g id="line2d_14">
      <g>
       <use style="stroke:#000000;stroke-width:0.8;" x="267.0045" xlink:href="#m415ff85c24" y="292.644"/>
      </g>
     </g>
     <g id="text_7">
      <!-- 12 -->
      <g transform="translate(259.0045 310.754)scale(0.16 -0.16)">
       <use xlink:href="#TimesNewRomanPSMT-49"/>
       <use x="50" xlink:href="#TimesNewRomanPSMT-50"/>
      </g>
     </g>
    </g>
    <g id="xtick_8">
     <g id="line2d_15">
      <path clip-path="url(#pd5c0ba3c41)" d="M 302.7165 292.644 
L 302.7165 26.532 
" style="fill:none;stroke:#b0b0b0;stroke-linecap:square;stroke-width:0.8;"/>
     </g>
     <g id="line2d_16">
      <g>
       <use style="stroke:#000000;stroke-width:0.8;" x="302.7165" xlink:href="#m415ff85c24" y="292.644"/>
      </g>
     </g>
     <g id="text_8">
      <!-- 14 -->
      <g transform="translate(294.7165 310.754)scale(0.16 -0.16)">
       <use xlink:href="#TimesNewRomanPSMT-49"/>
       <use x="50" xlink:href="#TimesNewRomanPSMT-52"/>
      </g>
     </g>
    </g>
    <g id="xtick_9">
     <g id="line2d_17">
      <path clip-path="url(#pd5c0ba3c41)" d="M 338.4285 292.644 
L 338.4285 26.532 
" style="fill:none;stroke:#b0b0b0;stroke-linecap:square;stroke-width:0.8;"/>
     </g>
     <g id="line2d_18">
      <g>
       <use style="stroke:#000000;stroke-width:0.8;" x="338.4285" xlink:href="#m415ff85c24" y="292.644"/>
      </g>
     </g>
     <g id="text_9">
      <!-- 16 -->
      <g transform="translate(330.4285 310.754)scale(0.16 -0.16)">
       <use xlink:href="#TimesNewRomanPSMT-49"/>
       <use x="50" xlink:href="#TimesNewRomanPSMT-54"/>
      </g>
     </g>
    </g>
    <g id="xtick_10">
     <g id="line2d_19">
      <path clip-path="url(#pd5c0ba3c41)" d="M 374.1405 292.644 
L 374.1405 26.532 
" style="fill:none;stroke:#b0b0b0;stroke-linecap:square;stroke-width:0.8;"/>
     </g>
     <g id="line2d_20">
      <g>
       <use style="stroke:#000000;stroke-width:0.8;" x="374.1405" xlink:href="#m415ff85c24" y="292.644"/>
      </g>
     </g>
     <g id="text_10">
      <!-- 18 -->
      <g transform="translate(366.1405 310.754)scale(0.16 -0.16)">
       <use xlink:href="#TimesNewRomanPSMT-49"/>
       <use x="50" xlink:href="#TimesNewRomanPSMT-56"/>
      </g>
     </g>
    </g>
    <g id="text_11">
     <!-- Angle Difference -->
     <defs>
      <path d="M 45.75 22.171875 
L 20.125 22.171875 
L 15.625 11.71875 
Q 13.96875 7.859375 13.96875 5.953125 
Q 13.96875 4.4375 15.40625 3.296875 
Q 16.84375 2.15625 21.625 1.8125 
L 21.625 0 
L 0.78125 0 
L 0.78125 1.8125 
Q 4.9375 2.546875 6.15625 3.71875 
Q 8.640625 6.0625 11.671875 13.234375 
L 34.96875 67.71875 
L 36.671875 67.71875 
L 59.71875 12.640625 
Q 62.5 6 64.765625 4.015625 
Q 67.046875 2.046875 71.09375 1.8125 
L 71.09375 0 
L 44.96875 0 
L 44.96875 1.8125 
Q 48.921875 2 50.3125 3.125 
Q 51.703125 4.25 51.703125 5.859375 
Q 51.703125 8.015625 49.75 12.640625 
z
M 44.390625 25.78125 
L 33.15625 52.546875 
L 21.625 25.78125 
z
" id="TimesNewRomanPSMT-65"/>
      <path d="M 16.15625 36.578125 
Q 24.03125 46.046875 31.15625 46.046875 
Q 34.8125 46.046875 37.453125 44.21875 
Q 40.09375 42.390625 41.65625 38.1875 
Q 42.71875 35.25 42.71875 29.203125 
L 42.71875 10.109375 
Q 42.71875 5.859375 43.40625 4.34375 
Q 43.953125 3.125 45.140625 2.4375 
Q 46.34375 1.765625 49.5625 1.765625 
L 49.5625 0 
L 27.4375 0 
L 27.4375 1.765625 
L 28.375 1.765625 
Q 31.5 1.765625 32.734375 2.703125 
Q 33.984375 3.65625 34.46875 5.515625 
Q 34.671875 6.25 34.671875 10.109375 
L 34.671875 28.421875 
Q 34.671875 34.515625 33.078125 37.28125 
Q 31.5 40.046875 27.734375 40.046875 
Q 21.921875 40.046875 16.15625 33.6875 
L 16.15625 10.109375 
Q 16.15625 5.5625 16.703125 4.5 
Q 17.390625 3.078125 18.578125 2.421875 
Q 19.78125 1.765625 23.4375 1.765625 
L 23.4375 0 
L 1.3125 0 
L 1.3125 1.765625 
L 2.296875 1.765625 
Q 5.71875 1.765625 6.90625 3.484375 
Q 8.109375 5.21875 8.109375 10.109375 
L 8.109375 26.703125 
Q 8.109375 34.765625 7.734375 36.515625 
Q 7.375 38.28125 6.609375 38.90625 
Q 5.859375 39.546875 4.59375 39.546875 
Q 3.21875 39.546875 1.3125 38.8125 
L 0.59375 40.578125 
L 14.0625 46.046875 
L 16.15625 46.046875 
z
" id="TimesNewRomanPSMT-110"/>
      <path d="M 15.09375 16.3125 
Q 10.984375 18.3125 8.78125 21.890625 
Q 6.59375 25.484375 6.59375 29.828125 
Q 6.59375 36.46875 11.59375 41.25 
Q 16.609375 46.046875 24.421875 46.046875 
Q 30.8125 46.046875 35.5 42.921875 
L 44.96875 42.921875 
Q 47.078125 42.921875 47.40625 42.796875 
Q 47.75 42.671875 47.90625 42.390625 
Q 48.1875 41.9375 48.1875 40.828125 
Q 48.1875 39.546875 47.953125 39.0625 
Q 47.796875 38.8125 47.4375 38.671875 
Q 47.078125 38.53125 44.96875 38.53125 
L 39.15625 38.53125 
Q 41.890625 35.015625 41.890625 29.546875 
Q 41.890625 23.296875 37.109375 18.84375 
Q 32.328125 14.40625 24.265625 14.40625 
Q 20.953125 14.40625 17.484375 15.375 
Q 15.328125 13.53125 14.5625 12.140625 
Q 13.8125 10.75 13.8125 9.765625 
Q 13.8125 8.9375 14.625 8.15625 
Q 15.4375 7.375 17.78125 7.03125 
Q 19.140625 6.84375 24.609375 6.6875 
Q 34.671875 6.453125 37.640625 6 
Q 42.1875 5.375 44.890625 2.640625 
Q 47.609375 -0.09375 47.609375 -4.109375 
Q 47.609375 -9.625 42.4375 -14.453125 
Q 34.8125 -21.578125 22.5625 -21.578125 
Q 13.140625 -21.578125 6.640625 -17.328125 
Q 2.984375 -14.890625 2.984375 -12.25 
Q 2.984375 -11.078125 3.515625 -9.90625 
Q 4.34375 -8.109375 6.9375 -4.890625 
Q 7.28125 -4.4375 11.921875 0.390625 
Q 9.375 1.90625 8.328125 3.09375 
Q 7.28125 4.296875 7.28125 5.8125 
Q 7.28125 7.515625 8.671875 9.8125 
Q 10.0625 12.109375 15.09375 16.3125 
z
M 23.578125 43.703125 
Q 19.96875 43.703125 17.53125 40.8125 
Q 15.09375 37.9375 15.09375 31.984375 
Q 15.09375 24.265625 18.40625 20.015625 
Q 20.953125 16.796875 24.859375 16.796875 
Q 28.5625 16.796875 30.953125 19.578125 
Q 33.34375 22.359375 33.34375 28.328125 
Q 33.34375 36.078125 29.984375 40.484375 
Q 27.484375 43.703125 23.578125 43.703125 
z
M 14.59375 0 
Q 12.3125 -2.484375 11.140625 -4.625 
Q 9.96875 -6.78125 9.96875 -8.59375 
Q 9.96875 -10.9375 12.796875 -12.703125 
Q 17.671875 -15.71875 26.90625 -15.71875 
Q 35.6875 -15.71875 39.859375 -12.609375 
Q 44.046875 -9.515625 44.046875 -6 
Q 44.046875 -3.46875 41.546875 -2.390625 
Q 39.015625 -1.3125 31.5 -1.125 
Q 20.515625 -0.828125 14.59375 0 
z
" id="TimesNewRomanPSMT-103"/>
      <path d="M 18.5 69.4375 
L 18.5 10.109375 
Q 18.5 5.90625 19.109375 4.53125 
Q 19.734375 3.171875 21 2.46875 
Q 22.265625 1.765625 25.734375 1.765625 
L 25.734375 0 
L 3.8125 0 
L 3.8125 1.765625 
Q 6.890625 1.765625 8 2.390625 
Q 9.125 3.03125 9.765625 4.484375 
Q 10.40625 5.953125 10.40625 10.109375 
L 10.40625 50.734375 
Q 10.40625 58.296875 10.0625 60.03125 
Q 9.71875 61.765625 8.953125 62.390625 
Q 8.203125 63.03125 7.03125 63.03125 
Q 5.765625 63.03125 3.8125 62.25 
L 2.984375 63.96875 
L 16.3125 69.4375 
z
" id="TimesNewRomanPSMT-108"/>
      <path d="M 10.640625 27.875 
Q 10.59375 17.921875 15.484375 12.25 
Q 20.359375 6.59375 26.953125 6.59375 
Q 31.34375 6.59375 34.59375 9 
Q 37.84375 11.421875 40.046875 17.28125 
L 41.546875 16.3125 
Q 40.53125 9.625 35.59375 4.125 
Q 30.671875 -1.375 23.25 -1.375 
Q 15.1875 -1.375 9.453125 4.90625 
Q 3.71875 11.1875 3.71875 21.78125 
Q 3.71875 33.25 9.59375 39.671875 
Q 15.484375 46.09375 24.359375 46.09375 
Q 31.890625 46.09375 36.71875 41.140625 
Q 41.546875 36.1875 41.546875 27.875 
z
M 10.640625 30.71875 
L 31.34375 30.71875 
Q 31.109375 35.015625 30.328125 36.765625 
Q 29.109375 39.5 26.6875 41.0625 
Q 24.265625 42.625 21.625 42.625 
Q 17.578125 42.625 14.375 39.46875 
Q 11.1875 36.328125 10.640625 30.71875 
z
" id="TimesNewRomanPSMT-101"/>
      <path id="TimesNewRomanPSMT-32"/>
      <path d="M 1.703125 0 
L 1.703125 1.8125 
L 4.203125 1.8125 
Q 8.40625 1.8125 10.15625 4.5 
Q 11.234375 6.109375 11.234375 11.71875 
L 11.234375 54.5 
Q 11.234375 60.6875 9.859375 62.25 
Q 7.953125 64.40625 4.203125 64.40625 
L 1.703125 64.40625 
L 1.703125 66.21875 
L 28.65625 66.21875 
Q 43.5 66.21875 51.234375 62.84375 
Q 58.984375 59.46875 63.6875 51.609375 
Q 68.40625 43.75 68.40625 33.453125 
Q 68.40625 19.625 60.015625 10.359375 
Q 50.59375 0 31.296875 0 
z
M 20.609375 4.78125 
Q 26.8125 3.421875 31 3.421875 
Q 42.328125 3.421875 49.796875 11.375 
Q 57.28125 19.34375 57.28125 32.953125 
Q 57.28125 46.6875 49.796875 54.59375 
Q 42.328125 62.5 30.609375 62.5 
Q 26.21875 62.5 20.609375 61.078125 
z
" id="TimesNewRomanPSMT-68"/>
      <path d="M 14.5 69.4375 
Q 16.546875 69.4375 17.984375 67.984375 
Q 19.4375 66.546875 19.4375 64.5 
Q 19.4375 62.453125 17.984375 60.984375 
Q 16.546875 59.515625 14.5 59.515625 
Q 12.453125 59.515625 10.984375 60.984375 
Q 9.515625 62.453125 9.515625 64.5 
Q 9.515625 66.546875 10.953125 67.984375 
Q 12.40625 69.4375 14.5 69.4375 
z
M 18.5625 46.046875 
L 18.5625 10.109375 
Q 18.5625 5.90625 19.171875 4.515625 
Q 19.78125 3.125 20.96875 2.4375 
Q 22.171875 1.765625 25.34375 1.765625 
L 25.34375 0 
L 3.609375 0 
L 3.609375 1.765625 
Q 6.890625 1.765625 8 2.390625 
Q 9.125 3.03125 9.78125 4.484375 
Q 10.453125 5.953125 10.453125 10.109375 
L 10.453125 27.34375 
Q 10.453125 34.625 10.015625 36.765625 
Q 9.671875 38.328125 8.9375 38.9375 
Q 8.203125 39.546875 6.9375 39.546875 
Q 5.5625 39.546875 3.609375 38.8125 
L 2.9375 40.578125 
L 16.40625 46.046875 
z
" id="TimesNewRomanPSMT-105"/>
      <path d="M 20.609375 41.21875 
L 20.609375 11.8125 
Q 20.609375 5.5625 21.96875 3.90625 
Q 23.78125 1.765625 26.8125 1.765625 
L 30.859375 1.765625 
L 30.859375 0 
L 4.15625 0 
L 4.15625 1.765625 
L 6.15625 1.765625 
Q 8.109375 1.765625 9.71875 2.734375 
Q 11.328125 3.71875 11.9375 5.375 
Q 12.546875 7.03125 12.546875 11.8125 
L 12.546875 41.21875 
L 3.859375 41.21875 
L 3.859375 44.734375 
L 12.546875 44.734375 
L 12.546875 47.65625 
Q 12.546875 54.34375 14.6875 58.984375 
Q 16.84375 63.625 21.265625 66.484375 
Q 25.6875 69.34375 31.203125 69.34375 
Q 36.328125 69.34375 40.625 66.015625 
Q 43.453125 63.8125 43.453125 61.078125 
Q 43.453125 59.625 42.1875 58.328125 
Q 40.921875 57.03125 39.453125 57.03125 
Q 38.328125 57.03125 37.078125 57.828125 
Q 35.84375 58.640625 34.03125 61.296875 
Q 32.234375 63.96875 30.71875 64.890625 
Q 29.203125 65.828125 27.34375 65.828125 
Q 25.09375 65.828125 23.53125 64.625 
Q 21.96875 63.421875 21.28125 60.90625 
Q 20.609375 58.40625 20.609375 47.953125 
L 20.609375 44.734375 
L 32.125 44.734375 
L 32.125 41.21875 
z
" id="TimesNewRomanPSMT-102"/>
      <path d="M 16.21875 46.046875 
L 16.21875 35.984375 
Q 21.828125 46.046875 27.734375 46.046875 
Q 30.421875 46.046875 32.171875 44.40625 
Q 33.9375 42.78125 33.9375 40.625 
Q 33.9375 38.71875 32.65625 37.390625 
Q 31.390625 36.078125 29.640625 36.078125 
Q 27.9375 36.078125 25.8125 37.765625 
Q 23.6875 39.453125 22.65625 39.453125 
Q 21.78125 39.453125 20.75 38.484375 
Q 18.5625 36.46875 16.21875 31.890625 
L 16.21875 10.453125 
Q 16.21875 6.734375 17.140625 4.828125 
Q 17.78125 3.515625 19.390625 2.640625 
Q 21 1.765625 24.03125 1.765625 
L 24.03125 0 
L 1.125 0 
L 1.125 1.765625 
Q 4.546875 1.765625 6.203125 2.828125 
Q 7.421875 3.609375 7.90625 5.328125 
Q 8.15625 6.15625 8.15625 10.0625 
L 8.15625 27.390625 
Q 8.15625 35.203125 7.828125 36.6875 
Q 7.515625 38.1875 6.65625 38.859375 
Q 5.8125 39.546875 4.546875 39.546875 
Q 3.03125 39.546875 1.125 38.8125 
L 0.640625 40.578125 
L 14.15625 46.046875 
z
" id="TimesNewRomanPSMT-114"/>
      <path d="M 41.109375 17 
Q 39.3125 8.15625 34.03125 3.390625 
Q 28.765625 -1.375 22.359375 -1.375 
Q 14.75 -1.375 9.078125 5.015625 
Q 3.421875 11.421875 3.421875 22.3125 
Q 3.421875 32.859375 9.6875 39.453125 
Q 15.96875 46.046875 24.75 46.046875 
Q 31.34375 46.046875 35.59375 42.546875 
Q 39.84375 39.0625 39.84375 35.296875 
Q 39.84375 33.453125 38.640625 32.296875 
Q 37.453125 31.15625 35.296875 31.15625 
Q 32.421875 31.15625 30.953125 33.015625 
Q 30.125 34.03125 29.859375 36.90625 
Q 29.59375 39.796875 27.875 41.3125 
Q 26.171875 42.78125 23.140625 42.78125 
Q 18.265625 42.78125 15.28125 39.15625 
Q 11.328125 34.375 11.328125 26.515625 
Q 11.328125 18.5 15.25 12.375 
Q 19.1875 6.25 25.875 6.25 
Q 30.671875 6.25 34.46875 9.515625 
Q 37.15625 11.765625 39.703125 17.671875 
z
" id="TimesNewRomanPSMT-99"/>
     </defs>
     <g transform="translate(175.54625 329.2865)scale(0.16 -0.16)">
      <use xlink:href="#TimesNewRomanPSMT-65"/>
      <use x="72.216797" xlink:href="#TimesNewRomanPSMT-110"/>
      <use x="122.216797" xlink:href="#TimesNewRomanPSMT-103"/>
      <use x="172.216797" xlink:href="#TimesNewRomanPSMT-108"/>
      <use x="200" xlink:href="#TimesNewRomanPSMT-101"/>
      <use x="244.384766" xlink:href="#TimesNewRomanPSMT-32"/>
      <use x="269.384766" xlink:href="#TimesNewRomanPSMT-68"/>
      <use x="341.601562" xlink:href="#TimesNewRomanPSMT-105"/>
      <use x="369.384766" xlink:href="#TimesNewRomanPSMT-102"/>
      <use x="402.669922" xlink:href="#TimesNewRomanPSMT-102"/>
      <use x="435.970703" xlink:href="#TimesNewRomanPSMT-101"/>
      <use x="480.355469" xlink:href="#TimesNewRomanPSMT-114"/>
      <use x="513.65625" xlink:href="#TimesNewRomanPSMT-101"/>
      <use x="558.041016" xlink:href="#TimesNewRomanPSMT-110"/>
      <use x="608.041016" xlink:href="#TimesNewRomanPSMT-99"/>
      <use x="652.425781" xlink:href="#TimesNewRomanPSMT-101"/>
     </g>
    </g>
   </g>
   <g id="matplotlib.axis_2">
    <g id="ytick_1">
     <g id="line2d_21">
      <path clip-path="url(#pd5c0ba3c41)" d="M 52.7325 292.644 
L 409.8525 292.644 
" style="fill:none;stroke:#b0b0b0;stroke-linecap:square;stroke-width:0.8;"/>
     </g>
     <g id="line2d_22">
      <defs>
       <path d="M 0 0 
L -3.5 0 
" id="m918a392551" style="stroke:#000000;stroke-width:0.8;"/>
      </defs>
      <g>
       <use style="stroke:#000000;stroke-width:0.8;" x="52.7325" xlink:href="#m918a392551" y="292.644"/>
      </g>
     </g>
     <g id="text_12">
      <!-- 0.0 -->
      <defs>
       <path d="M 12.5 9.46875 
Q 14.796875 9.46875 16.359375 7.875 
Q 17.921875 6.296875 17.921875 4.046875 
Q 17.921875 1.8125 16.328125 0.21875 
Q 14.75 -1.375 12.5 -1.375 
Q 10.25 -1.375 8.65625 0.21875 
Q 7.078125 1.8125 7.078125 4.046875 
Q 7.078125 6.34375 8.65625 7.90625 
Q 10.25 9.46875 12.5 9.46875 
z
" id="TimesNewRomanPSMT-46"/>
      </defs>
      <g transform="translate(25.7325 298.199)scale(0.16 -0.16)">
       <use xlink:href="#TimesNewRomanPSMT-48"/>
       <use x="50" xlink:href="#TimesNewRomanPSMT-46"/>
       <use x="75" xlink:href="#TimesNewRomanPSMT-48"/>
      </g>
     </g>
    </g>
    <g id="ytick_2">
     <g id="line2d_23">
      <path clip-path="url(#pd5c0ba3c41)" d="M 52.7325 266.0328 
L 409.8525 266.0328 
" style="fill:none;stroke:#b0b0b0;stroke-linecap:square;stroke-width:0.8;"/>
     </g>
     <g id="line2d_24">
      <g>
       <use style="stroke:#000000;stroke-width:0.8;" x="52.7325" xlink:href="#m918a392551" y="266.0328"/>
      </g>
     </g>
     <g id="text_13">
      <!-- 0.1 -->
      <g transform="translate(25.7325 271.5878)scale(0.16 -0.16)">
       <use xlink:href="#TimesNewRomanPSMT-48"/>
       <use x="50" xlink:href="#TimesNewRomanPSMT-46"/>
       <use x="75" xlink:href="#TimesNewRomanPSMT-49"/>
      </g>
     </g>
    </g>
    <g id="ytick_3">
     <g id="line2d_25">
      <path clip-path="url(#pd5c0ba3c41)" d="M 52.7325 239.4216 
L 409.8525 239.4216 
" style="fill:none;stroke:#b0b0b0;stroke-linecap:square;stroke-width:0.8;"/>
     </g>
     <g id="line2d_26">
      <g>
       <use style="stroke:#000000;stroke-width:0.8;" x="52.7325" xlink:href="#m918a392551" y="239.4216"/>
      </g>
     </g>
     <g id="text_14">
      <!-- 0.2 -->
      <g transform="translate(25.7325 244.9766)scale(0.16 -0.16)">
       <use xlink:href="#TimesNewRomanPSMT-48"/>
       <use x="50" xlink:href="#TimesNewRomanPSMT-46"/>
       <use x="75" xlink:href="#TimesNewRomanPSMT-50"/>
      </g>
     </g>
    </g>
    <g id="ytick_4">
     <g id="line2d_27">
      <path clip-path="url(#pd5c0ba3c41)" d="M 52.7325 212.8104 
L 409.8525 212.8104 
" style="fill:none;stroke:#b0b0b0;stroke-linecap:square;stroke-width:0.8;"/>
     </g>
     <g id="line2d_28">
      <g>
       <use style="stroke:#000000;stroke-width:0.8;" x="52.7325" xlink:href="#m918a392551" y="212.8104"/>
      </g>
     </g>
     <g id="text_15">
      <!-- 0.3 -->
      <defs>
       <path d="M 5.078125 53.609375 
Q 7.90625 60.296875 12.21875 63.9375 
Q 16.546875 67.578125 23 67.578125 
Q 30.953125 67.578125 35.203125 62.40625 
Q 38.421875 58.546875 38.421875 54.15625 
Q 38.421875 46.921875 29.34375 39.203125 
Q 35.453125 36.8125 38.578125 32.375 
Q 41.703125 27.9375 41.703125 21.921875 
Q 41.703125 13.328125 36.234375 7.03125 
Q 29.109375 -1.171875 15.578125 -1.171875 
Q 8.890625 -1.171875 6.46875 0.484375 
Q 4.046875 2.15625 4.046875 4.046875 
Q 4.046875 5.46875 5.1875 6.546875 
Q 6.34375 7.625 7.953125 7.625 
Q 9.1875 7.625 10.453125 7.234375 
Q 11.28125 6.984375 14.203125 5.4375 
Q 17.140625 3.90625 18.265625 3.609375 
Q 20.0625 3.078125 22.125 3.078125 
Q 27.09375 3.078125 30.78125 6.9375 
Q 34.46875 10.796875 34.46875 16.0625 
Q 34.46875 19.921875 32.765625 23.578125 
Q 31.5 26.3125 29.984375 27.734375 
Q 27.875 29.6875 24.21875 31.265625 
Q 20.5625 32.859375 16.75 32.859375 
L 15.1875 32.859375 
L 15.1875 34.328125 
Q 19.046875 34.8125 22.921875 37.109375 
Q 26.8125 39.40625 28.5625 42.625 
Q 30.328125 45.84375 30.328125 49.703125 
Q 30.328125 54.734375 27.171875 57.828125 
Q 24.03125 60.9375 19.34375 60.9375 
Q 11.765625 60.9375 6.6875 52.828125 
z
" id="TimesNewRomanPSMT-51"/>
      </defs>
      <g transform="translate(25.7325 218.3654)scale(0.16 -0.16)">
       <use xlink:href="#TimesNewRomanPSMT-48"/>
       <use x="50" xlink:href="#TimesNewRomanPSMT-46"/>
       <use x="75" xlink:href="#TimesNewRomanPSMT-51"/>
      </g>
     </g>
    </g>
    <g id="ytick_5">
     <g id="line2d_29">
      <path clip-path="url(#pd5c0ba3c41)" d="M 52.7325 186.1992 
L 409.8525 186.1992 
" style="fill:none;stroke:#b0b0b0;stroke-linecap:square;stroke-width:0.8;"/>
     </g>
     <g id="line2d_30">
      <g>
       <use style="stroke:#000000;stroke-width:0.8;" x="52.7325" xlink:href="#m918a392551" y="186.1992"/>
      </g>
     </g>
     <g id="text_16">
      <!-- 0.4 -->
      <g transform="translate(25.7325 191.7542)scale(0.16 -0.16)">
       <use xlink:href="#TimesNewRomanPSMT-48"/>
       <use x="50" xlink:href="#TimesNewRomanPSMT-46"/>
       <use x="75" xlink:href="#TimesNewRomanPSMT-52"/>
      </g>
     </g>
    </g>
    <g id="ytick_6">
     <g id="line2d_31">
      <path clip-path="url(#pd5c0ba3c41)" d="M 52.7325 159.588 
L 409.8525 159.588 
" style="fill:none;stroke:#b0b0b0;stroke-linecap:square;stroke-width:0.8;"/>
     </g>
     <g id="line2d_32">
      <g>
       <use style="stroke:#000000;stroke-width:0.8;" x="52.7325" xlink:href="#m918a392551" y="159.588"/>
      </g>
     </g>
     <g id="text_17">
      <!-- 0.5 -->
      <defs>
       <path d="M 43.40625 66.21875 
L 39.59375 57.90625 
L 19.671875 57.90625 
L 15.328125 49.03125 
Q 28.265625 47.125 35.84375 39.40625 
Q 42.328125 32.765625 42.328125 23.78125 
Q 42.328125 18.5625 40.203125 14.109375 
Q 38.09375 9.671875 34.859375 6.546875 
Q 31.640625 3.421875 27.6875 1.515625 
Q 22.078125 -1.171875 16.15625 -1.171875 
Q 10.203125 -1.171875 7.484375 0.84375 
Q 4.78125 2.875 4.78125 5.328125 
Q 4.78125 6.6875 5.90625 7.734375 
Q 7.03125 8.796875 8.734375 8.796875 
Q 10.015625 8.796875 10.96875 8.40625 
Q 11.921875 8.015625 14.203125 6.390625 
Q 17.875 3.859375 21.625 3.859375 
Q 27.34375 3.859375 31.65625 8.171875 
Q 35.984375 12.5 35.984375 18.703125 
Q 35.984375 24.703125 32.125 29.90625 
Q 28.265625 35.109375 21.484375 37.9375 
Q 16.15625 40.140625 6.984375 40.484375 
L 19.671875 66.21875 
z
" id="TimesNewRomanPSMT-53"/>
      </defs>
      <g transform="translate(25.7325 165.143)scale(0.16 -0.16)">
       <use xlink:href="#TimesNewRomanPSMT-48"/>
       <use x="50" xlink:href="#TimesNewRomanPSMT-46"/>
       <use x="75" xlink:href="#TimesNewRomanPSMT-53"/>
      </g>
     </g>
    </g>
    <g id="ytick_7">
     <g id="line2d_33">
      <path clip-path="url(#pd5c0ba3c41)" d="M 52.7325 132.9768 
L 409.8525 132.9768 
" style="fill:none;stroke:#b0b0b0;stroke-linecap:square;stroke-width:0.8;"/>
     </g>
     <g id="line2d_34">
      <g>
       <use style="stroke:#000000;stroke-width:0.8;" x="52.7325" xlink:href="#m918a392551" y="132.9768"/>
      </g>
     </g>
     <g id="text_18">
      <!-- 0.6 -->
      <g transform="translate(25.7325 138.5318)scale(0.16 -0.16)">
       <use xlink:href="#TimesNewRomanPSMT-48"/>
       <use x="50" xlink:href="#TimesNewRomanPSMT-46"/>
       <use x="75" xlink:href="#TimesNewRomanPSMT-54"/>
      </g>
     </g>
    </g>
    <g id="ytick_8">
     <g id="line2d_35">
      <path clip-path="url(#pd5c0ba3c41)" d="M 52.7325 106.3656 
L 409.8525 106.3656 
" style="fill:none;stroke:#b0b0b0;stroke-linecap:square;stroke-width:0.8;"/>
     </g>
     <g id="line2d_36">
      <g>
       <use style="stroke:#000000;stroke-width:0.8;" x="52.7325" xlink:href="#m918a392551" y="106.3656"/>
      </g>
     </g>
     <g id="text_19">
      <!-- 0.7 -->
      <defs>
       <path d="M 10.0625 66.21875 
L 45.5625 66.21875 
L 45.5625 64.359375 
L 23.484375 -1.375 
L 18.015625 -1.375 
L 37.796875 58.25 
L 19.578125 58.25 
Q 14.0625 58.25 11.71875 56.9375 
Q 7.625 54.6875 5.125 50 
L 3.71875 50.53125 
z
" id="TimesNewRomanPSMT-55"/>
      </defs>
      <g transform="translate(25.7325 111.9206)scale(0.16 -0.16)">
       <use xlink:href="#TimesNewRomanPSMT-48"/>
       <use x="50" xlink:href="#TimesNewRomanPSMT-46"/>
       <use x="75" xlink:href="#TimesNewRomanPSMT-55"/>
      </g>
     </g>
    </g>
    <g id="ytick_9">
     <g id="line2d_37">
      <path clip-path="url(#pd5c0ba3c41)" d="M 52.7325 79.7544 
L 409.8525 79.7544 
" style="fill:none;stroke:#b0b0b0;stroke-linecap:square;stroke-width:0.8;"/>
     </g>
     <g id="line2d_38">
      <g>
       <use style="stroke:#000000;stroke-width:0.8;" x="52.7325" xlink:href="#m918a392551" y="79.7544"/>
      </g>
     </g>
     <g id="text_20">
      <!-- 0.8 -->
      <g transform="translate(25.7325 85.3094)scale(0.16 -0.16)">
       <use xlink:href="#TimesNewRomanPSMT-48"/>
       <use x="50" xlink:href="#TimesNewRomanPSMT-46"/>
       <use x="75" xlink:href="#TimesNewRomanPSMT-56"/>
      </g>
     </g>
    </g>
    <g id="ytick_10">
     <g id="line2d_39">
      <path clip-path="url(#pd5c0ba3c41)" d="M 52.7325 53.1432 
L 409.8525 53.1432 
" style="fill:none;stroke:#b0b0b0;stroke-linecap:square;stroke-width:0.8;"/>
     </g>
     <g id="line2d_40">
      <g>
       <use style="stroke:#000000;stroke-width:0.8;" x="52.7325" xlink:href="#m918a392551" y="53.1432"/>
      </g>
     </g>
     <g id="text_21">
      <!-- 0.9 -->
      <defs>
       <path d="M 5.28125 -1.375 
L 5.28125 0.4375 
Q 11.625 0.53125 17.09375 3.390625 
Q 22.5625 6.25 27.65625 13.375 
Q 32.765625 20.515625 34.765625 29.046875 
Q 27.09375 24.125 20.90625 24.125 
Q 13.921875 24.125 8.9375 29.515625 
Q 3.953125 34.90625 3.953125 43.84375 
Q 3.953125 52.546875 8.9375 59.328125 
Q 14.9375 67.578125 24.609375 67.578125 
Q 32.765625 67.578125 38.578125 60.84375 
Q 45.703125 52.484375 45.703125 40.234375 
Q 45.703125 29.203125 40.28125 19.65625 
Q 34.859375 10.109375 25.203125 3.8125 
Q 17.328125 -1.375 8.0625 -1.375 
z
M 35.546875 32.671875 
Q 36.421875 39.015625 36.421875 42.828125 
Q 36.421875 47.5625 34.8125 53.046875 
Q 33.203125 58.546875 30.25 61.46875 
Q 27.296875 64.40625 23.53125 64.40625 
Q 19.1875 64.40625 15.90625 60.5 
Q 12.640625 56.59375 12.640625 48.875 
Q 12.640625 38.578125 17 32.765625 
Q 20.171875 28.5625 24.8125 28.5625 
Q 27.046875 28.5625 30.125 29.640625 
Q 33.203125 30.71875 35.546875 32.671875 
z
" id="TimesNewRomanPSMT-57"/>
      </defs>
      <g transform="translate(25.7325 58.6982)scale(0.16 -0.16)">
       <use xlink:href="#TimesNewRomanPSMT-48"/>
       <use x="50" xlink:href="#TimesNewRomanPSMT-46"/>
       <use x="75" xlink:href="#TimesNewRomanPSMT-57"/>
      </g>
     </g>
    </g>
    <g id="text_22">
     <!-- Percentage -->
     <defs>
      <path d="M 20.515625 31 
L 20.515625 11.71875 
Q 20.515625 5.46875 21.875 3.953125 
Q 23.734375 1.8125 27.484375 1.8125 
L 30.03125 1.8125 
L 30.03125 0 
L 1.65625 0 
L 1.65625 1.8125 
L 4.15625 1.8125 
Q 8.34375 1.8125 10.15625 4.546875 
Q 11.140625 6.0625 11.140625 11.71875 
L 11.140625 54.5 
Q 11.140625 60.75 9.8125 62.25 
Q 7.90625 64.40625 4.15625 64.40625 
L 1.65625 64.40625 
L 1.65625 66.21875 
L 25.921875 66.21875 
Q 34.8125 66.21875 39.9375 64.375 
Q 45.0625 62.546875 48.578125 58.203125 
Q 52.09375 53.859375 52.09375 47.90625 
Q 52.09375 39.796875 46.75 34.71875 
Q 41.40625 29.640625 31.640625 29.640625 
Q 29.25 29.640625 26.46875 29.984375 
Q 23.6875 30.328125 20.515625 31 
z
M 20.515625 33.796875 
Q 23.09375 33.296875 25.09375 33.046875 
Q 27.09375 32.8125 28.515625 32.8125 
Q 33.59375 32.8125 37.28125 36.734375 
Q 40.96875 40.671875 40.96875 46.921875 
Q 40.96875 51.21875 39.203125 54.90625 
Q 37.453125 58.59375 34.21875 60.421875 
Q 31 62.25 26.90625 62.25 
Q 24.421875 62.25 20.515625 61.328125 
z
" id="TimesNewRomanPSMT-80"/>
      <path d="M 16.109375 59.421875 
L 16.109375 44.734375 
L 26.5625 44.734375 
L 26.5625 41.3125 
L 16.109375 41.3125 
L 16.109375 12.3125 
Q 16.109375 7.953125 17.359375 6.4375 
Q 18.609375 4.9375 20.5625 4.9375 
Q 22.171875 4.9375 23.6875 5.9375 
Q 25.203125 6.9375 26.03125 8.890625 
L 27.9375 8.890625 
Q 26.21875 4.109375 23.09375 1.6875 
Q 19.96875 -0.734375 16.65625 -0.734375 
Q 14.40625 -0.734375 12.25 0.515625 
Q 10.109375 1.765625 9.078125 4.078125 
Q 8.0625 6.390625 8.0625 11.234375 
L 8.0625 41.3125 
L 0.984375 41.3125 
L 0.984375 42.921875 
Q 3.65625 44 6.46875 46.5625 
Q 9.28125 49.125 11.46875 52.640625 
Q 12.59375 54.5 14.59375 59.421875 
z
" id="TimesNewRomanPSMT-116"/>
      <path d="M 28.46875 6.453125 
Q 21.578125 1.125 19.828125 0.296875 
Q 17.1875 -0.921875 14.203125 -0.921875 
Q 9.578125 -0.921875 6.5625 2.25 
Q 3.5625 5.421875 3.5625 10.59375 
Q 3.5625 13.875 5.03125 16.265625 
Q 7.03125 19.578125 11.984375 22.5 
Q 16.9375 25.4375 28.46875 29.640625 
L 28.46875 31.390625 
Q 28.46875 38.09375 26.34375 40.578125 
Q 24.21875 43.0625 20.171875 43.0625 
Q 17.09375 43.0625 15.28125 41.40625 
Q 13.421875 39.75 13.421875 37.59375 
L 13.53125 34.765625 
Q 13.53125 32.515625 12.375 31.296875 
Q 11.234375 30.078125 9.375 30.078125 
Q 7.5625 30.078125 6.421875 31.34375 
Q 5.28125 32.625 5.28125 34.8125 
Q 5.28125 39.015625 9.578125 42.53125 
Q 13.875 46.046875 21.625 46.046875 
Q 27.59375 46.046875 31.390625 44.046875 
Q 34.28125 42.53125 35.640625 39.3125 
Q 36.53125 37.203125 36.53125 30.71875 
L 36.53125 15.53125 
Q 36.53125 9.125 36.765625 7.6875 
Q 37.015625 6.25 37.578125 5.765625 
Q 38.140625 5.28125 38.875 5.28125 
Q 39.65625 5.28125 40.234375 5.609375 
Q 41.265625 6.25 44.1875 9.1875 
L 44.1875 6.453125 
Q 38.71875 -0.875 33.734375 -0.875 
Q 31.34375 -0.875 29.921875 0.78125 
Q 28.515625 2.4375 28.46875 6.453125 
z
M 28.46875 9.625 
L 28.46875 26.65625 
Q 21.09375 23.734375 18.953125 22.515625 
Q 15.09375 20.359375 13.421875 18.015625 
Q 11.765625 15.671875 11.765625 12.890625 
Q 11.765625 9.375 13.859375 7.046875 
Q 15.96875 4.734375 18.703125 4.734375 
Q 22.40625 4.734375 28.46875 9.625 
z
" id="TimesNewRomanPSMT-97"/>
     </defs>
     <g transform="translate(18.28 194.67925)rotate(-90)scale(0.16 -0.16)">
      <use xlink:href="#TimesNewRomanPSMT-80"/>
      <use x="55.615234" xlink:href="#TimesNewRomanPSMT-101"/>
      <use x="100" xlink:href="#TimesNewRomanPSMT-114"/>
      <use x="133.300781" xlink:href="#TimesNewRomanPSMT-99"/>
      <use x="177.685547" xlink:href="#TimesNewRomanPSMT-101"/>
      <use x="222.070312" xlink:href="#TimesNewRomanPSMT-110"/>
      <use x="272.070312" xlink:href="#TimesNewRomanPSMT-116"/>
      <use x="299.853516" xlink:href="#TimesNewRomanPSMT-97"/>
      <use x="344.238281" xlink:href="#TimesNewRomanPSMT-103"/>
      <use x="394.238281" xlink:href="#TimesNewRomanPSMT-101"/>
     </g>
    </g>
   </g>
   <g id="line2d_41">
    <path clip-path="url(#pd5c0ba3c41)" d="M 54.27266 291.67632 
L 54.973225 290.70864 
L 55.499966 289.74096 
L 55.666032 287.8056 
L 55.975776 286.83792 
L 56.246462 281.03184 
L 56.497907 280.06416 
L 56.607701 278.1288 
L 56.84831 276.19344 
L 57.261446 269.41968 
L 57.8379 264.58128 
L 58.033038 261.67824 
L 58.182171 260.71056 
L 58.18676 259.74288 
L 58.717747 258.7752 
L 59.063668 255.87216 
L 59.632261 254.90448 
L 60.105692 252.00144 
L 60.134138 250.06608 
L 60.397784 248.13072 
L 60.572756 246.19536 
L 60.882558 245.22768 
L 61.067654 243.29232 
L 61.19959 241.35696 
L 61.670401 239.4216 
L 61.884502 237.48624 
L 62.468154 234.5832 
L 62.477212 233.61552 
L 62.691862 232.64784 
L 62.853715 230.71248 
L 63.169177 229.7448 
L 63.249513 227.80944 
L 63.494567 225.87408 
L 63.714778 221.03568 
L 64.577304 219.10032 
L 65.160316 218.13264 
L 65.525253 215.2296 
L 65.540046 214.26192 
L 66.429326 213.29424 
L 66.688483 212.32656 
L 66.69042 211.35888 
L 67.548725 210.3912 
L 68.12495 209.42352 
L 68.554878 205.5528 
L 68.805421 204.58512 
L 69.268445 203.61744 
L 69.574493 198.77904 
L 69.835378 196.84368 
L 70.028046 194.90832 
L 70.778101 193.94064 
L 70.836752 192.97296 
L 71.103126 192.00528 
L 71.260848 190.06992 
L 71.936711 189.10224 
L 72.156063 188.13456 
L 72.189356 187.16688 
L 72.520978 186.1992 
L 72.883329 182.32848 
L 73.15769 181.3608 
L 73.17031 180.39312 
L 74.000102 179.42544 
L 74.118162 178.45776 
L 75.414797 176.5224 
L 75.875767 175.55472 
L 76.752031 170.71632 
L 76.973996 169.74864 
L 78.056337 168.78096 
L 78.333318 167.81328 
L 78.338534 165.87792 
L 78.599327 164.91024 
L 79.727629 163.94256 
L 80.101925 162.97488 
L 80.128801 162.0072 
L 80.433828 161.03952 
L 80.46716 160.07184 
L 80.652314 159.10416 
L 81.167642 158.13648 
L 81.911803 157.1688 
L 82.99186 156.20112 
L 83.023273 155.23344 
L 83.355917 154.26576 
L 83.535825 152.3304 
L 85.119451 151.36272 
L 86.230333 150.39504 
L 86.677807 149.42736 
L 88.088785 147.492 
L 88.845711 145.55664 
L 91.396379 143.62128 
L 92.574418 141.68592 
L 93.449257 140.71824 
L 94.124949 139.75056 
L 95.629603 138.78288 
L 96.304592 137.8152 
L 96.833797 136.84752 
L 97.901614 135.87984 
L 98.524071 134.91216 
L 100.543978 133.94448 
L 102.031734 132.9768 
L 102.272245 132.00912 
L 109.593453 131.04144 
L 110.11699 130.07376 
L 110.778865 129.10608 
L 111.209302 128.1384 
L 113.497486 127.17072 
L 113.918746 126.20304 
L 115.355761 125.23536 
L 115.91944 124.26768 
L 118.234279 123.3 
L 119.634912 122.33232 
L 121.577669 121.36464 
L 121.842679 120.39696 
L 122.924498 119.42928 
L 135.050826 118.4616 
L 136.688559 117.49392 
L 136.979478 116.52624 
L 139.73433 115.55856 
L 145.872741 114.59088 
L 146.759175 113.6232 
L 163.174835 111.68784 
L 163.403874 110.72016 
L 166.491341 109.75248 
L 166.609611 108.7848 
L 171.597544 107.81712 
L 182.081351 106.84944 
L 195.223978 105.88176 
L 202.24812 104.91408 
L 207.728822 103.9464 
L 214.685101 102.97872 
L 226.650118 102.01104 
L 236.015574 100.07568 
L 236.611819 99.108 
L 240.920763 98.14032 
L 265.864088 97.17264 
L 265.960329 96.20496 
L 285.158725 95.23728 
L 285.784815 94.2696 
L 298.619638 93.30192 
L 305.669761 91.36656 
L 310.144231 90.39888 
L 320.707111 89.4312 
L 372.575371 87.49584 
L 372.778979 86.52816 
L 380.092366 85.56048 
L 392.088562 84.5928 
L 418.0525 83.383048 
L 418.0525 83.383048 
" style="fill:none;stroke:#1f77b4;stroke-linecap:square;stroke-width:1.5;"/>
   </g>
   <g id="line2d_42">
    <path clip-path="url(#pd5c0ba3c41)" d="M 99.559352 291.67632 
L 134.528517 289.74096 
L 137.493217 288.77328 
L 141.762878 287.8056 
L 142.288175 285.87024 
L 157.297133 283.93488 
L 157.709825 282.9672 
L 162.674418 281.99952 
L 171.308099 281.03184 
L 172.344674 280.06416 
L 184.451145 279.09648 
L 187.119164 278.1288 
L 193.963039 277.16112 
L 194.482708 276.19344 
L 195.362162 275.22576 
L 196.572545 274.25808 
L 199.705335 273.2904 
L 206.283728 272.32272 
L 208.785167 271.35504 
L 210.631676 270.38736 
L 211.758818 268.452 
L 216.328238 267.48432 
L 217.22873 266.51664 
L 217.298012 265.54896 
L 221.771349 264.58128 
L 222.989643 263.6136 
L 224.675708 262.64592 
L 230.687979 260.71056 
L 231.203153 259.74288 
L 231.991564 258.7752 
L 235.72339 256.83984 
L 237.258661 255.87216 
L 240.646876 254.90448 
L 241.527935 253.9368 
L 241.786718 252.96912 
L 247.475683 252.00144 
L 248.648423 251.03376 
L 249.378626 250.06608 
L 251.408724 249.0984 
L 251.695874 248.13072 
L 251.759154 247.16304 
L 254.109752 246.19536 
L 257.460544 245.22768 
L 260.361881 244.26 
L 261.940177 243.29232 
L 267.287938 242.32464 
L 267.484558 241.35696 
L 270.209316 240.38928 
L 273.6808 239.4216 
L 276.053621 238.45392 
L 276.343863 237.48624 
L 277.566297 236.51856 
L 281.351131 235.55088 
L 282.924269 234.5832 
L 290.994256 233.61552 
L 296.269556 231.68016 
L 296.633341 230.71248 
L 298.882684 229.7448 
L 306.677594 228.77712 
L 311.136125 226.84176 
L 312.46309 225.87408 
L 317.229321 224.9064 
L 319.400669 222.97104 
L 319.493709 222.00336 
L 322.608513 221.03568 
L 327.325606 220.068 
L 329.41899 219.10032 
L 330.728128 218.13264 
L 332.639822 217.16496 
L 339.224109 216.19728 
L 340.294332 215.2296 
L 343.47128 214.26192 
L 344.811503 212.32656 
L 348.517032 211.35888 
L 349.221502 210.3912 
L 350.287748 209.42352 
L 350.602796 208.45584 
L 353.599309 207.48816 
L 356.049705 206.52048 
L 358.96116 205.5528 
L 363.504119 204.58512 
L 364.461599 203.61744 
L 367.673937 202.64976 
L 368.254234 201.68208 
L 379.614949 200.7144 
L 388.545161 198.77904 
L 389.386696 197.81136 
L 396.169329 195.876 
L 398.374476 194.90832 
L 398.517165 193.94064 
L 401.331239 192.97296 
L 403.521303 192.00528 
L 404.305032 191.0376 
L 412.772137 190.06992 
L 414.641012 189.10224 
L 416.985892 188.13456 
L 418.0525 187.255074 
L 418.0525 187.255074 
" style="fill:none;stroke:#ff7f0e;stroke-linecap:square;stroke-width:1.5;"/>
   </g>
   <g id="line2d_43">
    <path clip-path="url(#pd5c0ba3c41)" d="M 66.755579 291.67632 
L 72.295046 290.70864 
L 74.225055 289.74096 
L 75.081768 288.77328 
L 75.491185 287.8056 
L 76.256883 286.83792 
L 77.355774 284.90256 
L 78.37364 283.93488 
L 83.509602 282.9672 
L 83.631005 281.99952 
L 84.018323 281.03184 
L 85.594119 280.06416 
L 86.211137 279.09648 
L 86.445158 278.1288 
L 86.463662 277.16112 
L 87.099576 276.19344 
L 87.202914 275.22576 
L 91.643476 274.25808 
L 95.252901 273.2904 
L 96.205023 272.32272 
L 99.022166 271.35504 
L 100.418103 270.38736 
L 100.964659 269.41968 
L 103.631574 268.452 
L 104.68863 267.48432 
L 104.776247 266.51664 
L 105.826992 265.54896 
L 106.093177 264.58128 
L 106.218186 263.6136 
L 106.92651 262.64592 
L 108.841417 261.67824 
L 109.434557 260.71056 
L 109.517059 259.74288 
L 109.867728 258.7752 
L 112.651378 256.83984 
L 113.069758 255.87216 
L 113.673005 254.90448 
L 115.321438 253.9368 
L 115.410141 252.96912 
L 116.081827 252.00144 
L 116.388541 251.03376 
L 118.480366 250.06608 
L 122.054277 248.13072 
L 124.430071 246.19536 
L 124.9014 245.22768 
L 126.894963 244.26 
L 127.917635 243.29232 
L 129.190865 242.32464 
L 129.820422 241.35696 
L 130.679172 240.38928 
L 131.296822 238.45392 
L 131.385007 237.48624 
L 131.637875 236.51856 
L 131.657663 235.55088 
L 132.736673 234.5832 
L 132.934697 233.61552 
L 134.032908 231.68016 
L 136.197291 230.71248 
L 136.703105 228.77712 
L 138.140485 227.80944 
L 138.318013 225.87408 
L 141.367619 223.93872 
L 141.929641 222.97104 
L 142.699474 222.00336 
L 142.962938 221.03568 
L 147.800949 220.068 
L 147.807519 219.10032 
L 148.393201 218.13264 
L 149.172471 217.16496 
L 149.626848 216.19728 
L 151.00539 215.2296 
L 151.509573 213.29424 
L 152.035745 212.32656 
L 153.439115 211.35888 
L 154.419702 210.3912 
L 154.537622 209.42352 
L 154.974955 208.45584 
L 155.094682 207.48816 
L 156.297633 206.52048 
L 156.591083 203.61744 
L 156.794268 202.64976 
L 159.467933 201.68208 
L 160.454169 200.7144 
L 161.133219 199.74672 
L 161.238105 198.77904 
L 162.051897 197.81136 
L 163.797364 196.84368 
L 164.801413 195.876 
L 165.188979 193.94064 
L 166.648739 192.97296 
L 166.713477 192.00528 
L 166.99615 191.0376 
L 167.483151 190.06992 
L 167.751981 189.10224 
L 169.801989 188.13456 
L 170.883315 187.16688 
L 171.089519 186.1992 
L 171.706544 185.23152 
L 173.129694 184.26384 
L 174.012523 183.29616 
L 174.096538 182.32848 
L 175.09667 181.3608 
L 175.60464 180.39312 
L 177.834623 179.42544 
L 178.207515 178.45776 
L 179.79557 177.49008 
L 180.14263 176.5224 
L 183.425095 175.55472 
L 186.135074 173.61936 
L 186.30568 172.65168 
L 187.853229 171.684 
L 188.814379 170.71632 
L 189.112007 168.78096 
L 189.89069 167.81328 
L 190.003793 166.8456 
L 190.563345 165.87792 
L 192.95263 164.91024 
L 194.84659 163.94256 
L 196.820968 162.0072 
L 201.23561 161.03952 
L 201.386886 160.07184 
L 202.284632 159.10416 
L 202.658851 158.13648 
L 203.177897 157.1688 
L 203.5412 156.20112 
L 204.185438 155.23344 
L 208.663758 154.26576 
L 211.102894 153.29808 
L 211.236135 152.3304 
L 212.694409 151.36272 
L 214.556309 150.39504 
L 215.568241 149.42736 
L 216.194962 148.45968 
L 217.191191 147.492 
L 217.389178 146.52432 
L 220.218311 145.55664 
L 223.518743 144.58896 
L 224.79519 143.62128 
L 231.781508 142.6536 
L 233.487437 141.68592 
L 233.786604 140.71824 
L 234.490496 139.75056 
L 237.585441 138.78288 
L 238.040275 137.8152 
L 238.207421 136.84752 
L 241.751559 135.87984 
L 243.660322 134.91216 
L 244.536512 132.9768 
L 246.492352 132.00912 
L 247.188499 131.04144 
L 249.071559 130.07376 
L 249.671708 129.10608 
L 251.502798 128.1384 
L 252.260352 127.17072 
L 256.101767 126.20304 
L 258.549578 125.23536 
L 259.13651 123.3 
L 263.811566 122.33232 
L 265.467644 121.36464 
L 266.020488 120.39696 
L 268.046028 119.42928 
L 270.551632 118.4616 
L 274.175227 117.49392 
L 275.519941 116.52624 
L 278.039434 115.55856 
L 278.054786 114.59088 
L 279.531369 113.6232 
L 283.712138 112.65552 
L 286.118238 111.68784 
L 286.352706 110.72016 
L 287.757409 109.75248 
L 288.867 108.7848 
L 296.475618 107.81712 
L 298.409398 106.84944 
L 302.04714 105.88176 
L 303.087763 104.91408 
L 306.902225 103.9464 
L 310.151007 102.97872 
L 310.499538 102.01104 
L 322.030629 101.04336 
L 324.840828 100.07568 
L 331.819036 98.14032 
L 338.852552 97.17264 
L 339.792131 96.20496 
L 345.178793 95.23728 
L 345.192849 94.2696 
L 346.447541 93.30192 
L 348.267792 92.33424 
L 353.556063 91.36656 
L 353.965452 90.39888 
L 355.963856 89.4312 
L 363.299863 88.46352 
L 366.696598 87.49584 
L 370.581964 86.52816 
L 376.540252 85.56048 
L 377.233655 84.5928 
L 378.881363 83.62512 
L 379.422773 82.65744 
L 387.912917 81.68976 
L 391.644066 80.72208 
L 403.422431 79.7544 
L 403.706262 78.78672 
L 410.052321 77.81904 
L 417.463882 76.85136 
L 418.0525 76.59028 
L 418.0525 76.59028 
" style="fill:none;stroke:#2ca02c;stroke-linecap:square;stroke-width:1.5;"/>
   </g>
   <g id="line2d_44">
    <path clip-path="url(#pd5c0ba3c41)" d="M 53.010902 291.67632 
L 53.448583 290.70864 
L 54.112921 289.74096 
L 54.942828 288.77328 
L 55.292488 287.8056 
L 55.521221 285.87024 
L 55.526649 284.90256 
L 55.787655 283.93488 
L 55.84474 282.9672 
L 56.043994 281.99952 
L 56.470879 281.03184 
L 56.50201 280.06416 
L 56.738626 279.09648 
L 56.801365 278.1288 
L 57.0922 277.16112 
L 57.272499 274.25808 
L 57.47197 272.32272 
L 57.981584 271.35504 
L 58.11827 270.38736 
L 58.183296 268.452 
L 58.598326 267.48432 
L 58.667758 266.51664 
L 58.955915 265.54896 
L 58.964552 264.58128 
L 59.15971 263.6136 
L 59.668836 257.80752 
L 59.875772 256.83984 
L 60.221619 252.00144 
L 60.229867 251.03376 
L 60.385923 250.06608 
L 60.507696 248.13072 
L 60.745727 244.26 
L 60.801236 242.32464 
L 60.978099 241.35696 
L 61.003717 240.38928 
L 61.276597 239.4216 
L 61.536975 235.55088 
L 62.119959 231.68016 
L 62.681861 229.7448 
L 62.692743 228.77712 
L 62.927031 227.80944 
L 63.130067 225.87408 
L 63.492605 223.93872 
L 63.73617 222.97104 
L 63.879081 221.03568 
L 64.282094 216.19728 
L 64.585814 215.2296 
L 65.01076 214.26192 
L 65.871727 208.45584 
L 66.131187 204.58512 
L 66.434068 203.61744 
L 66.497904 202.64976 
L 66.934187 199.74672 
L 67.026192 197.81136 
L 67.555019 196.84368 
L 67.872083 195.876 
L 67.954332 194.90832 
L 68.509088 192.97296 
L 69.128969 192.00528 
L 69.88823 191.0376 
L 70.062244 190.06992 
L 70.524632 189.10224 
L 70.619997 187.16688 
L 70.915858 186.1992 
L 71.162026 184.26384 
L 71.427154 182.32848 
L 71.722623 181.3608 
L 71.848162 180.39312 
L 72.305881 179.42544 
L 72.497708 177.49008 
L 72.590969 175.55472 
L 72.788763 174.58704 
L 72.794075 173.61936 
L 73.402595 171.684 
L 73.566323 169.74864 
L 74.159741 168.78096 
L 74.296413 166.8456 
L 74.884237 165.87792 
L 75.393151 162.97488 
L 76.204211 161.03952 
L 76.209174 160.07184 
L 76.43486 159.10416 
L 77.017639 158.13648 
L 77.273804 156.20112 
L 77.274081 155.23344 
L 77.60507 154.26576 
L 78.059947 152.3304 
L 78.402246 151.36272 
L 78.450545 150.39504 
L 78.946074 149.42736 
L 80.461543 148.45968 
L 82.604564 147.492 
L 82.746045 146.52432 
L 83.512982 145.55664 
L 84.098007 139.75056 
L 84.498292 138.78288 
L 85.153454 137.8152 
L 85.429738 136.84752 
L 85.97196 135.87984 
L 86.362381 134.91216 
L 86.561412 132.9768 
L 87.403718 131.04144 
L 89.116944 130.07376 
L 90.218328 129.10608 
L 90.486062 128.1384 
L 93.574648 127.17072 
L 94.846457 126.20304 
L 97.345426 125.23536 
L 97.527228 123.3 
L 100.599013 121.36464 
L 101.22717 119.42928 
L 102.167142 118.4616 
L 102.852688 117.49392 
L 102.963342 116.52624 
L 105.688638 115.55856 
L 107.172704 114.59088 
L 107.451222 113.6232 
L 109.180097 112.65552 
L 111.685971 111.68784 
L 113.056037 110.72016 
L 113.089958 109.75248 
L 114.381889 108.7848 
L 118.645421 107.81712 
L 119.054433 106.84944 
L 119.183572 105.88176 
L 119.519308 104.91408 
L 122.255236 103.9464 
L 124.565827 102.97872 
L 124.572602 102.01104 
L 126.080215 99.108 
L 132.935843 98.14032 
L 141.385534 97.17264 
L 142.972973 96.20496 
L 143.178064 95.23728 
L 145.077522 94.2696 
L 147.804845 93.30192 
L 149.944211 92.33424 
L 168.172252 90.39888 
L 184.03429 89.4312 
L 195.783007 88.46352 
L 204.314702 87.49584 
L 206.457475 86.52816 
L 214.926488 85.56048 
L 215.802822 84.5928 
L 221.514312 83.62512 
L 234.942775 82.65744 
L 262.582431 81.68976 
L 266.499166 80.72208 
L 290.366499 79.7544 
L 293.727396 78.78672 
L 296.278054 77.81904 
L 307.432387 76.85136 
L 314.035637 75.88368 
L 334.505671 74.916 
L 373.377844 73.94832 
L 382.835072 72.98064 
L 387.735924 72.01296 
L 389.915057 71.04528 
L 402.9093 70.0776 
L 418.0525 69.595573 
L 418.0525 69.595573 
" style="fill:none;stroke:#d62728;stroke-linecap:square;stroke-width:1.5;"/>
   </g>
   <g id="line2d_45">
    <path clip-path="url(#pd5c0ba3c41)" d="M 53.683687 291.67632 
L 54.17373 289.74096 
L 54.286245 288.77328 
L 54.512422 287.8056 
L 54.807158 284.90256 
L 55.042949 283.93488 
L 55.322905 280.06416 
L 55.587963 279.09648 
L 55.631579 278.1288 
L 55.863151 277.16112 
L 55.870475 276.19344 
L 56.292042 274.25808 
L 56.475639 272.32272 
L 56.645536 271.35504 
L 56.705202 269.41968 
L 56.901742 268.452 
L 56.916311 267.48432 
L 57.350375 266.51664 
L 57.539401 265.54896 
L 57.932174 260.71056 
L 58.529965 258.7752 
L 58.865327 254.90448 
L 59.084884 252.96912 
L 59.580345 248.13072 
L 59.852783 247.16304 
L 60.129119 243.29232 
L 60.196425 241.35696 
L 60.493209 239.4216 
L 60.854116 238.45392 
L 60.921263 236.51856 
L 61.362502 234.5832 
L 61.398093 233.61552 
L 61.70117 232.64784 
L 61.865014 230.71248 
L 62.062206 229.7448 
L 62.115096 227.80944 
L 62.266914 225.87408 
L 62.361387 222.97104 
L 62.478695 222.00336 
L 62.723955 221.03568 
L 63.243754 215.2296 
L 63.531273 213.29424 
L 63.955281 208.45584 
L 64.12126 206.52048 
L 64.237329 203.61744 
L 64.80001 196.84368 
L 65.179397 195.876 
L 66.088663 190.06992 
L 66.429126 189.10224 
L 66.514871 187.16688 
L 66.618611 184.26384 
L 66.64692 183.29616 
L 67.405933 181.3608 
L 67.639486 180.39312 
L 68.272277 179.42544 
L 68.435723 178.45776 
L 68.982786 176.5224 
L 69.308692 173.61936 
L 69.736216 171.684 
L 69.772097 170.71632 
L 69.937344 169.74864 
L 70.808983 167.81328 
L 70.895219 166.8456 
L 71.194626 165.87792 
L 71.502943 162.97488 
L 72.386807 161.03952 
L 72.480564 158.13648 
L 72.481063 157.1688 
L 72.654485 156.20112 
L 73.11274 155.23344 
L 73.438927 153.29808 
L 74.528909 152.3304 
L 74.803358 151.36272 
L 75.628243 150.39504 
L 75.837131 149.42736 
L 76.961492 147.492 
L 77.588334 145.55664 
L 78.084726 144.58896 
L 78.102631 143.62128 
L 78.549421 142.6536 
L 78.802453 141.68592 
L 78.938473 140.71824 
L 78.956812 139.75056 
L 79.107138 138.78288 
L 79.451917 137.8152 
L 80.280116 136.84752 
L 80.581252 135.87984 
L 81.051379 132.9768 
L 81.50518 132.00912 
L 81.521202 131.04144 
L 81.74603 129.10608 
L 82.293459 128.1384 
L 82.376475 127.17072 
L 82.779745 126.20304 
L 84.245911 125.23536 
L 85.103107 124.26768 
L 85.270623 123.3 
L 85.31898 122.33232 
L 86.506049 121.36464 
L 87.250535 118.4616 
L 87.950339 117.49392 
L 88.432424 116.52624 
L 88.723906 115.55856 
L 92.448351 113.6232 
L 93.453657 112.65552 
L 94.170492 111.68784 
L 99.131525 110.72016 
L 101.825713 109.75248 
L 103.992869 108.7848 
L 104.528289 107.81712 
L 106.402407 106.84944 
L 108.74935 105.88176 
L 109.846635 104.91408 
L 111.718196 103.9464 
L 112.255941 102.97872 
L 114.131777 102.01104 
L 117.002825 101.04336 
L 117.419646 100.07568 
L 118.193087 99.108 
L 119.051924 97.17264 
L 121.758395 96.20496 
L 123.959607 95.23728 
L 127.917822 94.2696 
L 129.279024 93.30192 
L 129.439337 92.33424 
L 132.948953 91.36656 
L 133.081615 90.39888 
L 133.365593 89.4312 
L 134.216512 88.46352 
L 140.607574 87.49584 
L 145.995156 86.52816 
L 160.790639 85.56048 
L 167.000957 84.5928 
L 167.943687 83.62512 
L 179.601145 82.65744 
L 183.250179 81.68976 
L 201.784993 80.72208 
L 204.518928 78.78672 
L 224.270617 75.88368 
L 225.152016 74.916 
L 232.697304 73.94832 
L 237.976414 72.98064 
L 244.389192 72.01296 
L 247.013225 71.04528 
L 272.34863 70.0776 
L 281.259843 69.10992 
L 281.362949 68.14224 
L 300.529885 67.17456 
L 316.305772 66.20688 
L 319.063224 65.2392 
L 329.150172 64.27152 
L 330.137788 63.30384 
L 335.005068 62.33616 
L 336.555107 61.36848 
L 380.436518 60.4008 
L 382.136894 59.43312 
L 403.776431 58.46544 
L 412.421828 57.49776 
L 418.0525 57.37888 
L 418.0525 57.37888 
" style="fill:none;stroke:#9467bd;stroke-linecap:square;stroke-width:1.5;"/>
   </g>
   <g id="patch_3">
    <path d="M 52.7325 292.644 
L 52.7325 26.532 
" style="fill:none;stroke:#000000;stroke-linecap:square;stroke-linejoin:miter;stroke-width:0.8;"/>
   </g>
   <g id="patch_4">
    <path d="M 409.8525 292.644 
L 409.8525 26.532 
" style="fill:none;stroke:#000000;stroke-linecap:square;stroke-linejoin:miter;stroke-width:0.8;"/>
   </g>
   <g id="patch_5">
    <path d="M 52.7325 292.644 
L 409.8525 292.644 
" style="fill:none;stroke:#000000;stroke-linecap:square;stroke-linejoin:miter;stroke-width:0.8;"/>
   </g>
   <g id="patch_6">
    <path d="M 52.7325 26.532 
L 409.8525 26.532 
" style="fill:none;stroke:#000000;stroke-linecap:square;stroke-linejoin:miter;stroke-width:0.8;"/>
   </g>
   <g id="text_23">
    <!-- AA Curve @ 20 for the Natural Scene Dataset -->
    <defs>
     <path d="M 60.203125 67.71875 
L 61.71875 45.21875 
L 60.203125 45.21875 
Q 57.171875 55.328125 51.5625 59.765625 
Q 45.953125 64.203125 38.09375 64.203125 
Q 31.5 64.203125 26.171875 60.859375 
Q 20.84375 57.515625 17.796875 50.1875 
Q 14.75 42.875 14.75 31.984375 
Q 14.75 23 17.625 16.40625 
Q 20.515625 9.8125 26.296875 6.296875 
Q 32.078125 2.78125 39.5 2.78125 
Q 45.953125 2.78125 50.875 5.53125 
Q 55.8125 8.296875 61.71875 16.5 
L 63.234375 15.53125 
Q 58.25 6.6875 51.609375 2.578125 
Q 44.96875 -1.515625 35.84375 -1.515625 
Q 19.390625 -1.515625 10.359375 10.6875 
Q 3.609375 19.78125 3.609375 32.078125 
Q 3.609375 42 8.046875 50.296875 
Q 12.5 58.59375 20.28125 63.15625 
Q 28.078125 67.71875 37.3125 67.71875 
Q 44.484375 67.71875 51.46875 64.203125 
Q 53.515625 63.140625 54.390625 63.140625 
Q 55.71875 63.140625 56.6875 64.0625 
Q 57.953125 65.375 58.5 67.71875 
z
" id="TimesNewRomanPSMT-67"/>
     <path d="M 42.328125 44.734375 
L 42.328125 17.625 
Q 42.328125 9.859375 42.6875 8.125 
Q 43.0625 6.390625 43.859375 5.703125 
Q 44.671875 5.03125 45.75 5.03125 
Q 47.265625 5.03125 49.171875 5.859375 
L 49.859375 4.15625 
L 36.46875 -1.375 
L 34.28125 -1.375 
L 34.28125 8.109375 
Q 28.515625 1.859375 25.484375 0.234375 
Q 22.46875 -1.375 19.09375 -1.375 
Q 15.328125 -1.375 12.5625 0.796875 
Q 9.8125 2.984375 8.734375 6.390625 
Q 7.671875 9.8125 7.671875 16.0625 
L 7.671875 36.03125 
Q 7.671875 39.203125 6.984375 40.421875 
Q 6.296875 41.65625 4.953125 42.3125 
Q 3.609375 42.96875 0.09375 42.921875 
L 0.09375 44.734375 
L 15.765625 44.734375 
L 15.765625 14.796875 
Q 15.765625 8.546875 17.9375 6.59375 
Q 20.125 4.640625 23.1875 4.640625 
Q 25.296875 4.640625 27.953125 5.953125 
Q 30.609375 7.28125 34.28125 10.984375 
L 34.28125 36.328125 
Q 34.28125 40.140625 32.890625 41.484375 
Q 31.5 42.828125 27.09375 42.921875 
L 27.09375 44.734375 
z
" id="TimesNewRomanPSMT-117"/>
     <path d="M 0.828125 44.734375 
L 21.875 44.734375 
L 21.875 42.921875 
L 20.515625 42.921875 
Q 18.609375 42.921875 17.609375 41.984375 
Q 16.609375 41.0625 16.609375 39.5 
Q 16.609375 37.796875 17.625 35.453125 
L 28.03125 10.75 
L 38.484375 36.375 
Q 39.59375 39.109375 39.59375 40.53125 
Q 39.59375 41.21875 39.203125 41.65625 
Q 38.671875 42.390625 37.84375 42.65625 
Q 37.015625 42.921875 34.46875 42.921875 
L 34.46875 44.734375 
L 49.078125 44.734375 
L 49.078125 42.921875 
Q 46.53125 42.71875 45.5625 41.890625 
Q 43.84375 40.4375 42.484375 37.015625 
L 26.609375 -1.375 
L 24.609375 -1.375 
L 8.640625 36.375 
Q 7.5625 39.015625 6.578125 40.15625 
Q 5.609375 41.3125 4.109375 42.09375 
Q 3.265625 42.53125 0.828125 42.921875 
z
" id="TimesNewRomanPSMT-118"/>
     <path d="M 68.75 46.78125 
L 63.03125 27.296875 
Q 59.859375 16.359375 59.171875 13.421875 
Q 58.5 10.5 58.5 8.734375 
Q 58.5 7.171875 59.546875 6.09375 
Q 60.59375 5.03125 62.15625 5.03125 
Q 65.71875 5.03125 70.71875 8.59375 
Q 75.734375 12.15625 79.296875 20.15625 
Q 82.859375 28.171875 82.859375 36.859375 
Q 82.859375 45.21875 78.828125 52.296875 
Q 74.8125 59.375 67.453125 63.15625 
Q 60.109375 66.9375 51.21875 66.9375 
Q 39.9375 66.9375 30.265625 60.953125 
Q 20.609375 54.984375 14.96875 43.75 
Q 9.328125 32.515625 9.328125 20.40625 
Q 9.328125 9.1875 14.28125 0 
Q 19.234375 -9.1875 28.21875 -13.890625 
Q 37.203125 -18.609375 47.5625 -18.609375 
Q 60.40625 -18.609375 70.78125 -11.71875 
Q 81.15625 -4.828125 86.8125 8.40625 
L 89.65625 8.40625 
Q 85.25 -4.984375 73.671875 -13.28125 
Q 62.109375 -21.578125 47.3125 -21.578125 
Q 35.6875 -21.578125 25.71875 -16.078125 
Q 15.765625 -10.59375 10.25 -0.5 
Q 4.734375 9.578125 4.734375 21.6875 
Q 4.734375 34.578125 10.78125 45.734375 
Q 16.84375 56.890625 27.75 63.15625 
Q 38.671875 69.4375 50.921875 69.4375 
Q 61.03125 69.4375 69.15625 65.25 
Q 77.296875 61.078125 81.546875 53.046875 
Q 85.796875 45.015625 85.796875 35.984375 
Q 85.796875 27.046875 81.8125 18.28125 
Q 77.828125 9.515625 71.671875 5.515625 
Q 65.53125 1.515625 58.84375 1.515625 
Q 55.125 1.515625 53.25 3.265625 
Q 51.375 5.03125 51.375 8.203125 
Q 51.375 10.9375 52.25 15.375 
Q 45.015625 6.640625 40.671875 4.046875 
Q 36.328125 1.46875 33.015625 1.46875 
Q 29.546875 1.46875 26.859375 4.5625 
Q 24.171875 7.671875 24.171875 12.84375 
Q 24.171875 19.921875 28.78125 28.703125 
Q 33.40625 37.5 41.015625 43.015625 
Q 46.625 47.078125 51.078125 47.078125 
Q 54.34375 47.078125 56.515625 45.390625 
Q 58.6875 43.703125 59.46875 40.328125 
L 61.078125 45.703125 
z
M 51.609375 44.78125 
Q 47.953125 44.78125 44.1875 40.921875 
Q 38.671875 35.25 34.765625 25.640625 
Q 31.890625 18.609375 31.890625 14.3125 
Q 31.890625 11.234375 33.625 9.296875 
Q 35.359375 7.375 37.5 7.375 
Q 40.328125 7.375 43.453125 9.515625 
Q 46.578125 11.671875 50 16.140625 
Q 53.421875 20.609375 54.984375 25.09375 
Q 57.71875 32.859375 57.71875 37.75 
Q 57.71875 40.96875 55.9375 42.875 
Q 54.15625 44.78125 51.609375 44.78125 
z
" id="TimesNewRomanPSMT-64"/>
     <path d="M 25 46.046875 
Q 35.15625 46.046875 41.3125 38.328125 
Q 46.53125 31.734375 46.53125 23.1875 
Q 46.53125 17.1875 43.640625 11.03125 
Q 40.765625 4.890625 35.71875 1.75 
Q 30.671875 -1.375 24.46875 -1.375 
Q 14.359375 -1.375 8.40625 6.6875 
Q 3.375 13.484375 3.375 21.921875 
Q 3.375 28.078125 6.421875 34.15625 
Q 9.46875 40.234375 14.453125 43.140625 
Q 19.4375 46.046875 25 46.046875 
z
M 23.484375 42.875 
Q 20.90625 42.875 18.28125 41.328125 
Q 15.671875 39.796875 14.0625 35.9375 
Q 12.453125 32.078125 12.453125 26.03125 
Q 12.453125 16.265625 16.328125 9.171875 
Q 20.21875 2.09375 26.5625 2.09375 
Q 31.296875 2.09375 34.375 6 
Q 37.453125 9.90625 37.453125 19.4375 
Q 37.453125 31.34375 32.328125 38.1875 
Q 28.859375 42.875 23.484375 42.875 
z
" id="TimesNewRomanPSMT-111"/>
     <path d="M 16.265625 69.4375 
L 16.265625 36.71875 
Q 21.6875 42.671875 24.859375 44.359375 
Q 28.03125 46.046875 31.203125 46.046875 
Q 35.015625 46.046875 37.75 43.9375 
Q 40.484375 41.84375 41.796875 37.359375 
Q 42.71875 34.234375 42.71875 25.921875 
L 42.71875 10.109375 
Q 42.71875 5.859375 43.40625 4.296875 
Q 43.890625 3.125 45.0625 2.4375 
Q 46.234375 1.765625 49.359375 1.765625 
L 49.359375 0 
L 27.390625 0 
L 27.390625 1.765625 
L 28.421875 1.765625 
Q 31.546875 1.765625 32.765625 2.703125 
Q 33.984375 3.65625 34.46875 5.515625 
Q 34.625 6.296875 34.625 10.109375 
L 34.625 25.921875 
Q 34.625 33.25 33.859375 35.546875 
Q 33.109375 37.84375 31.4375 38.984375 
Q 29.78125 40.140625 27.4375 40.140625 
Q 25.046875 40.140625 22.453125 38.859375 
Q 19.875 37.59375 16.265625 33.734375 
L 16.265625 10.109375 
Q 16.265625 5.515625 16.765625 4.390625 
Q 17.28125 3.265625 18.671875 2.515625 
Q 20.0625 1.765625 23.484375 1.765625 
L 23.484375 0 
L 1.3125 0 
L 1.3125 1.765625 
Q 4.296875 1.765625 6 2.6875 
Q 6.984375 3.171875 7.5625 4.53125 
Q 8.15625 5.90625 8.15625 10.109375 
L 8.15625 50.59375 
Q 8.15625 58.25 7.78125 60 
Q 7.421875 61.765625 6.65625 62.390625 
Q 5.90625 63.03125 4.640625 63.03125 
Q 3.609375 63.03125 1.3125 62.25 
L 0.640625 63.96875 
L 14.015625 69.4375 
z
" id="TimesNewRomanPSMT-104"/>
     <path d="M -1.3125 66.21875 
L 16.65625 66.21875 
L 57.125 16.546875 
L 57.125 54.734375 
Q 57.125 60.84375 55.765625 62.359375 
Q 53.953125 64.40625 50.046875 64.40625 
L 47.75 64.40625 
L 47.75 66.21875 
L 70.796875 66.21875 
L 70.796875 64.40625 
L 68.453125 64.40625 
Q 64.265625 64.40625 62.5 61.859375 
Q 61.421875 60.296875 61.421875 54.734375 
L 61.421875 -1.078125 
L 59.671875 -1.078125 
L 16.015625 52.25 
L 16.015625 11.46875 
Q 16.015625 5.375 17.328125 3.859375 
Q 19.1875 1.8125 23.046875 1.8125 
L 25.390625 1.8125 
L 25.390625 0 
L 2.34375 0 
L 2.34375 1.8125 
L 4.640625 1.8125 
Q 8.890625 1.8125 10.640625 4.34375 
Q 11.71875 5.90625 11.71875 11.46875 
L 11.71875 57.515625 
Q 8.84375 60.890625 7.34375 61.953125 
Q 5.859375 63.03125 2.984375 63.96875 
Q 1.5625 64.40625 -1.3125 64.40625 
z
" id="TimesNewRomanPSMT-78"/>
     <path d="M 45.84375 67.71875 
L 45.84375 44.828125 
L 44.046875 44.828125 
Q 43.171875 51.421875 40.890625 55.328125 
Q 38.625 59.234375 34.421875 61.515625 
Q 30.21875 63.8125 25.734375 63.8125 
Q 20.65625 63.8125 17.328125 60.71875 
Q 14.015625 57.625 14.015625 53.65625 
Q 14.015625 50.640625 16.109375 48.140625 
Q 19.140625 44.484375 30.515625 38.375 
Q 39.796875 33.40625 43.1875 30.734375 
Q 46.578125 28.078125 48.40625 24.453125 
Q 50.25 20.84375 50.25 16.890625 
Q 50.25 9.375 44.40625 3.921875 
Q 38.578125 -1.515625 29.390625 -1.515625 
Q 26.515625 -1.515625 23.96875 -1.078125 
Q 22.46875 -0.828125 17.703125 0.703125 
Q 12.9375 2.25 11.671875 2.25 
Q 10.453125 2.25 9.734375 1.515625 
Q 9.03125 0.78125 8.6875 -1.515625 
L 6.890625 -1.515625 
L 6.890625 21.1875 
L 8.6875 21.1875 
Q 9.96875 14.0625 12.109375 10.515625 
Q 14.265625 6.984375 18.671875 4.640625 
Q 23.09375 2.296875 28.375 2.296875 
Q 34.46875 2.296875 38 5.515625 
Q 41.546875 8.734375 41.546875 13.140625 
Q 41.546875 15.578125 40.203125 18.0625 
Q 38.875 20.5625 36.03125 22.703125 
Q 34.125 24.171875 25.625 28.921875 
Q 17.140625 33.6875 13.546875 36.515625 
Q 9.96875 39.359375 8.109375 42.765625 
Q 6.25 46.1875 6.25 50.296875 
Q 6.25 57.421875 11.71875 62.5625 
Q 17.1875 67.71875 25.640625 67.71875 
Q 30.90625 67.71875 36.8125 65.140625 
Q 39.546875 63.921875 40.671875 63.921875 
Q 41.9375 63.921875 42.75 64.671875 
Q 43.5625 65.4375 44.046875 67.71875 
z
" id="TimesNewRomanPSMT-83"/>
     <path d="M 32.03125 46.046875 
L 32.03125 30.8125 
L 30.421875 30.8125 
Q 28.5625 37.984375 25.65625 40.578125 
Q 22.75 43.171875 18.265625 43.171875 
Q 14.84375 43.171875 12.734375 41.359375 
Q 10.640625 39.546875 10.640625 37.359375 
Q 10.640625 34.625 12.203125 32.671875 
Q 13.71875 30.671875 18.359375 28.421875 
L 25.484375 24.953125 
Q 35.40625 20.125 35.40625 12.203125 
Q 35.40625 6.109375 30.78125 2.359375 
Q 26.171875 -1.375 20.453125 -1.375 
Q 16.359375 -1.375 11.078125 0.09375 
Q 9.46875 0.59375 8.453125 0.59375 
Q 7.328125 0.59375 6.6875 -0.6875 
L 5.078125 -0.6875 
L 5.078125 15.28125 
L 6.6875 15.28125 
Q 8.0625 8.453125 11.90625 4.984375 
Q 15.765625 1.515625 20.5625 1.515625 
Q 23.921875 1.515625 26.046875 3.484375 
Q 28.171875 5.46875 28.171875 8.25 
Q 28.171875 11.625 25.796875 13.921875 
Q 23.4375 16.21875 16.359375 19.734375 
Q 9.28125 23.25 7.078125 26.078125 
Q 4.890625 28.859375 4.890625 33.109375 
Q 4.890625 38.625 8.671875 42.328125 
Q 12.453125 46.046875 18.453125 46.046875 
Q 21.09375 46.046875 24.859375 44.921875 
Q 27.34375 44.1875 28.171875 44.1875 
Q 28.953125 44.1875 29.390625 44.53125 
Q 29.828125 44.875 30.421875 46.046875 
z
" id="TimesNewRomanPSMT-115"/>
    </defs>
    <g transform="translate(52.9125 20.532)scale(0.192 -0.192)">
     <use xlink:href="#TimesNewRomanPSMT-65"/>
     <use x="72.216797" xlink:href="#TimesNewRomanPSMT-65"/>
     <use x="144.355469" xlink:href="#TimesNewRomanPSMT-32"/>
     <use x="169.355469" xlink:href="#TimesNewRomanPSMT-67"/>
     <use x="236.054688" xlink:href="#TimesNewRomanPSMT-117"/>
     <use x="286.054688" xlink:href="#TimesNewRomanPSMT-114"/>
     <use x="319.355469" xlink:href="#TimesNewRomanPSMT-118"/>
     <use x="369.355469" xlink:href="#TimesNewRomanPSMT-101"/>
     <use x="413.740234" xlink:href="#TimesNewRomanPSMT-32"/>
     <use x="438.740234" xlink:href="#TimesNewRomanPSMT-64"/>
     <use x="530.830078" xlink:href="#TimesNewRomanPSMT-32"/>
     <use x="555.830078" xlink:href="#TimesNewRomanPSMT-50"/>
     <use x="605.830078" xlink:href="#TimesNewRomanPSMT-48"/>
     <use x="655.830078" xlink:href="#TimesNewRomanPSMT-32"/>
     <use x="680.830078" xlink:href="#TimesNewRomanPSMT-102"/>
     <use x="714.130859" xlink:href="#TimesNewRomanPSMT-111"/>
     <use x="764.130859" xlink:href="#TimesNewRomanPSMT-114"/>
     <use x="797.431641" xlink:href="#TimesNewRomanPSMT-32"/>
     <use x="822.431641" xlink:href="#TimesNewRomanPSMT-116"/>
     <use x="850.214844" xlink:href="#TimesNewRomanPSMT-104"/>
     <use x="900.214844" xlink:href="#TimesNewRomanPSMT-101"/>
     <use x="944.599609" xlink:href="#TimesNewRomanPSMT-32"/>
     <use x="969.599609" xlink:href="#TimesNewRomanPSMT-78"/>
     <use x="1041.816406" xlink:href="#TimesNewRomanPSMT-97"/>
     <use x="1086.201172" xlink:href="#TimesNewRomanPSMT-116"/>
     <use x="1113.984375" xlink:href="#TimesNewRomanPSMT-117"/>
     <use x="1163.984375" xlink:href="#TimesNewRomanPSMT-114"/>
     <use x="1197.285156" xlink:href="#TimesNewRomanPSMT-97"/>
     <use x="1241.669922" xlink:href="#TimesNewRomanPSMT-108"/>
     <use x="1269.453125" xlink:href="#TimesNewRomanPSMT-32"/>
     <use x="1294.453125" xlink:href="#TimesNewRomanPSMT-83"/>
     <use x="1350.068359" xlink:href="#TimesNewRomanPSMT-99"/>
     <use x="1394.453125" xlink:href="#TimesNewRomanPSMT-101"/>
     <use x="1438.837891" xlink:href="#TimesNewRomanPSMT-110"/>
     <use x="1488.837891" xlink:href="#TimesNewRomanPSMT-101"/>
     <use x="1533.222656" xlink:href="#TimesNewRomanPSMT-32"/>
     <use x="1558.222656" xlink:href="#TimesNewRomanPSMT-68"/>
     <use x="1630.439453" xlink:href="#TimesNewRomanPSMT-97"/>
     <use x="1674.824219" xlink:href="#TimesNewRomanPSMT-116"/>
     <use x="1702.607422" xlink:href="#TimesNewRomanPSMT-97"/>
     <use x="1746.992188" xlink:href="#TimesNewRomanPSMT-115"/>
     <use x="1785.908203" xlink:href="#TimesNewRomanPSMT-101"/>
     <use x="1830.292969" xlink:href="#TimesNewRomanPSMT-116"/>
    </g>
   </g>
   <g id="legend_1">
    <g id="patch_7">
     <path d="M 63.9325 284.644 
L 279.2325 284.644 
Q 282.4325 284.644 282.4325 281.444 
L 282.4325 169.8715 
Q 282.4325 166.6715 279.2325 166.6715 
L 63.9325 166.6715 
Q 60.7325 166.6715 60.7325 169.8715 
L 60.7325 281.444 
Q 60.7325 284.644 63.9325 284.644 
z
" style="fill:#ffffff;opacity:0.8;stroke:#cccccc;stroke-linejoin:miter;"/>
    </g>
    <g id="line2d_46">
     <path d="M 67.1325 178.6715 
L 99.1325 178.6715 
" style="fill:none;stroke:#1f77b4;stroke-linecap:square;stroke-width:1.5;"/>
    </g>
    <g id="line2d_47"/>
    <g id="text_24">
     <!-- Contour + J-Linkage [49] -->
     <defs>
      <path d="M 26.125 6.890625 
L 26.125 31.25 
L 1.8125 31.25 
L 1.8125 35.25 
L 26.125 35.25 
L 26.125 59.515625 
L 30.03125 59.515625 
L 30.03125 35.25 
L 54.4375 35.25 
L 54.4375 31.25 
L 30.03125 31.25 
L 30.03125 6.890625 
z
" id="TimesNewRomanPSMT-43"/>
      <path d="M 9.96875 64.40625 
L 9.96875 66.21875 
L 38.328125 66.21875 
L 38.328125 64.40625 
L 35.9375 64.40625 
Q 31.890625 64.40625 30.03125 62.015625 
Q 28.859375 60.453125 28.859375 54.5 
L 28.859375 22.125 
Q 28.859375 14.65625 27.21875 10.015625 
Q 25.59375 5.375 21.578125 1.921875 
Q 17.578125 -1.515625 11.921875 -1.515625 
Q 7.328125 -1.515625 4.6875 0.75 
Q 2.046875 3.03125 2.046875 5.953125 
Q 2.046875 8.34375 3.265625 9.578125 
Q 4.890625 11.078125 7.03125 11.078125 
Q 8.59375 11.078125 9.828125 10.046875 
Q 11.078125 9.03125 12.984375 4.59375 
Q 14.109375 1.953125 15.875 1.953125 
Q 17.1875 1.953125 18.328125 3.5625 
Q 19.484375 5.171875 19.484375 9.28125 
L 19.484375 54.5 
Q 19.484375 59.515625 18.84375 61.140625 
Q 18.359375 62.359375 16.796875 63.234375 
Q 14.703125 64.40625 12.359375 64.40625 
z
" id="TimesNewRomanPSMT-74"/>
      <path d="M 4.046875 26.125 
L 29.296875 26.125 
L 29.296875 18.75 
L 4.046875 18.75 
z
" id="TimesNewRomanPSMT-45"/>
      <path d="M 57.328125 18.3125 
L 58.9375 17.96875 
L 53.265625 0 
L 2 0 
L 2 1.8125 
L 4.5 1.8125 
Q 8.6875 1.8125 10.5 4.546875 
Q 11.53125 6.109375 11.53125 11.765625 
L 11.53125 54.5 
Q 11.53125 60.6875 10.15625 62.25 
Q 8.25 64.40625 4.5 64.40625 
L 2 64.40625 
L 2 66.21875 
L 31.984375 66.21875 
L 31.984375 64.40625 
Q 26.703125 64.453125 24.578125 63.421875 
Q 22.46875 62.40625 21.6875 60.84375 
Q 20.90625 59.28125 20.90625 53.375 
L 20.90625 11.765625 
Q 20.90625 7.71875 21.6875 6.203125 
Q 22.265625 5.171875 23.484375 4.6875 
Q 24.703125 4.203125 31.109375 4.203125 
L 35.9375 4.203125 
Q 43.5625 4.203125 46.625 5.328125 
Q 49.703125 6.453125 52.234375 9.296875 
Q 54.78125 12.15625 57.328125 18.3125 
z
" id="TimesNewRomanPSMT-76"/>
      <path d="M 16.359375 69.4375 
L 16.359375 24.90625 
L 27.734375 35.296875 
Q 31.34375 38.625 31.9375 39.5 
Q 32.328125 40.09375 32.328125 40.671875 
Q 32.328125 41.65625 31.515625 42.359375 
Q 30.71875 43.0625 28.859375 43.171875 
L 28.859375 44.734375 
L 48.296875 44.734375 
L 48.296875 43.171875 
Q 44.28125 43.0625 41.625 41.9375 
Q 38.96875 40.828125 35.796875 37.9375 
L 24.3125 27.34375 
L 35.796875 12.84375 
Q 40.578125 6.84375 42.234375 5.21875 
Q 44.578125 2.9375 46.34375 2.25 
Q 47.5625 1.765625 50.59375 1.765625 
L 50.59375 0 
L 28.859375 0 
L 28.859375 1.765625 
Q 30.71875 1.8125 31.375 2.3125 
Q 32.03125 2.828125 32.03125 3.765625 
Q 32.03125 4.890625 30.078125 7.375 
L 16.359375 24.90625 
L 16.359375 10.0625 
Q 16.359375 5.71875 16.96875 4.34375 
Q 17.578125 2.984375 18.703125 2.390625 
Q 19.828125 1.8125 23.578125 1.765625 
L 23.578125 0 
L 0.828125 0 
L 0.828125 1.765625 
Q 4.25 1.765625 5.953125 2.59375 
Q 6.984375 3.125 7.515625 4.25 
Q 8.25 5.859375 8.25 9.8125 
L 8.25 50.53125 
Q 8.25 58.296875 7.90625 60.03125 
Q 7.5625 61.765625 6.78125 62.421875 
Q 6 63.09375 4.734375 63.09375 
Q 3.71875 63.09375 1.65625 62.25 
L 0.828125 63.96875 
L 14.109375 69.4375 
z
" id="TimesNewRomanPSMT-107"/>
      <path d="M 29.6875 -19.828125 
L 8.203125 -19.828125 
L 8.203125 67.71875 
L 29.6875 67.71875 
L 29.6875 63.875 
L 15.53125 63.875 
L 15.53125 -16.015625 
L 29.6875 -16.015625 
z
" id="TimesNewRomanPSMT-91"/>
      <path d="M 3.65625 67.71875 
L 25.140625 67.71875 
L 25.140625 -19.875 
L 3.65625 -19.875 
L 3.65625 -16.015625 
L 17.828125 -16.015625 
L 17.828125 63.875 
L 3.65625 63.875 
z
" id="TimesNewRomanPSMT-93"/>
     </defs>
     <g transform="translate(111.9325 184.2715)scale(0.16 -0.16)">
      <use xlink:href="#TimesNewRomanPSMT-67"/>
      <use x="66.699219" xlink:href="#TimesNewRomanPSMT-111"/>
      <use x="116.699219" xlink:href="#TimesNewRomanPSMT-110"/>
      <use x="166.699219" xlink:href="#TimesNewRomanPSMT-116"/>
      <use x="194.482422" xlink:href="#TimesNewRomanPSMT-111"/>
      <use x="244.482422" xlink:href="#TimesNewRomanPSMT-117"/>
      <use x="294.482422" xlink:href="#TimesNewRomanPSMT-114"/>
      <use x="327.783203" xlink:href="#TimesNewRomanPSMT-32"/>
      <use x="352.783203" xlink:href="#TimesNewRomanPSMT-43"/>
      <use x="409.179688" xlink:href="#TimesNewRomanPSMT-32"/>
      <use x="434.179688" xlink:href="#TimesNewRomanPSMT-74"/>
      <use x="473.095703" xlink:href="#TimesNewRomanPSMT-45"/>
      <use x="506.396484" xlink:href="#TimesNewRomanPSMT-76"/>
      <use x="567.480469" xlink:href="#TimesNewRomanPSMT-105"/>
      <use x="595.263672" xlink:href="#TimesNewRomanPSMT-110"/>
      <use x="645.263672" xlink:href="#TimesNewRomanPSMT-107"/>
      <use x="695.263672" xlink:href="#TimesNewRomanPSMT-97"/>
      <use x="739.648438" xlink:href="#TimesNewRomanPSMT-103"/>
      <use x="789.648438" xlink:href="#TimesNewRomanPSMT-101"/>
      <use x="834.033203" xlink:href="#TimesNewRomanPSMT-32"/>
      <use x="859.033203" xlink:href="#TimesNewRomanPSMT-91"/>
      <use x="892.333984" xlink:href="#TimesNewRomanPSMT-52"/>
      <use x="942.333984" xlink:href="#TimesNewRomanPSMT-57"/>
      <use x="992.333984" xlink:href="#TimesNewRomanPSMT-93"/>
     </g>
    </g>
    <g id="line2d_48">
     <path d="M 67.1325 201.324 
L 99.1325 201.324 
" style="fill:none;stroke:#ff7f0e;stroke-linecap:square;stroke-width:1.5;"/>
    </g>
    <g id="line2d_49"/>
    <g id="text_25">
     <!-- CNN Classification -->
     <g transform="translate(111.9325 206.924)scale(0.16 -0.16)">
      <use xlink:href="#TimesNewRomanPSMT-67"/>
      <use x="66.699219" xlink:href="#TimesNewRomanPSMT-78"/>
      <use x="138.916016" xlink:href="#TimesNewRomanPSMT-78"/>
      <use x="211.132812" xlink:href="#TimesNewRomanPSMT-32"/>
      <use x="236.132812" xlink:href="#TimesNewRomanPSMT-67"/>
      <use x="302.832031" xlink:href="#TimesNewRomanPSMT-108"/>
      <use x="330.615234" xlink:href="#TimesNewRomanPSMT-97"/>
      <use x="375" xlink:href="#TimesNewRomanPSMT-115"/>
      <use x="413.916016" xlink:href="#TimesNewRomanPSMT-115"/>
      <use x="452.832031" xlink:href="#TimesNewRomanPSMT-105"/>
      <use x="480.615234" xlink:href="#TimesNewRomanPSMT-102"/>
      <use x="513.916016" xlink:href="#TimesNewRomanPSMT-105"/>
      <use x="541.699219" xlink:href="#TimesNewRomanPSMT-99"/>
      <use x="586.083984" xlink:href="#TimesNewRomanPSMT-97"/>
      <use x="630.46875" xlink:href="#TimesNewRomanPSMT-116"/>
      <use x="658.251953" xlink:href="#TimesNewRomanPSMT-105"/>
      <use x="686.035156" xlink:href="#TimesNewRomanPSMT-111"/>
      <use x="736.035156" xlink:href="#TimesNewRomanPSMT-110"/>
     </g>
    </g>
    <g id="line2d_50">
     <path d="M 67.1325 223.9465 
L 99.1325 223.9465 
" style="fill:none;stroke:#2ca02c;stroke-linecap:square;stroke-width:1.5;"/>
    </g>
    <g id="line2d_51"/>
    <g id="text_26">
     <!-- CNN Regression -->
     <defs>
      <path d="M 67.578125 0 
L 49.90625 0 
L 27.484375 30.953125 
Q 25 30.859375 23.4375 30.859375 
Q 22.796875 30.859375 22.0625 30.875 
Q 21.34375 30.90625 20.5625 30.953125 
L 20.5625 11.71875 
Q 20.5625 5.46875 21.921875 3.953125 
Q 23.78125 1.8125 27.484375 1.8125 
L 30.078125 1.8125 
L 30.078125 0 
L 1.703125 0 
L 1.703125 1.8125 
L 4.203125 1.8125 
Q 8.40625 1.8125 10.203125 4.546875 
Q 11.234375 6.0625 11.234375 11.71875 
L 11.234375 54.5 
Q 11.234375 60.75 9.859375 62.25 
Q 7.953125 64.40625 4.203125 64.40625 
L 1.703125 64.40625 
L 1.703125 66.21875 
L 25.828125 66.21875 
Q 36.375 66.21875 41.375 64.671875 
Q 46.390625 63.140625 49.875 59.015625 
Q 53.375 54.890625 53.375 49.171875 
Q 53.375 43.0625 49.390625 38.5625 
Q 45.40625 34.078125 37.0625 32.234375 
L 50.734375 13.234375 
Q 55.421875 6.6875 58.78125 4.53125 
Q 62.15625 2.390625 67.578125 1.8125 
z
M 20.5625 34.03125 
Q 21.484375 34.03125 22.171875 34 
Q 22.859375 33.984375 23.296875 33.984375 
Q 32.765625 33.984375 37.578125 38.078125 
Q 42.390625 42.1875 42.390625 48.53125 
Q 42.390625 54.734375 38.5 58.609375 
Q 34.625 62.5 28.21875 62.5 
Q 25.390625 62.5 20.5625 61.578125 
z
" id="TimesNewRomanPSMT-82"/>
     </defs>
     <g transform="translate(111.9325 229.5465)scale(0.16 -0.16)">
      <use xlink:href="#TimesNewRomanPSMT-67"/>
      <use x="66.699219" xlink:href="#TimesNewRomanPSMT-78"/>
      <use x="138.916016" xlink:href="#TimesNewRomanPSMT-78"/>
      <use x="211.132812" xlink:href="#TimesNewRomanPSMT-32"/>
      <use x="236.132812" xlink:href="#TimesNewRomanPSMT-82"/>
      <use x="302.832031" xlink:href="#TimesNewRomanPSMT-101"/>
      <use x="347.216797" xlink:href="#TimesNewRomanPSMT-103"/>
      <use x="397.216797" xlink:href="#TimesNewRomanPSMT-114"/>
      <use x="430.517578" xlink:href="#TimesNewRomanPSMT-101"/>
      <use x="474.902344" xlink:href="#TimesNewRomanPSMT-115"/>
      <use x="513.818359" xlink:href="#TimesNewRomanPSMT-115"/>
      <use x="552.734375" xlink:href="#TimesNewRomanPSMT-105"/>
      <use x="580.517578" xlink:href="#TimesNewRomanPSMT-111"/>
      <use x="630.517578" xlink:href="#TimesNewRomanPSMT-110"/>
     </g>
    </g>
    <g id="line2d_52">
     <path d="M 67.1325 246.599 
L 99.1325 246.599 
" style="fill:none;stroke:#d62728;stroke-linecap:square;stroke-width:1.5;"/>
    </g>
    <g id="line2d_53"/>
    <g id="text_27">
     <!-- Conic x 4 (From Scratch) -->
     <defs>
      <path d="M 1.3125 44.734375 
L 22.359375 44.734375 
L 22.359375 42.921875 
Q 20.359375 42.921875 19.546875 42.234375 
Q 18.75 41.546875 18.75 40.4375 
Q 18.75 39.265625 20.453125 36.8125 
Q 21 36.03125 22.078125 34.375 
L 25.25 29.296875 
L 28.90625 34.375 
Q 32.421875 39.203125 32.421875 40.484375 
Q 32.421875 41.5 31.59375 42.203125 
Q 30.765625 42.921875 28.90625 42.921875 
L 28.90625 44.734375 
L 44.046875 44.734375 
L 44.046875 42.921875 
Q 41.65625 42.78125 39.890625 41.609375 
Q 37.5 39.9375 33.34375 34.375 
L 27.25 26.21875 
L 38.375 10.203125 
Q 42.484375 4.296875 44.234375 3.09375 
Q 46 1.90625 48.78125 1.765625 
L 48.78125 0 
L 27.6875 0 
L 27.6875 1.765625 
Q 29.890625 1.765625 31.109375 2.734375 
Q 32.03125 3.421875 32.03125 4.546875 
Q 32.03125 5.671875 28.90625 10.203125 
L 22.359375 19.78125 
L 15.1875 10.203125 
Q 11.859375 5.765625 11.859375 4.9375 
Q 11.859375 3.765625 12.953125 2.8125 
Q 14.0625 1.859375 16.265625 1.765625 
L 16.265625 0 
L 1.65625 0 
L 1.65625 1.765625 
Q 3.421875 2 4.734375 2.984375 
Q 6.59375 4.390625 10.984375 10.203125 
L 20.359375 22.65625 
L 11.859375 34.96875 
Q 8.25 40.234375 6.265625 41.578125 
Q 4.296875 42.921875 1.3125 42.921875 
z
" id="TimesNewRomanPSMT-120"/>
      <path d="M 31.0625 -19.578125 
L 31.0625 -21.390625 
Q 23.6875 -17.671875 18.75 -12.703125 
Q 11.71875 -5.609375 7.90625 4 
Q 4.109375 13.625 4.109375 23.96875 
Q 4.109375 39.109375 11.578125 51.578125 
Q 19.046875 64.0625 31.0625 69.4375 
L 31.0625 67.390625 
Q 25.046875 64.0625 21.1875 58.296875 
Q 17.328125 52.546875 15.421875 43.703125 
Q 13.53125 34.859375 13.53125 25.25 
Q 13.53125 14.796875 15.140625 6.25 
Q 16.40625 -0.484375 18.203125 -4.5625 
Q 20.015625 -8.640625 23.0625 -12.390625 
Q 26.125 -16.15625 31.0625 -19.578125 
z
" id="TimesNewRomanPSMT-40"/>
      <path d="M 20.453125 62.59375 
L 20.453125 36.578125 
L 32.515625 36.578125 
Q 36.671875 36.578125 38.59375 38.40625 
Q 40.53125 40.234375 41.15625 45.65625 
L 42.96875 45.65625 
L 42.96875 23.25 
L 41.15625 23.25 
Q 41.109375 27.09375 40.15625 28.90625 
Q 39.203125 30.71875 37.515625 31.609375 
Q 35.84375 32.515625 32.515625 32.515625 
L 20.453125 32.515625 
L 20.453125 11.71875 
Q 20.453125 6.6875 21.09375 5.078125 
Q 21.578125 3.859375 23.140625 2.984375 
Q 25.296875 1.8125 27.640625 1.8125 
L 30.03125 1.8125 
L 30.03125 0 
L 1.609375 0 
L 1.609375 1.8125 
L 3.953125 1.8125 
Q 8.0625 1.8125 9.90625 4.203125 
Q 11.078125 5.765625 11.078125 11.71875 
L 11.078125 54.5 
Q 11.078125 59.515625 10.453125 61.140625 
Q 9.96875 62.359375 8.453125 63.234375 
Q 6.34375 64.40625 3.953125 64.40625 
L 1.609375 64.40625 
L 1.609375 66.21875 
L 50.875 66.21875 
L 51.515625 51.65625 
L 49.8125 51.65625 
Q 48.53125 56.296875 46.84375 58.46875 
Q 45.171875 60.640625 42.703125 61.609375 
Q 40.234375 62.59375 35.0625 62.59375 
z
" id="TimesNewRomanPSMT-70"/>
      <path d="M 16.40625 36.53125 
Q 21.296875 41.40625 22.171875 42.140625 
Q 24.359375 44 26.890625 45.015625 
Q 29.4375 46.046875 31.9375 46.046875 
Q 36.140625 46.046875 39.15625 43.59375 
Q 42.1875 41.15625 43.21875 36.53125 
Q 48.25 42.390625 51.703125 44.21875 
Q 55.171875 46.046875 58.84375 46.046875 
Q 62.40625 46.046875 65.15625 44.21875 
Q 67.921875 42.390625 69.53125 38.234375 
Q 70.609375 35.40625 70.609375 29.34375 
L 70.609375 10.109375 
Q 70.609375 5.90625 71.234375 4.34375 
Q 71.734375 3.265625 73.046875 2.515625 
Q 74.359375 1.765625 77.34375 1.765625 
L 77.34375 0 
L 55.28125 0 
L 55.28125 1.765625 
L 56.203125 1.765625 
Q 59.078125 1.765625 60.6875 2.875 
Q 61.8125 3.65625 62.3125 5.375 
Q 62.5 6.203125 62.5 10.109375 
L 62.5 29.34375 
Q 62.5 34.8125 61.1875 37.0625 
Q 59.28125 40.1875 55.078125 40.1875 
Q 52.484375 40.1875 49.875 38.890625 
Q 47.265625 37.59375 43.5625 34.078125 
L 43.453125 33.546875 
L 43.5625 31.453125 
L 43.5625 10.109375 
Q 43.5625 5.515625 44.0625 4.390625 
Q 44.578125 3.265625 45.984375 2.515625 
Q 47.40625 1.765625 50.828125 1.765625 
L 50.828125 0 
L 28.21875 0 
L 28.21875 1.765625 
Q 31.9375 1.765625 33.328125 2.640625 
Q 34.71875 3.515625 35.25 5.28125 
Q 35.5 6.109375 35.5 10.109375 
L 35.5 29.34375 
Q 35.5 34.8125 33.890625 37.203125 
Q 31.734375 40.328125 27.875 40.328125 
Q 25.25 40.328125 22.65625 38.921875 
Q 18.609375 36.765625 16.40625 34.078125 
L 16.40625 10.109375 
Q 16.40625 5.71875 17.015625 4.390625 
Q 17.625 3.078125 18.8125 2.421875 
Q 20.015625 1.765625 23.6875 1.765625 
L 23.6875 0 
L 1.5625 0 
L 1.5625 1.765625 
Q 4.640625 1.765625 5.859375 2.421875 
Q 7.078125 3.078125 7.703125 4.515625 
Q 8.34375 5.953125 8.34375 10.109375 
L 8.34375 27.203125 
Q 8.34375 34.578125 7.90625 36.71875 
Q 7.5625 38.328125 6.828125 38.9375 
Q 6.109375 39.546875 4.828125 39.546875 
Q 3.46875 39.546875 1.5625 38.8125 
L 0.828125 40.578125 
L 14.3125 46.046875 
L 16.40625 46.046875 
z
" id="TimesNewRomanPSMT-109"/>
      <path d="M 2.25 67.390625 
L 2.25 69.4375 
Q 9.671875 65.765625 14.59375 60.796875 
Q 21.578125 53.65625 25.390625 44.0625 
Q 29.203125 34.46875 29.203125 24.078125 
Q 29.203125 8.9375 21.75 -3.53125 
Q 14.3125 -16.015625 2.25 -21.390625 
L 2.25 -19.578125 
Q 8.25 -16.21875 12.125 -10.46875 
Q 16.015625 -4.734375 17.890625 4.125 
Q 19.78125 12.984375 19.78125 22.609375 
Q 19.78125 33.015625 18.171875 41.609375 
Q 16.9375 48.34375 15.109375 52.390625 
Q 13.28125 56.453125 10.25 60.203125 
Q 7.234375 63.96875 2.25 67.390625 
z
" id="TimesNewRomanPSMT-41"/>
     </defs>
     <g transform="translate(111.9325 252.199)scale(0.16 -0.16)">
      <use xlink:href="#TimesNewRomanPSMT-67"/>
      <use x="66.699219" xlink:href="#TimesNewRomanPSMT-111"/>
      <use x="116.699219" xlink:href="#TimesNewRomanPSMT-110"/>
      <use x="166.699219" xlink:href="#TimesNewRomanPSMT-105"/>
      <use x="194.482422" xlink:href="#TimesNewRomanPSMT-99"/>
      <use x="238.867188" xlink:href="#TimesNewRomanPSMT-32"/>
      <use x="263.867188" xlink:href="#TimesNewRomanPSMT-120"/>
      <use x="313.867188" xlink:href="#TimesNewRomanPSMT-32"/>
      <use x="338.867188" xlink:href="#TimesNewRomanPSMT-52"/>
      <use x="388.867188" xlink:href="#TimesNewRomanPSMT-32"/>
      <use x="413.867188" xlink:href="#TimesNewRomanPSMT-40"/>
      <use x="447.167969" xlink:href="#TimesNewRomanPSMT-70"/>
      <use x="502.783203" xlink:href="#TimesNewRomanPSMT-114"/>
      <use x="536.083984" xlink:href="#TimesNewRomanPSMT-111"/>
      <use x="586.083984" xlink:href="#TimesNewRomanPSMT-109"/>
      <use x="663.867188" xlink:href="#TimesNewRomanPSMT-32"/>
      <use x="688.867188" xlink:href="#TimesNewRomanPSMT-83"/>
      <use x="744.482422" xlink:href="#TimesNewRomanPSMT-99"/>
      <use x="788.867188" xlink:href="#TimesNewRomanPSMT-114"/>
      <use x="822.167969" xlink:href="#TimesNewRomanPSMT-97"/>
      <use x="866.552734" xlink:href="#TimesNewRomanPSMT-116"/>
      <use x="894.335938" xlink:href="#TimesNewRomanPSMT-99"/>
      <use x="938.720703" xlink:href="#TimesNewRomanPSMT-104"/>
      <use x="988.720703" xlink:href="#TimesNewRomanPSMT-41"/>
     </g>
    </g>
    <g id="line2d_54">
     <path d="M 67.1325 269.2215 
L 99.1325 269.2215 
" style="fill:none;stroke:#9467bd;stroke-linecap:square;stroke-width:1.5;"/>
    </g>
    <g id="line2d_55"/>
    <g id="text_28">
     <!-- Conic x 4 (Pretrained) -->
     <defs>
      <path d="M 34.71875 5.03125 
Q 31.453125 1.609375 28.328125 0.109375 
Q 25.203125 -1.375 21.578125 -1.375 
Q 14.265625 -1.375 8.796875 4.75 
Q 3.328125 10.890625 3.328125 20.515625 
Q 3.328125 30.125 9.375 38.109375 
Q 15.4375 46.09375 24.953125 46.09375 
Q 30.859375 46.09375 34.71875 42.328125 
L 34.71875 50.59375 
Q 34.71875 58.25 34.34375 60 
Q 33.984375 61.765625 33.203125 62.390625 
Q 32.421875 63.03125 31.25 63.03125 
Q 29.984375 63.03125 27.875 62.25 
L 27.25 63.96875 
L 40.578125 69.4375 
L 42.78125 69.4375 
L 42.78125 17.71875 
Q 42.78125 9.859375 43.140625 8.125 
Q 43.5 6.390625 44.3125 5.703125 
Q 45.125 5.03125 46.1875 5.03125 
Q 47.515625 5.03125 49.703125 5.859375 
L 50.25 4.15625 
L 36.96875 -1.375 
L 34.71875 -1.375 
z
M 34.71875 8.453125 
L 34.71875 31.5 
Q 34.421875 34.8125 32.953125 37.546875 
Q 31.5 40.28125 29.078125 41.671875 
Q 26.65625 43.0625 24.359375 43.0625 
Q 20.0625 43.0625 16.703125 39.203125 
Q 12.25 34.125 12.25 24.359375 
Q 12.25 14.5 16.546875 9.25 
Q 20.84375 4 26.125 4 
Q 30.5625 4 34.71875 8.453125 
z
" id="TimesNewRomanPSMT-100"/>
     </defs>
     <g transform="translate(111.9325 274.8215)scale(0.16 -0.16)">
      <use xlink:href="#TimesNewRomanPSMT-67"/>
      <use x="66.699219" xlink:href="#TimesNewRomanPSMT-111"/>
      <use x="116.699219" xlink:href="#TimesNewRomanPSMT-110"/>
      <use x="166.699219" xlink:href="#TimesNewRomanPSMT-105"/>
      <use x="194.482422" xlink:href="#TimesNewRomanPSMT-99"/>
      <use x="238.867188" xlink:href="#TimesNewRomanPSMT-32"/>
      <use x="263.867188" xlink:href="#TimesNewRomanPSMT-120"/>
      <use x="313.867188" xlink:href="#TimesNewRomanPSMT-32"/>
      <use x="338.867188" xlink:href="#TimesNewRomanPSMT-52"/>
      <use x="388.867188" xlink:href="#TimesNewRomanPSMT-32"/>
      <use x="413.867188" xlink:href="#TimesNewRomanPSMT-40"/>
      <use x="447.167969" xlink:href="#TimesNewRomanPSMT-80"/>
      <use x="502.783203" xlink:href="#TimesNewRomanPSMT-114"/>
      <use x="536.083984" xlink:href="#TimesNewRomanPSMT-101"/>
      <use x="580.46875" xlink:href="#TimesNewRomanPSMT-116"/>
      <use x="608.251953" xlink:href="#TimesNewRomanPSMT-114"/>
      <use x="641.552734" xlink:href="#TimesNewRomanPSMT-97"/>
      <use x="685.9375" xlink:href="#TimesNewRomanPSMT-105"/>
      <use x="713.720703" xlink:href="#TimesNewRomanPSMT-110"/>
      <use x="763.720703" xlink:href="#TimesNewRomanPSMT-101"/>
      <use x="808.105469" xlink:href="#TimesNewRomanPSMT-100"/>
      <use x="858.105469" xlink:href="#TimesNewRomanPSMT-41"/>
     </g>
    </g>
   </g>
  </g>
 </g>
 <defs>
  <clipPath id="pd5c0ba3c41">
   <rect height="266.112" width="357.12" x="52.7325" y="26.532"/>
  </clipPath>
 </defs>
</svg>
