<?xml version="1.0" encoding="utf-8" standalone="no"?>
<!DOCTYPE svg PUBLIC "-//W3C//DTD SVG 1.1//EN"
  "http://www.w3.org/Graphics/SVG/1.1/DTD/svg11.dtd">
<!-- Created with matplotlib (https://matplotlib.org/) -->
<svg height="250px" version="1.1" viewBox="0 0 417.0525 339.939" xmlns="http://www.w3.org/2000/svg" xmlns:xlink="http://www.w3.org/1999/xlink">
 <defs>
  <style type="text/css">
*{stroke-linecap:butt;stroke-linejoin:round;}
  </style>
 </defs>
 <g id="figure_1">
  <g id="patch_1">
   <path d="M 0 339.939 
L 417.0525 339.939 
L 417.0525 0 
L 0 0 
z
" style="fill:#ffffff;"/>
  </g>
  <g id="axes_1">
   <g id="patch_2">
    <path d="M 52.7325 292.644 
L 409.8525 292.644 
L 409.8525 26.532 
L 52.7325 26.532 
z
" style="fill:#ffffff;"/>
   </g>
   <g id="matplotlib.axis_1">
    <g id="xtick_1">
     <g id="line2d_1">
      <path clip-path="url(#pac81b371a2)" d="M 52.7325 292.644 
L 52.7325 26.532 
" style="fill:none;stroke:#b0b0b0;stroke-linecap:square;stroke-width:0.8;"/>
     </g>
     <g id="line2d_2">
      <defs>
       <path d="M 0 0 
L 0 3.5 
" id="ma109720157" style="stroke:#000000;stroke-width:0.8;"/>
      </defs>
      <g>
       <use style="stroke:#000000;stroke-width:0.8;" x="52.7325" xlink:href="#ma109720157" y="292.644"/>
      </g>
     </g>
     <g id="text_1">
      <!-- 0.0 -->
      <defs>
       <path d="M 3.609375 32.71875 
Q 3.609375 44.046875 7.03125 52.21875 
Q 10.453125 60.40625 16.109375 64.40625 
Q 20.515625 67.578125 25.203125 67.578125 
Q 32.8125 67.578125 38.875 59.8125 
Q 46.4375 50.203125 46.4375 33.734375 
Q 46.4375 22.21875 43.109375 14.15625 
Q 39.796875 6.109375 34.640625 2.46875 
Q 29.5 -1.171875 24.703125 -1.171875 
Q 15.234375 -1.171875 8.9375 10.015625 
Q 3.609375 19.4375 3.609375 32.71875 
z
M 13.1875 31.5 
Q 13.1875 17.828125 16.546875 9.1875 
Q 19.34375 1.90625 24.859375 1.90625 
Q 27.484375 1.90625 30.3125 4.265625 
Q 33.15625 6.640625 34.625 12.203125 
Q 36.859375 20.609375 36.859375 35.890625 
Q 36.859375 47.21875 34.515625 54.78125 
Q 32.765625 60.40625 29.984375 62.75 
Q 27.984375 64.359375 25.140625 64.359375 
Q 21.828125 64.359375 19.234375 61.375 
Q 15.71875 57.328125 14.453125 48.625 
Q 13.1875 39.9375 13.1875 31.5 
z
" id="TimesNewRomanPSMT-48"/>
       <path d="M 12.5 9.46875 
Q 14.796875 9.46875 16.359375 7.875 
Q 17.921875 6.296875 17.921875 4.046875 
Q 17.921875 1.8125 16.328125 0.21875 
Q 14.75 -1.375 12.5 -1.375 
Q 10.25 -1.375 8.65625 0.21875 
Q 7.078125 1.8125 7.078125 4.046875 
Q 7.078125 6.34375 8.65625 7.90625 
Q 10.25 9.46875 12.5 9.46875 
z
" id="TimesNewRomanPSMT-46"/>
      </defs>
      <g transform="translate(42.7325 310.754)scale(0.16 -0.16)">
       <use xlink:href="#TimesNewRomanPSMT-48"/>
       <use x="50" xlink:href="#TimesNewRomanPSMT-46"/>
       <use x="75" xlink:href="#TimesNewRomanPSMT-48"/>
      </g>
     </g>
    </g>
    <g id="xtick_2">
     <g id="line2d_3">
      <path clip-path="url(#pac81b371a2)" d="M 88.4445 292.644 
L 88.4445 26.532 
" style="fill:none;stroke:#b0b0b0;stroke-linecap:square;stroke-width:0.8;"/>
     </g>
     <g id="line2d_4">
      <g>
       <use style="stroke:#000000;stroke-width:0.8;" x="88.4445" xlink:href="#ma109720157" y="292.644"/>
      </g>
     </g>
     <g id="text_2">
      <!-- 1.2 -->
      <defs>
       <path d="M 11.71875 59.71875 
L 27.828125 67.578125 
L 29.4375 67.578125 
L 29.4375 11.671875 
Q 29.4375 6.109375 29.90625 4.734375 
Q 30.375 3.375 31.828125 2.640625 
Q 33.296875 1.90625 37.796875 1.8125 
L 37.796875 0 
L 12.890625 0 
L 12.890625 1.8125 
Q 17.578125 1.90625 18.9375 2.609375 
Q 20.3125 3.328125 20.84375 4.515625 
Q 21.390625 5.71875 21.390625 11.671875 
L 21.390625 47.40625 
Q 21.390625 54.640625 20.90625 56.6875 
Q 20.5625 58.25 19.65625 58.984375 
Q 18.75 59.71875 17.484375 59.71875 
Q 15.671875 59.71875 12.453125 58.203125 
z
" id="TimesNewRomanPSMT-49"/>
       <path d="M 45.84375 12.75 
L 41.21875 0 
L 2.15625 0 
L 2.15625 1.8125 
Q 19.390625 17.53125 26.421875 27.484375 
Q 33.453125 37.453125 33.453125 45.703125 
Q 33.453125 52 29.59375 56.046875 
Q 25.734375 60.109375 20.359375 60.109375 
Q 15.484375 60.109375 11.59375 57.25 
Q 7.71875 54.390625 5.859375 48.875 
L 4.046875 48.875 
Q 5.28125 57.90625 10.328125 62.734375 
Q 15.375 67.578125 22.953125 67.578125 
Q 31 67.578125 36.390625 62.40625 
Q 41.796875 57.234375 41.796875 50.203125 
Q 41.796875 45.171875 39.453125 40.140625 
Q 35.84375 32.234375 27.734375 23.390625 
Q 15.578125 10.109375 12.546875 7.375 
L 29.828125 7.375 
Q 35.109375 7.375 37.234375 7.765625 
Q 39.359375 8.15625 41.0625 9.34375 
Q 42.78125 10.546875 44.046875 12.75 
z
" id="TimesNewRomanPSMT-50"/>
      </defs>
      <g transform="translate(78.4445 310.754)scale(0.16 -0.16)">
       <use xlink:href="#TimesNewRomanPSMT-49"/>
       <use x="50" xlink:href="#TimesNewRomanPSMT-46"/>
       <use x="75" xlink:href="#TimesNewRomanPSMT-50"/>
      </g>
     </g>
    </g>
    <g id="xtick_3">
     <g id="line2d_5">
      <path clip-path="url(#pac81b371a2)" d="M 124.1565 292.644 
L 124.1565 26.532 
" style="fill:none;stroke:#b0b0b0;stroke-linecap:square;stroke-width:0.8;"/>
     </g>
     <g id="line2d_6">
      <g>
       <use style="stroke:#000000;stroke-width:0.8;" x="124.1565" xlink:href="#ma109720157" y="292.644"/>
      </g>
     </g>
     <g id="text_3">
      <!-- 2.4 -->
      <defs>
       <path d="M 46.53125 24.421875 
L 46.53125 17.484375 
L 37.640625 17.484375 
L 37.640625 0 
L 29.59375 0 
L 29.59375 17.484375 
L 1.5625 17.484375 
L 1.5625 23.734375 
L 32.28125 67.578125 
L 37.640625 67.578125 
L 37.640625 24.421875 
z
M 29.59375 24.421875 
L 29.59375 57.28125 
L 6.34375 24.421875 
z
" id="TimesNewRomanPSMT-52"/>
      </defs>
      <g transform="translate(114.1565 310.754)scale(0.16 -0.16)">
       <use xlink:href="#TimesNewRomanPSMT-50"/>
       <use x="50" xlink:href="#TimesNewRomanPSMT-46"/>
       <use x="75" xlink:href="#TimesNewRomanPSMT-52"/>
      </g>
     </g>
    </g>
    <g id="xtick_4">
     <g id="line2d_7">
      <path clip-path="url(#pac81b371a2)" d="M 159.8685 292.644 
L 159.8685 26.532 
" style="fill:none;stroke:#b0b0b0;stroke-linecap:square;stroke-width:0.8;"/>
     </g>
     <g id="line2d_8">
      <g>
       <use style="stroke:#000000;stroke-width:0.8;" x="159.8685" xlink:href="#ma109720157" y="292.644"/>
      </g>
     </g>
     <g id="text_4">
      <!-- 3.6 -->
      <defs>
       <path d="M 5.078125 53.609375 
Q 7.90625 60.296875 12.21875 63.9375 
Q 16.546875 67.578125 23 67.578125 
Q 30.953125 67.578125 35.203125 62.40625 
Q 38.421875 58.546875 38.421875 54.15625 
Q 38.421875 46.921875 29.34375 39.203125 
Q 35.453125 36.8125 38.578125 32.375 
Q 41.703125 27.9375 41.703125 21.921875 
Q 41.703125 13.328125 36.234375 7.03125 
Q 29.109375 -1.171875 15.578125 -1.171875 
Q 8.890625 -1.171875 6.46875 0.484375 
Q 4.046875 2.15625 4.046875 4.046875 
Q 4.046875 5.46875 5.1875 6.546875 
Q 6.34375 7.625 7.953125 7.625 
Q 9.1875 7.625 10.453125 7.234375 
Q 11.28125 6.984375 14.203125 5.4375 
Q 17.140625 3.90625 18.265625 3.609375 
Q 20.0625 3.078125 22.125 3.078125 
Q 27.09375 3.078125 30.78125 6.9375 
Q 34.46875 10.796875 34.46875 16.0625 
Q 34.46875 19.921875 32.765625 23.578125 
Q 31.5 26.3125 29.984375 27.734375 
Q 27.875 29.6875 24.21875 31.265625 
Q 20.5625 32.859375 16.75 32.859375 
L 15.1875 32.859375 
L 15.1875 34.328125 
Q 19.046875 34.8125 22.921875 37.109375 
Q 26.8125 39.40625 28.5625 42.625 
Q 30.328125 45.84375 30.328125 49.703125 
Q 30.328125 54.734375 27.171875 57.828125 
Q 24.03125 60.9375 19.34375 60.9375 
Q 11.765625 60.9375 6.6875 52.828125 
z
" id="TimesNewRomanPSMT-51"/>
       <path d="M 44.828125 67.578125 
L 44.828125 65.765625 
Q 38.375 65.140625 34.296875 63.203125 
Q 30.21875 61.28125 26.234375 57.328125 
Q 22.265625 53.375 19.65625 48.515625 
Q 17.046875 43.65625 15.28125 36.96875 
Q 22.3125 41.796875 29.390625 41.796875 
Q 36.1875 41.796875 41.15625 36.328125 
Q 46.140625 30.859375 46.140625 22.265625 
Q 46.140625 13.96875 41.109375 7.125 
Q 35.0625 -1.171875 25.09375 -1.171875 
Q 18.3125 -1.171875 13.578125 3.328125 
Q 4.296875 12.0625 4.296875 25.984375 
Q 4.296875 34.859375 7.859375 42.859375 
Q 11.421875 50.875 18.03125 57.078125 
Q 24.65625 63.28125 30.703125 65.421875 
Q 36.765625 67.578125 42 67.578125 
z
M 14.453125 33.40625 
Q 13.578125 26.8125 13.578125 22.75 
Q 13.578125 18.0625 15.3125 12.5625 
Q 17.046875 7.078125 20.453125 3.859375 
Q 22.953125 1.5625 26.515625 1.5625 
Q 30.765625 1.5625 34.109375 5.5625 
Q 37.453125 9.578125 37.453125 17 
Q 37.453125 25.34375 34.125 31.4375 
Q 30.8125 37.546875 24.703125 37.546875 
Q 22.859375 37.546875 20.734375 36.765625 
Q 18.609375 35.984375 14.453125 33.40625 
z
" id="TimesNewRomanPSMT-54"/>
      </defs>
      <g transform="translate(149.8685 310.754)scale(0.16 -0.16)">
       <use xlink:href="#TimesNewRomanPSMT-51"/>
       <use x="50" xlink:href="#TimesNewRomanPSMT-46"/>
       <use x="75" xlink:href="#TimesNewRomanPSMT-54"/>
      </g>
     </g>
    </g>
    <g id="xtick_5">
     <g id="line2d_9">
      <path clip-path="url(#pac81b371a2)" d="M 195.5805 292.644 
L 195.5805 26.532 
" style="fill:none;stroke:#b0b0b0;stroke-linecap:square;stroke-width:0.8;"/>
     </g>
     <g id="line2d_10">
      <g>
       <use style="stroke:#000000;stroke-width:0.8;" x="195.5805" xlink:href="#ma109720157" y="292.644"/>
      </g>
     </g>
     <g id="text_5">
      <!-- 4.8 -->
      <defs>
       <path d="M 19.1875 33.34375 
Q 11.328125 39.796875 9.046875 43.703125 
Q 6.78125 47.609375 6.78125 51.8125 
Q 6.78125 58.25 11.765625 62.90625 
Q 16.75 67.578125 25 67.578125 
Q 33.015625 67.578125 37.890625 63.234375 
Q 42.78125 58.890625 42.78125 53.328125 
Q 42.78125 49.609375 40.140625 45.75 
Q 37.5 41.890625 29.15625 36.671875 
Q 37.75 30.03125 40.53125 26.21875 
Q 44.234375 21.234375 44.234375 15.71875 
Q 44.234375 8.734375 38.90625 3.78125 
Q 33.59375 -1.171875 24.953125 -1.171875 
Q 15.53125 -1.171875 10.25 4.734375 
Q 6.0625 9.46875 6.0625 15.09375 
Q 6.0625 19.484375 9.015625 23.796875 
Q 11.96875 28.125 19.1875 33.34375 
z
M 26.859375 38.578125 
Q 32.71875 43.84375 34.28125 46.890625 
Q 35.84375 49.953125 35.84375 53.8125 
Q 35.84375 58.9375 32.953125 61.84375 
Q 30.078125 64.75 25.09375 64.75 
Q 20.125 64.75 17 61.859375 
Q 13.875 58.984375 13.875 55.125 
Q 13.875 52.59375 15.15625 50.046875 
Q 16.453125 47.515625 18.84375 45.21875 
z
M 21.484375 31.5 
Q 17.4375 28.078125 15.484375 24.046875 
Q 13.53125 20.015625 13.53125 15.328125 
Q 13.53125 9.03125 16.96875 5.25 
Q 20.40625 1.46875 25.734375 1.46875 
Q 31 1.46875 34.171875 4.4375 
Q 37.359375 7.421875 37.359375 11.671875 
Q 37.359375 15.1875 35.5 17.96875 
Q 32.03125 23.140625 21.484375 31.5 
z
" id="TimesNewRomanPSMT-56"/>
      </defs>
      <g transform="translate(185.5805 310.754)scale(0.16 -0.16)">
       <use xlink:href="#TimesNewRomanPSMT-52"/>
       <use x="50" xlink:href="#TimesNewRomanPSMT-46"/>
       <use x="75" xlink:href="#TimesNewRomanPSMT-56"/>
      </g>
     </g>
    </g>
    <g id="xtick_6">
     <g id="line2d_11">
      <path clip-path="url(#pac81b371a2)" d="M 231.2925 292.644 
L 231.2925 26.532 
" style="fill:none;stroke:#b0b0b0;stroke-linecap:square;stroke-width:0.8;"/>
     </g>
     <g id="line2d_12">
      <g>
       <use style="stroke:#000000;stroke-width:0.8;" x="231.2925" xlink:href="#ma109720157" y="292.644"/>
      </g>
     </g>
     <g id="text_6">
      <!-- 6.0 -->
      <g transform="translate(221.2925 310.754)scale(0.16 -0.16)">
       <use xlink:href="#TimesNewRomanPSMT-54"/>
       <use x="50" xlink:href="#TimesNewRomanPSMT-46"/>
       <use x="75" xlink:href="#TimesNewRomanPSMT-48"/>
      </g>
     </g>
    </g>
    <g id="xtick_7">
     <g id="line2d_13">
      <path clip-path="url(#pac81b371a2)" d="M 267.0045 292.644 
L 267.0045 26.532 
" style="fill:none;stroke:#b0b0b0;stroke-linecap:square;stroke-width:0.8;"/>
     </g>
     <g id="line2d_14">
      <g>
       <use style="stroke:#000000;stroke-width:0.8;" x="267.0045" xlink:href="#ma109720157" y="292.644"/>
      </g>
     </g>
     <g id="text_7">
      <!-- 7.2 -->
      <defs>
       <path d="M 10.0625 66.21875 
L 45.5625 66.21875 
L 45.5625 64.359375 
L 23.484375 -1.375 
L 18.015625 -1.375 
L 37.796875 58.25 
L 19.578125 58.25 
Q 14.0625 58.25 11.71875 56.9375 
Q 7.625 54.6875 5.125 50 
L 3.71875 50.53125 
z
" id="TimesNewRomanPSMT-55"/>
      </defs>
      <g transform="translate(257.0045 310.754)scale(0.16 -0.16)">
       <use xlink:href="#TimesNewRomanPSMT-55"/>
       <use x="50" xlink:href="#TimesNewRomanPSMT-46"/>
       <use x="75" xlink:href="#TimesNewRomanPSMT-50"/>
      </g>
     </g>
    </g>
    <g id="xtick_8">
     <g id="line2d_15">
      <path clip-path="url(#pac81b371a2)" d="M 302.7165 292.644 
L 302.7165 26.532 
" style="fill:none;stroke:#b0b0b0;stroke-linecap:square;stroke-width:0.8;"/>
     </g>
     <g id="line2d_16">
      <g>
       <use style="stroke:#000000;stroke-width:0.8;" x="302.7165" xlink:href="#ma109720157" y="292.644"/>
      </g>
     </g>
     <g id="text_8">
      <!-- 8.4 -->
      <g transform="translate(292.7165 310.754)scale(0.16 -0.16)">
       <use xlink:href="#TimesNewRomanPSMT-56"/>
       <use x="50" xlink:href="#TimesNewRomanPSMT-46"/>
       <use x="75" xlink:href="#TimesNewRomanPSMT-52"/>
      </g>
     </g>
    </g>
    <g id="xtick_9">
     <g id="line2d_17">
      <path clip-path="url(#pac81b371a2)" d="M 338.4285 292.644 
L 338.4285 26.532 
" style="fill:none;stroke:#b0b0b0;stroke-linecap:square;stroke-width:0.8;"/>
     </g>
     <g id="line2d_18">
      <g>
       <use style="stroke:#000000;stroke-width:0.8;" x="338.4285" xlink:href="#ma109720157" y="292.644"/>
      </g>
     </g>
     <g id="text_9">
      <!-- 9.6 -->
      <defs>
       <path d="M 5.28125 -1.375 
L 5.28125 0.4375 
Q 11.625 0.53125 17.09375 3.390625 
Q 22.5625 6.25 27.65625 13.375 
Q 32.765625 20.515625 34.765625 29.046875 
Q 27.09375 24.125 20.90625 24.125 
Q 13.921875 24.125 8.9375 29.515625 
Q 3.953125 34.90625 3.953125 43.84375 
Q 3.953125 52.546875 8.9375 59.328125 
Q 14.9375 67.578125 24.609375 67.578125 
Q 32.765625 67.578125 38.578125 60.84375 
Q 45.703125 52.484375 45.703125 40.234375 
Q 45.703125 29.203125 40.28125 19.65625 
Q 34.859375 10.109375 25.203125 3.8125 
Q 17.328125 -1.375 8.0625 -1.375 
z
M 35.546875 32.671875 
Q 36.421875 39.015625 36.421875 42.828125 
Q 36.421875 47.5625 34.8125 53.046875 
Q 33.203125 58.546875 30.25 61.46875 
Q 27.296875 64.40625 23.53125 64.40625 
Q 19.1875 64.40625 15.90625 60.5 
Q 12.640625 56.59375 12.640625 48.875 
Q 12.640625 38.578125 17 32.765625 
Q 20.171875 28.5625 24.8125 28.5625 
Q 27.046875 28.5625 30.125 29.640625 
Q 33.203125 30.71875 35.546875 32.671875 
z
" id="TimesNewRomanPSMT-57"/>
      </defs>
      <g transform="translate(328.4285 310.754)scale(0.16 -0.16)">
       <use xlink:href="#TimesNewRomanPSMT-57"/>
       <use x="50" xlink:href="#TimesNewRomanPSMT-46"/>
       <use x="75" xlink:href="#TimesNewRomanPSMT-54"/>
      </g>
     </g>
    </g>
    <g id="xtick_10">
     <g id="line2d_19">
      <path clip-path="url(#pac81b371a2)" d="M 374.1405 292.644 
L 374.1405 26.532 
" style="fill:none;stroke:#b0b0b0;stroke-linecap:square;stroke-width:0.8;"/>
     </g>
     <g id="line2d_20">
      <g>
       <use style="stroke:#000000;stroke-width:0.8;" x="374.1405" xlink:href="#ma109720157" y="292.644"/>
      </g>
     </g>
     <g id="text_10">
      <!-- 10.8 -->
      <g transform="translate(360.1405 310.754)scale(0.16 -0.16)">
       <use xlink:href="#TimesNewRomanPSMT-49"/>
       <use x="50" xlink:href="#TimesNewRomanPSMT-48"/>
       <use x="100" xlink:href="#TimesNewRomanPSMT-46"/>
       <use x="125" xlink:href="#TimesNewRomanPSMT-56"/>
      </g>
     </g>
    </g>
    <g id="text_11">
     <!-- Angle Difference -->
     <defs>
      <path d="M 45.75 22.171875 
L 20.125 22.171875 
L 15.625 11.71875 
Q 13.96875 7.859375 13.96875 5.953125 
Q 13.96875 4.4375 15.40625 3.296875 
Q 16.84375 2.15625 21.625 1.8125 
L 21.625 0 
L 0.78125 0 
L 0.78125 1.8125 
Q 4.9375 2.546875 6.15625 3.71875 
Q 8.640625 6.0625 11.671875 13.234375 
L 34.96875 67.71875 
L 36.671875 67.71875 
L 59.71875 12.640625 
Q 62.5 6 64.765625 4.015625 
Q 67.046875 2.046875 71.09375 1.8125 
L 71.09375 0 
L 44.96875 0 
L 44.96875 1.8125 
Q 48.921875 2 50.3125 3.125 
Q 51.703125 4.25 51.703125 5.859375 
Q 51.703125 8.015625 49.75 12.640625 
z
M 44.390625 25.78125 
L 33.15625 52.546875 
L 21.625 25.78125 
z
" id="TimesNewRomanPSMT-65"/>
      <path d="M 16.15625 36.578125 
Q 24.03125 46.046875 31.15625 46.046875 
Q 34.8125 46.046875 37.453125 44.21875 
Q 40.09375 42.390625 41.65625 38.1875 
Q 42.71875 35.25 42.71875 29.203125 
L 42.71875 10.109375 
Q 42.71875 5.859375 43.40625 4.34375 
Q 43.953125 3.125 45.140625 2.4375 
Q 46.34375 1.765625 49.5625 1.765625 
L 49.5625 0 
L 27.4375 0 
L 27.4375 1.765625 
L 28.375 1.765625 
Q 31.5 1.765625 32.734375 2.703125 
Q 33.984375 3.65625 34.46875 5.515625 
Q 34.671875 6.25 34.671875 10.109375 
L 34.671875 28.421875 
Q 34.671875 34.515625 33.078125 37.28125 
Q 31.5 40.046875 27.734375 40.046875 
Q 21.921875 40.046875 16.15625 33.6875 
L 16.15625 10.109375 
Q 16.15625 5.5625 16.703125 4.5 
Q 17.390625 3.078125 18.578125 2.421875 
Q 19.78125 1.765625 23.4375 1.765625 
L 23.4375 0 
L 1.3125 0 
L 1.3125 1.765625 
L 2.296875 1.765625 
Q 5.71875 1.765625 6.90625 3.484375 
Q 8.109375 5.21875 8.109375 10.109375 
L 8.109375 26.703125 
Q 8.109375 34.765625 7.734375 36.515625 
Q 7.375 38.28125 6.609375 38.90625 
Q 5.859375 39.546875 4.59375 39.546875 
Q 3.21875 39.546875 1.3125 38.8125 
L 0.59375 40.578125 
L 14.0625 46.046875 
L 16.15625 46.046875 
z
" id="TimesNewRomanPSMT-110"/>
      <path d="M 15.09375 16.3125 
Q 10.984375 18.3125 8.78125 21.890625 
Q 6.59375 25.484375 6.59375 29.828125 
Q 6.59375 36.46875 11.59375 41.25 
Q 16.609375 46.046875 24.421875 46.046875 
Q 30.8125 46.046875 35.5 42.921875 
L 44.96875 42.921875 
Q 47.078125 42.921875 47.40625 42.796875 
Q 47.75 42.671875 47.90625 42.390625 
Q 48.1875 41.9375 48.1875 40.828125 
Q 48.1875 39.546875 47.953125 39.0625 
Q 47.796875 38.8125 47.4375 38.671875 
Q 47.078125 38.53125 44.96875 38.53125 
L 39.15625 38.53125 
Q 41.890625 35.015625 41.890625 29.546875 
Q 41.890625 23.296875 37.109375 18.84375 
Q 32.328125 14.40625 24.265625 14.40625 
Q 20.953125 14.40625 17.484375 15.375 
Q 15.328125 13.53125 14.5625 12.140625 
Q 13.8125 10.75 13.8125 9.765625 
Q 13.8125 8.9375 14.625 8.15625 
Q 15.4375 7.375 17.78125 7.03125 
Q 19.140625 6.84375 24.609375 6.6875 
Q 34.671875 6.453125 37.640625 6 
Q 42.1875 5.375 44.890625 2.640625 
Q 47.609375 -0.09375 47.609375 -4.109375 
Q 47.609375 -9.625 42.4375 -14.453125 
Q 34.8125 -21.578125 22.5625 -21.578125 
Q 13.140625 -21.578125 6.640625 -17.328125 
Q 2.984375 -14.890625 2.984375 -12.25 
Q 2.984375 -11.078125 3.515625 -9.90625 
Q 4.34375 -8.109375 6.9375 -4.890625 
Q 7.28125 -4.4375 11.921875 0.390625 
Q 9.375 1.90625 8.328125 3.09375 
Q 7.28125 4.296875 7.28125 5.8125 
Q 7.28125 7.515625 8.671875 9.8125 
Q 10.0625 12.109375 15.09375 16.3125 
z
M 23.578125 43.703125 
Q 19.96875 43.703125 17.53125 40.8125 
Q 15.09375 37.9375 15.09375 31.984375 
Q 15.09375 24.265625 18.40625 20.015625 
Q 20.953125 16.796875 24.859375 16.796875 
Q 28.5625 16.796875 30.953125 19.578125 
Q 33.34375 22.359375 33.34375 28.328125 
Q 33.34375 36.078125 29.984375 40.484375 
Q 27.484375 43.703125 23.578125 43.703125 
z
M 14.59375 0 
Q 12.3125 -2.484375 11.140625 -4.625 
Q 9.96875 -6.78125 9.96875 -8.59375 
Q 9.96875 -10.9375 12.796875 -12.703125 
Q 17.671875 -15.71875 26.90625 -15.71875 
Q 35.6875 -15.71875 39.859375 -12.609375 
Q 44.046875 -9.515625 44.046875 -6 
Q 44.046875 -3.46875 41.546875 -2.390625 
Q 39.015625 -1.3125 31.5 -1.125 
Q 20.515625 -0.828125 14.59375 0 
z
" id="TimesNewRomanPSMT-103"/>
      <path d="M 18.5 69.4375 
L 18.5 10.109375 
Q 18.5 5.90625 19.109375 4.53125 
Q 19.734375 3.171875 21 2.46875 
Q 22.265625 1.765625 25.734375 1.765625 
L 25.734375 0 
L 3.8125 0 
L 3.8125 1.765625 
Q 6.890625 1.765625 8 2.390625 
Q 9.125 3.03125 9.765625 4.484375 
Q 10.40625 5.953125 10.40625 10.109375 
L 10.40625 50.734375 
Q 10.40625 58.296875 10.0625 60.03125 
Q 9.71875 61.765625 8.953125 62.390625 
Q 8.203125 63.03125 7.03125 63.03125 
Q 5.765625 63.03125 3.8125 62.25 
L 2.984375 63.96875 
L 16.3125 69.4375 
z
" id="TimesNewRomanPSMT-108"/>
      <path d="M 10.640625 27.875 
Q 10.59375 17.921875 15.484375 12.25 
Q 20.359375 6.59375 26.953125 6.59375 
Q 31.34375 6.59375 34.59375 9 
Q 37.84375 11.421875 40.046875 17.28125 
L 41.546875 16.3125 
Q 40.53125 9.625 35.59375 4.125 
Q 30.671875 -1.375 23.25 -1.375 
Q 15.1875 -1.375 9.453125 4.90625 
Q 3.71875 11.1875 3.71875 21.78125 
Q 3.71875 33.25 9.59375 39.671875 
Q 15.484375 46.09375 24.359375 46.09375 
Q 31.890625 46.09375 36.71875 41.140625 
Q 41.546875 36.1875 41.546875 27.875 
z
M 10.640625 30.71875 
L 31.34375 30.71875 
Q 31.109375 35.015625 30.328125 36.765625 
Q 29.109375 39.5 26.6875 41.0625 
Q 24.265625 42.625 21.625 42.625 
Q 17.578125 42.625 14.375 39.46875 
Q 11.1875 36.328125 10.640625 30.71875 
z
" id="TimesNewRomanPSMT-101"/>
      <path id="TimesNewRomanPSMT-32"/>
      <path d="M 1.703125 0 
L 1.703125 1.8125 
L 4.203125 1.8125 
Q 8.40625 1.8125 10.15625 4.5 
Q 11.234375 6.109375 11.234375 11.71875 
L 11.234375 54.5 
Q 11.234375 60.6875 9.859375 62.25 
Q 7.953125 64.40625 4.203125 64.40625 
L 1.703125 64.40625 
L 1.703125 66.21875 
L 28.65625 66.21875 
Q 43.5 66.21875 51.234375 62.84375 
Q 58.984375 59.46875 63.6875 51.609375 
Q 68.40625 43.75 68.40625 33.453125 
Q 68.40625 19.625 60.015625 10.359375 
Q 50.59375 0 31.296875 0 
z
M 20.609375 4.78125 
Q 26.8125 3.421875 31 3.421875 
Q 42.328125 3.421875 49.796875 11.375 
Q 57.28125 19.34375 57.28125 32.953125 
Q 57.28125 46.6875 49.796875 54.59375 
Q 42.328125 62.5 30.609375 62.5 
Q 26.21875 62.5 20.609375 61.078125 
z
" id="TimesNewRomanPSMT-68"/>
      <path d="M 14.5 69.4375 
Q 16.546875 69.4375 17.984375 67.984375 
Q 19.4375 66.546875 19.4375 64.5 
Q 19.4375 62.453125 17.984375 60.984375 
Q 16.546875 59.515625 14.5 59.515625 
Q 12.453125 59.515625 10.984375 60.984375 
Q 9.515625 62.453125 9.515625 64.5 
Q 9.515625 66.546875 10.953125 67.984375 
Q 12.40625 69.4375 14.5 69.4375 
z
M 18.5625 46.046875 
L 18.5625 10.109375 
Q 18.5625 5.90625 19.171875 4.515625 
Q 19.78125 3.125 20.96875 2.4375 
Q 22.171875 1.765625 25.34375 1.765625 
L 25.34375 0 
L 3.609375 0 
L 3.609375 1.765625 
Q 6.890625 1.765625 8 2.390625 
Q 9.125 3.03125 9.78125 4.484375 
Q 10.453125 5.953125 10.453125 10.109375 
L 10.453125 27.34375 
Q 10.453125 34.625 10.015625 36.765625 
Q 9.671875 38.328125 8.9375 38.9375 
Q 8.203125 39.546875 6.9375 39.546875 
Q 5.5625 39.546875 3.609375 38.8125 
L 2.9375 40.578125 
L 16.40625 46.046875 
z
" id="TimesNewRomanPSMT-105"/>
      <path d="M 20.609375 41.21875 
L 20.609375 11.8125 
Q 20.609375 5.5625 21.96875 3.90625 
Q 23.78125 1.765625 26.8125 1.765625 
L 30.859375 1.765625 
L 30.859375 0 
L 4.15625 0 
L 4.15625 1.765625 
L 6.15625 1.765625 
Q 8.109375 1.765625 9.71875 2.734375 
Q 11.328125 3.71875 11.9375 5.375 
Q 12.546875 7.03125 12.546875 11.8125 
L 12.546875 41.21875 
L 3.859375 41.21875 
L 3.859375 44.734375 
L 12.546875 44.734375 
L 12.546875 47.65625 
Q 12.546875 54.34375 14.6875 58.984375 
Q 16.84375 63.625 21.265625 66.484375 
Q 25.6875 69.34375 31.203125 69.34375 
Q 36.328125 69.34375 40.625 66.015625 
Q 43.453125 63.8125 43.453125 61.078125 
Q 43.453125 59.625 42.1875 58.328125 
Q 40.921875 57.03125 39.453125 57.03125 
Q 38.328125 57.03125 37.078125 57.828125 
Q 35.84375 58.640625 34.03125 61.296875 
Q 32.234375 63.96875 30.71875 64.890625 
Q 29.203125 65.828125 27.34375 65.828125 
Q 25.09375 65.828125 23.53125 64.625 
Q 21.96875 63.421875 21.28125 60.90625 
Q 20.609375 58.40625 20.609375 47.953125 
L 20.609375 44.734375 
L 32.125 44.734375 
L 32.125 41.21875 
z
" id="TimesNewRomanPSMT-102"/>
      <path d="M 16.21875 46.046875 
L 16.21875 35.984375 
Q 21.828125 46.046875 27.734375 46.046875 
Q 30.421875 46.046875 32.171875 44.40625 
Q 33.9375 42.78125 33.9375 40.625 
Q 33.9375 38.71875 32.65625 37.390625 
Q 31.390625 36.078125 29.640625 36.078125 
Q 27.9375 36.078125 25.8125 37.765625 
Q 23.6875 39.453125 22.65625 39.453125 
Q 21.78125 39.453125 20.75 38.484375 
Q 18.5625 36.46875 16.21875 31.890625 
L 16.21875 10.453125 
Q 16.21875 6.734375 17.140625 4.828125 
Q 17.78125 3.515625 19.390625 2.640625 
Q 21 1.765625 24.03125 1.765625 
L 24.03125 0 
L 1.125 0 
L 1.125 1.765625 
Q 4.546875 1.765625 6.203125 2.828125 
Q 7.421875 3.609375 7.90625 5.328125 
Q 8.15625 6.15625 8.15625 10.0625 
L 8.15625 27.390625 
Q 8.15625 35.203125 7.828125 36.6875 
Q 7.515625 38.1875 6.65625 38.859375 
Q 5.8125 39.546875 4.546875 39.546875 
Q 3.03125 39.546875 1.125 38.8125 
L 0.640625 40.578125 
L 14.15625 46.046875 
z
" id="TimesNewRomanPSMT-114"/>
      <path d="M 41.109375 17 
Q 39.3125 8.15625 34.03125 3.390625 
Q 28.765625 -1.375 22.359375 -1.375 
Q 14.75 -1.375 9.078125 5.015625 
Q 3.421875 11.421875 3.421875 22.3125 
Q 3.421875 32.859375 9.6875 39.453125 
Q 15.96875 46.046875 24.75 46.046875 
Q 31.34375 46.046875 35.59375 42.546875 
Q 39.84375 39.0625 39.84375 35.296875 
Q 39.84375 33.453125 38.640625 32.296875 
Q 37.453125 31.15625 35.296875 31.15625 
Q 32.421875 31.15625 30.953125 33.015625 
Q 30.125 34.03125 29.859375 36.90625 
Q 29.59375 39.796875 27.875 41.3125 
Q 26.171875 42.78125 23.140625 42.78125 
Q 18.265625 42.78125 15.28125 39.15625 
Q 11.328125 34.375 11.328125 26.515625 
Q 11.328125 18.5 15.25 12.375 
Q 19.1875 6.25 25.875 6.25 
Q 30.671875 6.25 34.46875 9.515625 
Q 37.15625 11.765625 39.703125 17.671875 
z
" id="TimesNewRomanPSMT-99"/>
     </defs>
     <g transform="translate(175.54625 329.2865)scale(0.16 -0.16)">
      <use xlink:href="#TimesNewRomanPSMT-65"/>
      <use x="72.216797" xlink:href="#TimesNewRomanPSMT-110"/>
      <use x="122.216797" xlink:href="#TimesNewRomanPSMT-103"/>
      <use x="172.216797" xlink:href="#TimesNewRomanPSMT-108"/>
      <use x="200" xlink:href="#TimesNewRomanPSMT-101"/>
      <use x="244.384766" xlink:href="#TimesNewRomanPSMT-32"/>
      <use x="269.384766" xlink:href="#TimesNewRomanPSMT-68"/>
      <use x="341.601562" xlink:href="#TimesNewRomanPSMT-105"/>
      <use x="369.384766" xlink:href="#TimesNewRomanPSMT-102"/>
      <use x="402.669922" xlink:href="#TimesNewRomanPSMT-102"/>
      <use x="435.970703" xlink:href="#TimesNewRomanPSMT-101"/>
      <use x="480.355469" xlink:href="#TimesNewRomanPSMT-114"/>
      <use x="513.65625" xlink:href="#TimesNewRomanPSMT-101"/>
      <use x="558.041016" xlink:href="#TimesNewRomanPSMT-110"/>
      <use x="608.041016" xlink:href="#TimesNewRomanPSMT-99"/>
      <use x="652.425781" xlink:href="#TimesNewRomanPSMT-101"/>
     </g>
    </g>
   </g>
   <g id="matplotlib.axis_2">
    <g id="ytick_1">
     <g id="line2d_21">
      <path clip-path="url(#pac81b371a2)" d="M 52.7325 292.644 
L 409.8525 292.644 
" style="fill:none;stroke:#b0b0b0;stroke-linecap:square;stroke-width:0.8;"/>
     </g>
     <g id="line2d_22">
      <defs>
       <path d="M 0 0 
L -3.5 0 
" id="ma1c13fd8b5" style="stroke:#000000;stroke-width:0.8;"/>
      </defs>
      <g>
       <use style="stroke:#000000;stroke-width:0.8;" x="52.7325" xlink:href="#ma1c13fd8b5" y="292.644"/>
      </g>
     </g>
     <g id="text_12">
      <!-- 0.0 -->
      <g transform="translate(25.7325 298.199)scale(0.16 -0.16)">
       <use xlink:href="#TimesNewRomanPSMT-48"/>
       <use x="50" xlink:href="#TimesNewRomanPSMT-46"/>
       <use x="75" xlink:href="#TimesNewRomanPSMT-48"/>
      </g>
     </g>
    </g>
    <g id="ytick_2">
     <g id="line2d_23">
      <path clip-path="url(#pac81b371a2)" d="M 52.7325 266.0328 
L 409.8525 266.0328 
" style="fill:none;stroke:#b0b0b0;stroke-linecap:square;stroke-width:0.8;"/>
     </g>
     <g id="line2d_24">
      <g>
       <use style="stroke:#000000;stroke-width:0.8;" x="52.7325" xlink:href="#ma1c13fd8b5" y="266.0328"/>
      </g>
     </g>
     <g id="text_13">
      <!-- 0.1 -->
      <g transform="translate(25.7325 271.5878)scale(0.16 -0.16)">
       <use xlink:href="#TimesNewRomanPSMT-48"/>
       <use x="50" xlink:href="#TimesNewRomanPSMT-46"/>
       <use x="75" xlink:href="#TimesNewRomanPSMT-49"/>
      </g>
     </g>
    </g>
    <g id="ytick_3">
     <g id="line2d_25">
      <path clip-path="url(#pac81b371a2)" d="M 52.7325 239.4216 
L 409.8525 239.4216 
" style="fill:none;stroke:#b0b0b0;stroke-linecap:square;stroke-width:0.8;"/>
     </g>
     <g id="line2d_26">
      <g>
       <use style="stroke:#000000;stroke-width:0.8;" x="52.7325" xlink:href="#ma1c13fd8b5" y="239.4216"/>
      </g>
     </g>
     <g id="text_14">
      <!-- 0.2 -->
      <g transform="translate(25.7325 244.9766)scale(0.16 -0.16)">
       <use xlink:href="#TimesNewRomanPSMT-48"/>
       <use x="50" xlink:href="#TimesNewRomanPSMT-46"/>
       <use x="75" xlink:href="#TimesNewRomanPSMT-50"/>
      </g>
     </g>
    </g>
    <g id="ytick_4">
     <g id="line2d_27">
      <path clip-path="url(#pac81b371a2)" d="M 52.7325 212.8104 
L 409.8525 212.8104 
" style="fill:none;stroke:#b0b0b0;stroke-linecap:square;stroke-width:0.8;"/>
     </g>
     <g id="line2d_28">
      <g>
       <use style="stroke:#000000;stroke-width:0.8;" x="52.7325" xlink:href="#ma1c13fd8b5" y="212.8104"/>
      </g>
     </g>
     <g id="text_15">
      <!-- 0.3 -->
      <g transform="translate(25.7325 218.3654)scale(0.16 -0.16)">
       <use xlink:href="#TimesNewRomanPSMT-48"/>
       <use x="50" xlink:href="#TimesNewRomanPSMT-46"/>
       <use x="75" xlink:href="#TimesNewRomanPSMT-51"/>
      </g>
     </g>
    </g>
    <g id="ytick_5">
     <g id="line2d_29">
      <path clip-path="url(#pac81b371a2)" d="M 52.7325 186.1992 
L 409.8525 186.1992 
" style="fill:none;stroke:#b0b0b0;stroke-linecap:square;stroke-width:0.8;"/>
     </g>
     <g id="line2d_30">
      <g>
       <use style="stroke:#000000;stroke-width:0.8;" x="52.7325" xlink:href="#ma1c13fd8b5" y="186.1992"/>
      </g>
     </g>
     <g id="text_16">
      <!-- 0.4 -->
      <g transform="translate(25.7325 191.7542)scale(0.16 -0.16)">
       <use xlink:href="#TimesNewRomanPSMT-48"/>
       <use x="50" xlink:href="#TimesNewRomanPSMT-46"/>
       <use x="75" xlink:href="#TimesNewRomanPSMT-52"/>
      </g>
     </g>
    </g>
    <g id="ytick_6">
     <g id="line2d_31">
      <path clip-path="url(#pac81b371a2)" d="M 52.7325 159.588 
L 409.8525 159.588 
" style="fill:none;stroke:#b0b0b0;stroke-linecap:square;stroke-width:0.8;"/>
     </g>
     <g id="line2d_32">
      <g>
       <use style="stroke:#000000;stroke-width:0.8;" x="52.7325" xlink:href="#ma1c13fd8b5" y="159.588"/>
      </g>
     </g>
     <g id="text_17">
      <!-- 0.5 -->
      <defs>
       <path d="M 43.40625 66.21875 
L 39.59375 57.90625 
L 19.671875 57.90625 
L 15.328125 49.03125 
Q 28.265625 47.125 35.84375 39.40625 
Q 42.328125 32.765625 42.328125 23.78125 
Q 42.328125 18.5625 40.203125 14.109375 
Q 38.09375 9.671875 34.859375 6.546875 
Q 31.640625 3.421875 27.6875 1.515625 
Q 22.078125 -1.171875 16.15625 -1.171875 
Q 10.203125 -1.171875 7.484375 0.84375 
Q 4.78125 2.875 4.78125 5.328125 
Q 4.78125 6.6875 5.90625 7.734375 
Q 7.03125 8.796875 8.734375 8.796875 
Q 10.015625 8.796875 10.96875 8.40625 
Q 11.921875 8.015625 14.203125 6.390625 
Q 17.875 3.859375 21.625 3.859375 
Q 27.34375 3.859375 31.65625 8.171875 
Q 35.984375 12.5 35.984375 18.703125 
Q 35.984375 24.703125 32.125 29.90625 
Q 28.265625 35.109375 21.484375 37.9375 
Q 16.15625 40.140625 6.984375 40.484375 
L 19.671875 66.21875 
z
" id="TimesNewRomanPSMT-53"/>
      </defs>
      <g transform="translate(25.7325 165.143)scale(0.16 -0.16)">
       <use xlink:href="#TimesNewRomanPSMT-48"/>
       <use x="50" xlink:href="#TimesNewRomanPSMT-46"/>
       <use x="75" xlink:href="#TimesNewRomanPSMT-53"/>
      </g>
     </g>
    </g>
    <g id="ytick_7">
     <g id="line2d_33">
      <path clip-path="url(#pac81b371a2)" d="M 52.7325 132.9768 
L 409.8525 132.9768 
" style="fill:none;stroke:#b0b0b0;stroke-linecap:square;stroke-width:0.8;"/>
     </g>
     <g id="line2d_34">
      <g>
       <use style="stroke:#000000;stroke-width:0.8;" x="52.7325" xlink:href="#ma1c13fd8b5" y="132.9768"/>
      </g>
     </g>
     <g id="text_18">
      <!-- 0.6 -->
      <g transform="translate(25.7325 138.5318)scale(0.16 -0.16)">
       <use xlink:href="#TimesNewRomanPSMT-48"/>
       <use x="50" xlink:href="#TimesNewRomanPSMT-46"/>
       <use x="75" xlink:href="#TimesNewRomanPSMT-54"/>
      </g>
     </g>
    </g>
    <g id="ytick_8">
     <g id="line2d_35">
      <path clip-path="url(#pac81b371a2)" d="M 52.7325 106.3656 
L 409.8525 106.3656 
" style="fill:none;stroke:#b0b0b0;stroke-linecap:square;stroke-width:0.8;"/>
     </g>
     <g id="line2d_36">
      <g>
       <use style="stroke:#000000;stroke-width:0.8;" x="52.7325" xlink:href="#ma1c13fd8b5" y="106.3656"/>
      </g>
     </g>
     <g id="text_19">
      <!-- 0.7 -->
      <g transform="translate(25.7325 111.9206)scale(0.16 -0.16)">
       <use xlink:href="#TimesNewRomanPSMT-48"/>
       <use x="50" xlink:href="#TimesNewRomanPSMT-46"/>
       <use x="75" xlink:href="#TimesNewRomanPSMT-55"/>
      </g>
     </g>
    </g>
    <g id="ytick_9">
     <g id="line2d_37">
      <path clip-path="url(#pac81b371a2)" d="M 52.7325 79.7544 
L 409.8525 79.7544 
" style="fill:none;stroke:#b0b0b0;stroke-linecap:square;stroke-width:0.8;"/>
     </g>
     <g id="line2d_38">
      <g>
       <use style="stroke:#000000;stroke-width:0.8;" x="52.7325" xlink:href="#ma1c13fd8b5" y="79.7544"/>
      </g>
     </g>
     <g id="text_20">
      <!-- 0.8 -->
      <g transform="translate(25.7325 85.3094)scale(0.16 -0.16)">
       <use xlink:href="#TimesNewRomanPSMT-48"/>
       <use x="50" xlink:href="#TimesNewRomanPSMT-46"/>
       <use x="75" xlink:href="#TimesNewRomanPSMT-56"/>
      </g>
     </g>
    </g>
    <g id="ytick_10">
     <g id="line2d_39">
      <path clip-path="url(#pac81b371a2)" d="M 52.7325 53.1432 
L 409.8525 53.1432 
" style="fill:none;stroke:#b0b0b0;stroke-linecap:square;stroke-width:0.8;"/>
     </g>
     <g id="line2d_40">
      <g>
       <use style="stroke:#000000;stroke-width:0.8;" x="52.7325" xlink:href="#ma1c13fd8b5" y="53.1432"/>
      </g>
     </g>
     <g id="text_21">
      <!-- 0.9 -->
      <g transform="translate(25.7325 58.6982)scale(0.16 -0.16)">
       <use xlink:href="#TimesNewRomanPSMT-48"/>
       <use x="50" xlink:href="#TimesNewRomanPSMT-46"/>
       <use x="75" xlink:href="#TimesNewRomanPSMT-57"/>
      </g>
     </g>
    </g>
    <g id="text_22">
     <!-- Percentage -->
     <defs>
      <path d="M 20.515625 31 
L 20.515625 11.71875 
Q 20.515625 5.46875 21.875 3.953125 
Q 23.734375 1.8125 27.484375 1.8125 
L 30.03125 1.8125 
L 30.03125 0 
L 1.65625 0 
L 1.65625 1.8125 
L 4.15625 1.8125 
Q 8.34375 1.8125 10.15625 4.546875 
Q 11.140625 6.0625 11.140625 11.71875 
L 11.140625 54.5 
Q 11.140625 60.75 9.8125 62.25 
Q 7.90625 64.40625 4.15625 64.40625 
L 1.65625 64.40625 
L 1.65625 66.21875 
L 25.921875 66.21875 
Q 34.8125 66.21875 39.9375 64.375 
Q 45.0625 62.546875 48.578125 58.203125 
Q 52.09375 53.859375 52.09375 47.90625 
Q 52.09375 39.796875 46.75 34.71875 
Q 41.40625 29.640625 31.640625 29.640625 
Q 29.25 29.640625 26.46875 29.984375 
Q 23.6875 30.328125 20.515625 31 
z
M 20.515625 33.796875 
Q 23.09375 33.296875 25.09375 33.046875 
Q 27.09375 32.8125 28.515625 32.8125 
Q 33.59375 32.8125 37.28125 36.734375 
Q 40.96875 40.671875 40.96875 46.921875 
Q 40.96875 51.21875 39.203125 54.90625 
Q 37.453125 58.59375 34.21875 60.421875 
Q 31 62.25 26.90625 62.25 
Q 24.421875 62.25 20.515625 61.328125 
z
" id="TimesNewRomanPSMT-80"/>
      <path d="M 16.109375 59.421875 
L 16.109375 44.734375 
L 26.5625 44.734375 
L 26.5625 41.3125 
L 16.109375 41.3125 
L 16.109375 12.3125 
Q 16.109375 7.953125 17.359375 6.4375 
Q 18.609375 4.9375 20.5625 4.9375 
Q 22.171875 4.9375 23.6875 5.9375 
Q 25.203125 6.9375 26.03125 8.890625 
L 27.9375 8.890625 
Q 26.21875 4.109375 23.09375 1.6875 
Q 19.96875 -0.734375 16.65625 -0.734375 
Q 14.40625 -0.734375 12.25 0.515625 
Q 10.109375 1.765625 9.078125 4.078125 
Q 8.0625 6.390625 8.0625 11.234375 
L 8.0625 41.3125 
L 0.984375 41.3125 
L 0.984375 42.921875 
Q 3.65625 44 6.46875 46.5625 
Q 9.28125 49.125 11.46875 52.640625 
Q 12.59375 54.5 14.59375 59.421875 
z
" id="TimesNewRomanPSMT-116"/>
      <path d="M 28.46875 6.453125 
Q 21.578125 1.125 19.828125 0.296875 
Q 17.1875 -0.921875 14.203125 -0.921875 
Q 9.578125 -0.921875 6.5625 2.25 
Q 3.5625 5.421875 3.5625 10.59375 
Q 3.5625 13.875 5.03125 16.265625 
Q 7.03125 19.578125 11.984375 22.5 
Q 16.9375 25.4375 28.46875 29.640625 
L 28.46875 31.390625 
Q 28.46875 38.09375 26.34375 40.578125 
Q 24.21875 43.0625 20.171875 43.0625 
Q 17.09375 43.0625 15.28125 41.40625 
Q 13.421875 39.75 13.421875 37.59375 
L 13.53125 34.765625 
Q 13.53125 32.515625 12.375 31.296875 
Q 11.234375 30.078125 9.375 30.078125 
Q 7.5625 30.078125 6.421875 31.34375 
Q 5.28125 32.625 5.28125 34.8125 
Q 5.28125 39.015625 9.578125 42.53125 
Q 13.875 46.046875 21.625 46.046875 
Q 27.59375 46.046875 31.390625 44.046875 
Q 34.28125 42.53125 35.640625 39.3125 
Q 36.53125 37.203125 36.53125 30.71875 
L 36.53125 15.53125 
Q 36.53125 9.125 36.765625 7.6875 
Q 37.015625 6.25 37.578125 5.765625 
Q 38.140625 5.28125 38.875 5.28125 
Q 39.65625 5.28125 40.234375 5.609375 
Q 41.265625 6.25 44.1875 9.1875 
L 44.1875 6.453125 
Q 38.71875 -0.875 33.734375 -0.875 
Q 31.34375 -0.875 29.921875 0.78125 
Q 28.515625 2.4375 28.46875 6.453125 
z
M 28.46875 9.625 
L 28.46875 26.65625 
Q 21.09375 23.734375 18.953125 22.515625 
Q 15.09375 20.359375 13.421875 18.015625 
Q 11.765625 15.671875 11.765625 12.890625 
Q 11.765625 9.375 13.859375 7.046875 
Q 15.96875 4.734375 18.703125 4.734375 
Q 22.40625 4.734375 28.46875 9.625 
z
" id="TimesNewRomanPSMT-97"/>
     </defs>
     <g transform="translate(18.28 194.67925)rotate(-90)scale(0.16 -0.16)">
      <use xlink:href="#TimesNewRomanPSMT-80"/>
      <use x="55.615234" xlink:href="#TimesNewRomanPSMT-101"/>
      <use x="100" xlink:href="#TimesNewRomanPSMT-114"/>
      <use x="133.300781" xlink:href="#TimesNewRomanPSMT-99"/>
      <use x="177.685547" xlink:href="#TimesNewRomanPSMT-101"/>
      <use x="222.070312" xlink:href="#TimesNewRomanPSMT-110"/>
      <use x="272.070312" xlink:href="#TimesNewRomanPSMT-116"/>
      <use x="299.853516" xlink:href="#TimesNewRomanPSMT-97"/>
      <use x="344.238281" xlink:href="#TimesNewRomanPSMT-103"/>
      <use x="394.238281" xlink:href="#TimesNewRomanPSMT-101"/>
     </g>
    </g>
   </g>
   <g id="line2d_41">
    <path clip-path="url(#pac81b371a2)" d="M 53.567362 291.67632 
L 54.709534 290.70864 
L 55.513405 289.74096 
L 56.033841 284.90256 
L 56.279645 282.9672 
L 56.405873 281.03184 
L 56.510995 280.06416 
L 56.932551 279.09648 
L 56.999147 278.1288 
L 57.337731 277.16112 
L 57.569905 274.25808 
L 58.053286 272.32272 
L 58.400943 271.35504 
L 58.537799 270.38736 
L 58.643219 268.452 
L 58.805424 266.51664 
L 59.043677 264.58128 
L 59.409377 263.6136 
L 60.153946 262.64592 
L 60.216311 261.67824 
L 60.511718 259.74288 
L 60.86798 254.90448 
L 60.98015 253.9368 
L 61.702754 252.00144 
L 61.775022 250.06608 
L 62.232104 249.0984 
L 62.386555 246.19536 
L 62.874264 245.22768 
L 62.887456 244.26 
L 63.271181 243.29232 
L 63.272188 242.32464 
L 63.672208 239.4216 
L 64.308628 237.48624 
L 64.467693 236.51856 
L 64.530766 234.5832 
L 64.849106 232.64784 
L 64.955655 231.68016 
L 65.194798 230.71248 
L 65.242164 228.77712 
L 66.565051 217.16496 
L 66.683978 213.29424 
L 67.013223 209.42352 
L 67.018052 208.45584 
L 67.221065 207.48816 
L 67.31431 205.5528 
L 67.618431 204.58512 
L 67.7891 202.64976 
L 68.378266 198.77904 
L 68.903496 196.84368 
L 68.968469 195.876 
L 69.622381 194.90832 
L 69.707266 192.97296 
L 69.974501 192.00528 
L 70.145991 190.06992 
L 70.401916 189.10224 
L 70.560881 186.1992 
L 70.895046 184.26384 
L 71.717494 183.29616 
L 71.952174 181.3608 
L 72.488024 180.39312 
L 72.571552 179.42544 
L 72.960822 177.49008 
L 73.127904 176.5224 
L 73.770867 174.58704 
L 73.77337 173.61936 
L 74.385022 172.65168 
L 75.134684 171.684 
L 75.905706 164.91024 
L 76.597538 162.97488 
L 78.336106 162.0072 
L 78.61169 159.10416 
L 79.784499 156.20112 
L 79.798422 155.23344 
L 80.251581 152.3304 
L 80.552259 149.42736 
L 81.215638 147.492 
L 81.395279 145.55664 
L 81.905492 144.58896 
L 82.040686 143.62128 
L 82.476791 142.6536 
L 82.486417 141.68592 
L 83.01543 140.71824 
L 83.125395 138.78288 
L 83.827876 136.84752 
L 84.031673 135.87984 
L 84.0474 134.91216 
L 84.835943 132.9768 
L 84.842204 132.00912 
L 84.987635 131.04144 
L 85.420127 130.07376 
L 85.555139 129.10608 
L 86.092068 128.1384 
L 86.147903 127.17072 
L 86.332872 126.20304 
L 86.698229 125.23536 
L 87.654922 124.26768 
L 87.849682 122.33232 
L 87.990264 121.36464 
L 88.390203 120.39696 
L 88.562781 119.42928 
L 88.986694 118.4616 
L 89.100835 116.52624 
L 89.167455 115.55856 
L 89.421829 114.59088 
L 90.279491 113.6232 
L 90.74302 112.65552 
L 91.824242 111.68784 
L 92.423712 110.72016 
L 93.187297 109.75248 
L 93.585193 108.7848 
L 94.127535 107.81712 
L 94.869663 106.84944 
L 95.223096 103.9464 
L 96.021094 102.01104 
L 97.322919 100.07568 
L 99.076757 99.108 
L 99.505308 98.14032 
L 100.227421 95.23728 
L 101.05985 94.2696 
L 101.313627 92.33424 
L 101.533302 91.36656 
L 102.126291 90.39888 
L 102.201395 89.4312 
L 102.955231 88.46352 
L 103.461758 85.56048 
L 103.915081 84.5928 
L 106.296621 83.62512 
L 106.39281 81.68976 
L 107.799893 80.72208 
L 107.877797 79.7544 
L 108.82718 78.78672 
L 109.089188 76.85136 
L 111.80121 75.88368 
L 111.973374 74.916 
L 113.464533 73.94832 
L 116.196634 72.98064 
L 116.73131 72.01296 
L 117.598499 71.04528 
L 118.98553 70.0776 
L 119.244871 69.10992 
L 122.073137 68.14224 
L 123.573497 67.17456 
L 127.592741 66.20688 
L 128.83031 64.27152 
L 131.784143 63.30384 
L 132.765581 62.33616 
L 133.896903 60.4008 
L 134.338737 59.43312 
L 135.681174 58.46544 
L 135.740722 57.49776 
L 136.435188 56.53008 
L 139.361727 55.5624 
L 140.004008 54.59472 
L 144.218151 53.62704 
L 144.271236 52.65936 
L 148.385165 51.69168 
L 151.825463 50.724 
L 153.412766 49.75632 
L 155.303296 47.82096 
L 163.433087 46.85328 
L 164.643108 45.8856 
L 176.1629 44.91792 
L 177.208231 43.95024 
L 178.72629 42.98256 
L 183.759117 42.01488 
L 185.455713 41.0472 
L 191.979013 40.07952 
L 204.772183 39.11184 
L 209.115301 38.14416 
L 227.984306 37.17648 
L 233.276126 36.2088 
L 247.598321 35.24112 
L 280.671958 34.27344 
L 371.646249 33.30576 
L 418.0525 32.513425 
L 418.0525 32.513425 
" style="fill:none;stroke:#1f77b4;stroke-linecap:square;stroke-width:1.5;"/>
   </g>
   <g id="line2d_42">
    <path clip-path="url(#pac81b371a2)" d="M 55.299433 291.67632 
L 56.467042 290.70864 
L 57.344944 289.74096 
L 57.62172 287.8056 
L 58.137961 286.83792 
L 58.451006 282.9672 
L 58.589103 281.03184 
L 59.008178 280.06416 
L 59.191168 278.1288 
L 59.474922 277.16112 
L 60.007238 272.32272 
L 60.170109 270.38736 
L 60.482648 268.452 
L 60.844993 266.51664 
L 60.930572 265.54896 
L 61.241499 264.58128 
L 61.292287 262.64592 
L 61.815286 260.71056 
L 61.822934 259.74288 
L 62.707912 258.7752 
L 63.076389 256.83984 
L 63.284446 255.87216 
L 64.232102 254.90448 
L 65.021154 252.00144 
L 65.068563 250.06608 
L 65.507973 248.13072 
L 65.581317 247.16304 
L 65.799594 246.19536 
L 66.31593 245.22768 
L 66.54767 244.26 
L 66.844316 241.35696 
L 67.629002 239.4216 
L 67.718466 238.45392 
L 68.594986 235.55088 
L 68.958589 234.5832 
L 68.973687 233.61552 
L 69.331436 232.64784 
L 69.601192 230.71248 
L 70.126962 229.7448 
L 70.260855 227.80944 
L 70.669278 225.87408 
L 71.036297 221.03568 
L 72.473841 219.10032 
L 73.445527 218.13264 
L 73.700826 217.16496 
L 74.07841 214.26192 
L 75.560543 213.29424 
L 75.992471 212.32656 
L 75.9957 211.35888 
L 77.426209 210.3912 
L 78.386584 209.42352 
L 78.88094 206.52048 
L 79.103131 205.5528 
L 79.520702 204.58512 
L 80.292409 203.61744 
L 80.670696 199.74672 
L 80.802488 198.77904 
L 81.095748 197.81136 
L 81.558409 194.90832 
L 82.808501 193.94064 
L 82.906253 192.97296 
L 83.350211 192.00528 
L 83.543926 191.0376 
L 83.61308 190.06992 
L 84.739519 189.10224 
L 85.105106 188.13456 
L 85.160593 187.16688 
L 85.713297 186.1992 
L 86.317215 182.32848 
L 86.774483 181.3608 
L 86.795516 180.39312 
L 88.178504 179.42544 
L 88.37527 178.45776 
L 89.552961 177.49008 
L 90.536328 176.5224 
L 91.304612 175.55472 
L 91.577776 174.58704 
L 92.021622 173.61936 
L 92.397428 171.684 
L 93.134993 169.74864 
L 94.938895 168.78096 
L 95.40053 167.81328 
L 95.409223 165.87792 
L 95.843878 164.91024 
L 97.724382 163.94256 
L 98.348209 162.97488 
L 98.393002 162.0072 
L 98.90138 161.03952 
L 98.956933 160.07184 
L 99.265523 159.10416 
L 100.124404 158.13648 
L 101.364672 157.1688 
L 103.164767 156.20112 
L 103.217122 155.23344 
L 103.771529 154.26576 
L 104.071375 152.3304 
L 106.710751 151.36272 
L 108.562221 150.39504 
L 109.308011 149.42736 
L 110.594887 148.45968 
L 111.659642 147.492 
L 112.921184 145.55664 
L 114.902959 144.58896 
L 117.172299 143.62128 
L 118.054407 142.6536 
L 119.135697 141.68592 
L 120.593761 140.71824 
L 121.719916 139.75056 
L 124.227672 138.78288 
L 125.352653 137.8152 
L 126.234661 136.84752 
L 128.014357 135.87984 
L 129.051785 134.91216 
L 132.418297 133.94448 
L 134.897889 132.9768 
L 135.298741 132.00912 
L 147.500755 131.04144 
L 148.373316 130.07376 
L 149.476441 129.10608 
L 150.193837 128.1384 
L 154.007476 127.17072 
L 154.709577 126.20304 
L 157.104601 125.23536 
L 158.044067 124.26768 
L 161.902131 123.3 
L 164.23652 122.33232 
L 167.474448 121.36464 
L 167.916131 120.39696 
L 169.719163 119.42928 
L 189.929709 118.4616 
L 192.659264 117.49392 
L 193.14413 116.52624 
L 197.735549 115.55856 
L 207.966235 114.59088 
L 209.443625 113.6232 
L 236.803058 111.68784 
L 237.18479 110.72016 
L 242.330569 109.75248 
L 242.527685 108.7848 
L 250.840906 107.81712 
L 268.313918 106.84944 
L 290.218297 105.88176 
L 301.9252 104.91408 
L 311.059704 103.9464 
L 322.653501 102.97872 
L 342.595197 102.01104 
L 358.20429 100.07568 
L 359.198031 99.108 
L 366.379605 98.14032 
L 407.951813 97.17264 
L 408.112215 96.20496 
L 418.0525 95.904341 
L 418.0525 95.904341 
" style="fill:none;stroke:#ff7f0e;stroke-linecap:square;stroke-width:1.5;"/>
   </g>
   <g id="line2d_43">
    <path clip-path="url(#pac81b371a2)" d="M 55.793572 291.67632 
L 55.886842 290.70864 
L 58.495242 289.74096 
L 58.860496 288.77328 
L 60.974675 287.8056 
L 61.022753 286.83792 
L 61.780464 285.87024 
L 64.227069 284.90256 
L 64.923784 283.93488 
L 68.222806 282.9672 
L 68.225829 281.99952 
L 68.501645 281.03184 
L 70.358843 280.06416 
L 70.41218 279.09648 
L 71.515431 278.1288 
L 72.316106 277.16112 
L 72.530354 276.19344 
L 73.298931 275.22576 
L 75.459027 273.2904 
L 75.962744 272.32272 
L 77.78851 271.35504 
L 78.117406 270.38736 
L 78.274214 269.41968 
L 78.764943 268.452 
L 80.186583 266.51664 
L 80.69562 265.54896 
L 80.890082 263.6136 
L 81.095648 262.64592 
L 81.53216 261.67824 
L 82.101865 259.74288 
L 82.559985 258.7752 
L 84.280962 257.80752 
L 84.434653 256.83984 
L 85.528964 255.87216 
L 85.675875 253.9368 
L 86.239323 251.03376 
L 86.891329 250.06608 
L 87.907871 249.0984 
L 88.023954 248.13072 
L 89.165039 247.16304 
L 89.451606 246.19536 
L 89.880565 245.22768 
L 90.566539 243.29232 
L 90.894441 242.32464 
L 91.575234 241.35696 
L 91.995964 240.38928 
L 92.745276 239.4216 
L 92.767559 238.45392 
L 93.354025 237.48624 
L 93.764719 236.51856 
L 94.32492 235.55088 
L 94.981996 232.64784 
L 95.419396 231.68016 
L 96.507316 230.71248 
L 97.157953 228.77712 
L 97.844494 227.80944 
L 98.533917 225.87408 
L 98.650205 224.9064 
L 99.81468 222.97104 
L 99.86109 222.00336 
L 100.21826 220.068 
L 100.535435 219.10032 
L 101.213898 218.13264 
L 101.483111 216.19728 
L 101.573261 215.2296 
L 102.780416 213.29424 
L 103.132439 211.35888 
L 103.860951 210.3912 
L 104.389468 209.42352 
L 104.52189 207.48816 
L 105.463816 206.52048 
L 106.142858 205.5528 
L 106.276041 204.58512 
L 106.675004 203.61744 
L 106.856243 202.64976 
L 108.301072 201.68208 
L 109.055079 198.77904 
L 109.705503 197.81136 
L 110.713699 196.84368 
L 110.944278 195.876 
L 112.300327 193.94064 
L 114.493006 192.97296 
L 115.067901 192.00528 
L 116.049885 191.0376 
L 116.516385 190.06992 
L 116.627532 189.10224 
L 117.194862 188.13456 
L 118.783863 187.16688 
L 118.93292 186.1992 
L 119.906282 185.23152 
L 121.028586 183.29616 
L 121.195836 182.32848 
L 121.664542 181.3608 
L 121.815804 180.39312 
L 122.569451 179.42544 
L 123.639181 178.45776 
L 124.280104 177.49008 
L 124.944289 175.55472 
L 125.969213 174.58704 
L 126.446442 171.684 
L 127.636453 170.71632 
L 127.963759 169.74864 
L 129.176424 168.78096 
L 129.769367 167.81328 
L 131.120366 166.8456 
L 131.358251 165.87792 
L 132.14892 164.91024 
L 132.426658 163.94256 
L 132.434312 162.97488 
L 133.989737 162.0072 
L 134.254765 161.03952 
L 135.192955 160.07184 
L 135.726306 159.10416 
L 136.555962 158.13648 
L 136.771808 157.1688 
L 136.818616 156.20112 
L 137.843535 155.23344 
L 139.585773 154.26576 
L 139.598547 152.3304 
L 139.769449 151.36272 
L 140.217025 150.39504 
L 140.492564 148.45968 
L 140.870058 147.492 
L 142.004566 146.52432 
L 142.744908 145.55664 
L 144.807195 143.62128 
L 145.793405 142.6536 
L 146.172456 141.68592 
L 149.490659 139.75056 
L 150.696903 138.78288 
L 151.527165 136.84752 
L 151.748489 135.87984 
L 155.525941 134.91216 
L 155.710018 133.94448 
L 155.758804 132.9768 
L 158.433669 131.04144 
L 158.502488 130.07376 
L 158.987862 129.10608 
L 159.001261 128.1384 
L 160.293704 127.17072 
L 161.246053 126.20304 
L 161.275257 125.23536 
L 162.2276 124.26768 
L 162.814113 123.3 
L 164.468919 121.36464 
L 164.858731 120.39696 
L 166.086458 119.42928 
L 166.766498 118.4616 
L 168.392035 117.49392 
L 169.144492 116.52624 
L 169.182949 115.55856 
L 169.708857 114.59088 
L 173.398769 113.6232 
L 173.850696 112.65552 
L 179.210356 111.68784 
L 179.616261 110.72016 
L 181.177685 109.75248 
L 182.258632 108.7848 
L 182.486871 107.81712 
L 182.537949 106.84944 
L 183.380402 105.88176 
L 191.693173 104.91408 
L 198.378757 102.97872 
L 200.540295 102.01104 
L 201.736469 101.04336 
L 202.560835 100.07568 
L 204.595869 99.108 
L 206.672749 97.17264 
L 206.875792 96.20496 
L 207.22465 95.23728 
L 207.428162 94.2696 
L 211.085767 92.33424 
L 211.236099 90.39888 
L 216.172405 89.4312 
L 217.813354 88.46352 
L 218.024827 87.49584 
L 220.192916 86.52816 
L 220.612155 84.5928 
L 225.139798 83.62512 
L 226.249174 82.65744 
L 227.553712 81.68976 
L 235.00066 80.72208 
L 235.124526 79.7544 
L 237.865658 78.78672 
L 239.733813 77.81904 
L 244.005886 76.85136 
L 249.727459 75.88368 
L 252.900769 74.916 
L 257.377829 73.94832 
L 266.718645 72.98064 
L 270.152006 72.01296 
L 271.247149 71.04528 
L 272.891946 70.0776 
L 275.418044 69.10992 
L 276.068584 68.14224 
L 277.282153 67.17456 
L 278.973521 65.2392 
L 279.694533 64.27152 
L 293.048938 63.30384 
L 297.392788 62.33616 
L 300.737612 61.36848 
L 301.463065 60.4008 
L 304.155904 59.43312 
L 304.653449 58.46544 
L 305.838492 57.49776 
L 306.472889 56.53008 
L 312.202298 55.5624 
L 312.871999 54.59472 
L 319.656472 53.62704 
L 323.576164 52.65936 
L 328.122106 51.69168 
L 329.123213 50.724 
L 329.305336 49.75632 
L 357.898712 48.78864 
L 360.206584 47.82096 
L 373.414213 46.85328 
L 410.354719 45.8856 
L 418.0525 45.376323 
L 418.0525 45.376323 
" style="fill:none;stroke:#2ca02c;stroke-linecap:square;stroke-width:1.5;"/>
   </g>
   <g id="line2d_44">
    <path clip-path="url(#pac81b371a2)" d="M 55.430366 291.67632 
L 57.864865 290.70864 
L 65.151641 289.74096 
L 65.962425 288.77328 
L 67.438828 287.8056 
L 69.44648 286.83792 
L 70.335281 285.87024 
L 70.453028 284.90256 
L 70.839988 283.93488 
L 71.608475 282.9672 
L 74.507422 281.99952 
L 75.526191 281.03184 
L 76.082042 280.06416 
L 76.377062 279.09648 
L 78.636538 278.1288 
L 79.724278 277.16112 
L 80.459071 276.19344 
L 80.633536 275.22576 
L 82.163101 274.25808 
L 82.867202 273.2904 
L 83.1306 272.32272 
L 83.968534 270.38736 
L 84.195191 269.41968 
L 84.903307 267.48432 
L 86.398502 265.54896 
L 87.13181 264.58128 
L 88.354506 263.6136 
L 88.596943 261.67824 
L 89.00059 260.71056 
L 89.148425 258.7752 
L 89.148425 257.80752 
L 89.347765 256.83984 
L 91.036478 255.87216 
L 91.059094 254.90448 
L 92.085408 253.9368 
L 92.309378 252.96912 
L 94.032296 252.00144 
L 94.478906 249.0984 
L 95.023367 248.13072 
L 95.09707 247.16304 
L 97.650661 245.22768 
L 98.947691 242.32464 
L 99.798664 240.38928 
L 101.281438 239.4216 
L 101.505831 238.45392 
L 103.165557 236.51856 
L 103.8381 235.55088 
L 103.844883 234.5832 
L 104.051318 233.61552 
L 104.588884 232.64784 
L 105.657467 231.68016 
L 105.847073 230.71248 
L 105.860124 229.7448 
L 107.463878 228.77712 
L 107.533505 227.80944 
L 108.106151 226.84176 
L 110.789429 225.87408 
L 111.090189 223.93872 
L 112.501765 221.03568 
L 113.599499 220.068 
L 113.815545 219.10032 
L 114.228451 218.13264 
L 115.243246 217.16496 
L 115.962833 216.19728 
L 116.225458 215.2296 
L 116.255481 214.26192 
L 116.617372 213.29424 
L 116.690588 212.32656 
L 117.423558 211.35888 
L 117.487834 210.3912 
L 118.668268 208.45584 
L 118.935875 207.48816 
L 120.258015 206.52048 
L 120.388809 205.5528 
L 121.350454 203.61744 
L 121.86639 198.77904 
L 123.824516 194.90832 
L 125.224973 193.94064 
L 125.682654 192.00528 
L 128.136503 190.06992 
L 128.984664 189.10224 
L 129.345289 188.13456 
L 130.655537 187.16688 
L 131.41492 186.1992 
L 131.733749 185.23152 
L 132.961843 183.29616 
L 133.145303 182.32848 
L 133.663206 181.3608 
L 134.63207 180.39312 
L 135.075395 179.42544 
L 135.077501 178.45776 
L 135.279366 177.49008 
L 136.115217 176.5224 
L 137.224356 175.55472 
L 137.837699 174.58704 
L 139.249935 173.61936 
L 141.317317 171.684 
L 141.836403 168.78096 
L 142.251831 167.81328 
L 143.39497 165.87792 
L 144.253382 164.91024 
L 144.506885 163.94256 
L 145.130098 162.97488 
L 146.574958 162.0072 
L 146.92167 161.03952 
L 147.662451 160.07184 
L 147.992469 159.10416 
L 148.034323 158.13648 
L 148.27599 157.1688 
L 148.397502 156.20112 
L 148.999157 155.23344 
L 149.101767 154.26576 
L 150.331788 153.29808 
L 150.424126 152.3304 
L 150.753701 151.36272 
L 150.859779 149.42736 
L 151.256557 147.492 
L 151.279433 146.52432 
L 151.70607 145.55664 
L 152.371321 144.58896 
L 152.513919 143.62128 
L 153.983677 142.6536 
L 154.622164 141.68592 
L 156.073721 140.71824 
L 158.178302 139.75056 
L 161.768108 138.78288 
L 162.774989 137.8152 
L 163.331457 136.84752 
L 163.885143 133.94448 
L 164.831281 132.9768 
L 165.637492 131.04144 
L 165.783319 130.07376 
L 166.344918 129.10608 
L 172.56037 128.1384 
L 176.076724 127.17072 
L 176.598732 126.20304 
L 177.924731 125.23536 
L 178.151746 123.3 
L 180.165832 122.33232 
L 180.299157 121.36464 
L 181.426854 118.4616 
L 182.403051 117.49392 
L 184.595816 116.52624 
L 186.077996 115.55856 
L 189.748265 114.59088 
L 191.326953 113.6232 
L 191.61706 112.65552 
L 192.663668 111.68784 
L 192.723167 110.72016 
L 193.273581 109.75248 
L 194.436587 108.7848 
L 195.339741 107.81712 
L 198.268564 106.84944 
L 199.300931 105.88176 
L 199.408619 104.91408 
L 200.038965 102.97872 
L 200.615014 102.01104 
L 204.132001 101.04336 
L 204.81357 100.07568 
L 206.680258 99.108 
L 208.044924 98.14032 
L 208.414325 97.17264 
L 210.184462 96.20496 
L 210.540072 95.23728 
L 211.406482 94.2696 
L 215.295324 93.30192 
L 215.881477 92.33424 
L 216.190757 91.36656 
L 217.969212 90.39888 
L 221.629446 89.4312 
L 222.101545 88.46352 
L 224.205911 87.49584 
L 225.300816 86.52816 
L 234.433375 84.5928 
L 237.984065 83.62512 
L 243.516292 82.65744 
L 245.584123 81.68976 
L 251.444324 80.72208 
L 256.317284 79.7544 
L 263.000867 78.78672 
L 263.996648 77.81904 
L 267.350187 76.85136 
L 271.430076 75.88368 
L 272.562617 74.916 
L 274.315346 73.94832 
L 277.229546 72.98064 
L 278.264561 72.01296 
L 281.365985 71.04528 
L 282.582202 70.0776 
L 282.761363 69.10992 
L 299.710859 68.14224 
L 299.756623 67.17456 
L 305.772089 66.20688 
L 305.989209 65.2392 
L 315.022123 64.27152 
L 320.656706 63.30384 
L 320.827466 62.33616 
L 330.925428 61.36848 
L 332.071892 60.4008 
L 340.093818 59.43312 
L 340.405097 58.46544 
L 344.262345 57.49776 
L 353.84035 56.53008 
L 354.969865 55.5624 
L 361.303345 54.59472 
L 365.0016 53.62704 
L 371.130632 52.65936 
L 385.394797 51.69168 
L 386.562397 50.724 
L 393.048584 48.78864 
L 394.589667 47.82096 
L 404.861689 46.85328 
L 418.0525 46.549133 
L 418.0525 46.549133 
" style="fill:none;stroke:#d62728;stroke-linecap:square;stroke-width:1.5;"/>
   </g>
   <g id="patch_3">
    <path d="M 52.7325 292.644 
L 52.7325 26.532 
" style="fill:none;stroke:#000000;stroke-linecap:square;stroke-linejoin:miter;stroke-width:0.8;"/>
   </g>
   <g id="patch_4">
    <path d="M 409.8525 292.644 
L 409.8525 26.532 
" style="fill:none;stroke:#000000;stroke-linecap:square;stroke-linejoin:miter;stroke-width:0.8;"/>
   </g>
   <g id="patch_5">
    <path d="M 52.7325 292.644 
L 409.8525 292.644 
" style="fill:none;stroke:#000000;stroke-linecap:square;stroke-linejoin:miter;stroke-width:0.8;"/>
   </g>
   <g id="patch_6">
    <path d="M 52.7325 26.532 
L 409.8525 26.532 
" style="fill:none;stroke:#000000;stroke-linecap:square;stroke-linejoin:miter;stroke-width:0.8;"/>
   </g>
   <g id="text_23">
    <!-- AA Curve @ 12 for the Natural Scene Dataset -->
    <defs>
     <path d="M 60.203125 67.71875 
L 61.71875 45.21875 
L 60.203125 45.21875 
Q 57.171875 55.328125 51.5625 59.765625 
Q 45.953125 64.203125 38.09375 64.203125 
Q 31.5 64.203125 26.171875 60.859375 
Q 20.84375 57.515625 17.796875 50.1875 
Q 14.75 42.875 14.75 31.984375 
Q 14.75 23 17.625 16.40625 
Q 20.515625 9.8125 26.296875 6.296875 
Q 32.078125 2.78125 39.5 2.78125 
Q 45.953125 2.78125 50.875 5.53125 
Q 55.8125 8.296875 61.71875 16.5 
L 63.234375 15.53125 
Q 58.25 6.6875 51.609375 2.578125 
Q 44.96875 -1.515625 35.84375 -1.515625 
Q 19.390625 -1.515625 10.359375 10.6875 
Q 3.609375 19.78125 3.609375 32.078125 
Q 3.609375 42 8.046875 50.296875 
Q 12.5 58.59375 20.28125 63.15625 
Q 28.078125 67.71875 37.3125 67.71875 
Q 44.484375 67.71875 51.46875 64.203125 
Q 53.515625 63.140625 54.390625 63.140625 
Q 55.71875 63.140625 56.6875 64.0625 
Q 57.953125 65.375 58.5 67.71875 
z
" id="TimesNewRomanPSMT-67"/>
     <path d="M 42.328125 44.734375 
L 42.328125 17.625 
Q 42.328125 9.859375 42.6875 8.125 
Q 43.0625 6.390625 43.859375 5.703125 
Q 44.671875 5.03125 45.75 5.03125 
Q 47.265625 5.03125 49.171875 5.859375 
L 49.859375 4.15625 
L 36.46875 -1.375 
L 34.28125 -1.375 
L 34.28125 8.109375 
Q 28.515625 1.859375 25.484375 0.234375 
Q 22.46875 -1.375 19.09375 -1.375 
Q 15.328125 -1.375 12.5625 0.796875 
Q 9.8125 2.984375 8.734375 6.390625 
Q 7.671875 9.8125 7.671875 16.0625 
L 7.671875 36.03125 
Q 7.671875 39.203125 6.984375 40.421875 
Q 6.296875 41.65625 4.953125 42.3125 
Q 3.609375 42.96875 0.09375 42.921875 
L 0.09375 44.734375 
L 15.765625 44.734375 
L 15.765625 14.796875 
Q 15.765625 8.546875 17.9375 6.59375 
Q 20.125 4.640625 23.1875 4.640625 
Q 25.296875 4.640625 27.953125 5.953125 
Q 30.609375 7.28125 34.28125 10.984375 
L 34.28125 36.328125 
Q 34.28125 40.140625 32.890625 41.484375 
Q 31.5 42.828125 27.09375 42.921875 
L 27.09375 44.734375 
z
" id="TimesNewRomanPSMT-117"/>
     <path d="M 0.828125 44.734375 
L 21.875 44.734375 
L 21.875 42.921875 
L 20.515625 42.921875 
Q 18.609375 42.921875 17.609375 41.984375 
Q 16.609375 41.0625 16.609375 39.5 
Q 16.609375 37.796875 17.625 35.453125 
L 28.03125 10.75 
L 38.484375 36.375 
Q 39.59375 39.109375 39.59375 40.53125 
Q 39.59375 41.21875 39.203125 41.65625 
Q 38.671875 42.390625 37.84375 42.65625 
Q 37.015625 42.921875 34.46875 42.921875 
L 34.46875 44.734375 
L 49.078125 44.734375 
L 49.078125 42.921875 
Q 46.53125 42.71875 45.5625 41.890625 
Q 43.84375 40.4375 42.484375 37.015625 
L 26.609375 -1.375 
L 24.609375 -1.375 
L 8.640625 36.375 
Q 7.5625 39.015625 6.578125 40.15625 
Q 5.609375 41.3125 4.109375 42.09375 
Q 3.265625 42.53125 0.828125 42.921875 
z
" id="TimesNewRomanPSMT-118"/>
     <path d="M 68.75 46.78125 
L 63.03125 27.296875 
Q 59.859375 16.359375 59.171875 13.421875 
Q 58.5 10.5 58.5 8.734375 
Q 58.5 7.171875 59.546875 6.09375 
Q 60.59375 5.03125 62.15625 5.03125 
Q 65.71875 5.03125 70.71875 8.59375 
Q 75.734375 12.15625 79.296875 20.15625 
Q 82.859375 28.171875 82.859375 36.859375 
Q 82.859375 45.21875 78.828125 52.296875 
Q 74.8125 59.375 67.453125 63.15625 
Q 60.109375 66.9375 51.21875 66.9375 
Q 39.9375 66.9375 30.265625 60.953125 
Q 20.609375 54.984375 14.96875 43.75 
Q 9.328125 32.515625 9.328125 20.40625 
Q 9.328125 9.1875 14.28125 0 
Q 19.234375 -9.1875 28.21875 -13.890625 
Q 37.203125 -18.609375 47.5625 -18.609375 
Q 60.40625 -18.609375 70.78125 -11.71875 
Q 81.15625 -4.828125 86.8125 8.40625 
L 89.65625 8.40625 
Q 85.25 -4.984375 73.671875 -13.28125 
Q 62.109375 -21.578125 47.3125 -21.578125 
Q 35.6875 -21.578125 25.71875 -16.078125 
Q 15.765625 -10.59375 10.25 -0.5 
Q 4.734375 9.578125 4.734375 21.6875 
Q 4.734375 34.578125 10.78125 45.734375 
Q 16.84375 56.890625 27.75 63.15625 
Q 38.671875 69.4375 50.921875 69.4375 
Q 61.03125 69.4375 69.15625 65.25 
Q 77.296875 61.078125 81.546875 53.046875 
Q 85.796875 45.015625 85.796875 35.984375 
Q 85.796875 27.046875 81.8125 18.28125 
Q 77.828125 9.515625 71.671875 5.515625 
Q 65.53125 1.515625 58.84375 1.515625 
Q 55.125 1.515625 53.25 3.265625 
Q 51.375 5.03125 51.375 8.203125 
Q 51.375 10.9375 52.25 15.375 
Q 45.015625 6.640625 40.671875 4.046875 
Q 36.328125 1.46875 33.015625 1.46875 
Q 29.546875 1.46875 26.859375 4.5625 
Q 24.171875 7.671875 24.171875 12.84375 
Q 24.171875 19.921875 28.78125 28.703125 
Q 33.40625 37.5 41.015625 43.015625 
Q 46.625 47.078125 51.078125 47.078125 
Q 54.34375 47.078125 56.515625 45.390625 
Q 58.6875 43.703125 59.46875 40.328125 
L 61.078125 45.703125 
z
M 51.609375 44.78125 
Q 47.953125 44.78125 44.1875 40.921875 
Q 38.671875 35.25 34.765625 25.640625 
Q 31.890625 18.609375 31.890625 14.3125 
Q 31.890625 11.234375 33.625 9.296875 
Q 35.359375 7.375 37.5 7.375 
Q 40.328125 7.375 43.453125 9.515625 
Q 46.578125 11.671875 50 16.140625 
Q 53.421875 20.609375 54.984375 25.09375 
Q 57.71875 32.859375 57.71875 37.75 
Q 57.71875 40.96875 55.9375 42.875 
Q 54.15625 44.78125 51.609375 44.78125 
z
" id="TimesNewRomanPSMT-64"/>
     <path d="M 25 46.046875 
Q 35.15625 46.046875 41.3125 38.328125 
Q 46.53125 31.734375 46.53125 23.1875 
Q 46.53125 17.1875 43.640625 11.03125 
Q 40.765625 4.890625 35.71875 1.75 
Q 30.671875 -1.375 24.46875 -1.375 
Q 14.359375 -1.375 8.40625 6.6875 
Q 3.375 13.484375 3.375 21.921875 
Q 3.375 28.078125 6.421875 34.15625 
Q 9.46875 40.234375 14.453125 43.140625 
Q 19.4375 46.046875 25 46.046875 
z
M 23.484375 42.875 
Q 20.90625 42.875 18.28125 41.328125 
Q 15.671875 39.796875 14.0625 35.9375 
Q 12.453125 32.078125 12.453125 26.03125 
Q 12.453125 16.265625 16.328125 9.171875 
Q 20.21875 2.09375 26.5625 2.09375 
Q 31.296875 2.09375 34.375 6 
Q 37.453125 9.90625 37.453125 19.4375 
Q 37.453125 31.34375 32.328125 38.1875 
Q 28.859375 42.875 23.484375 42.875 
z
" id="TimesNewRomanPSMT-111"/>
     <path d="M 16.265625 69.4375 
L 16.265625 36.71875 
Q 21.6875 42.671875 24.859375 44.359375 
Q 28.03125 46.046875 31.203125 46.046875 
Q 35.015625 46.046875 37.75 43.9375 
Q 40.484375 41.84375 41.796875 37.359375 
Q 42.71875 34.234375 42.71875 25.921875 
L 42.71875 10.109375 
Q 42.71875 5.859375 43.40625 4.296875 
Q 43.890625 3.125 45.0625 2.4375 
Q 46.234375 1.765625 49.359375 1.765625 
L 49.359375 0 
L 27.390625 0 
L 27.390625 1.765625 
L 28.421875 1.765625 
Q 31.546875 1.765625 32.765625 2.703125 
Q 33.984375 3.65625 34.46875 5.515625 
Q 34.625 6.296875 34.625 10.109375 
L 34.625 25.921875 
Q 34.625 33.25 33.859375 35.546875 
Q 33.109375 37.84375 31.4375 38.984375 
Q 29.78125 40.140625 27.4375 40.140625 
Q 25.046875 40.140625 22.453125 38.859375 
Q 19.875 37.59375 16.265625 33.734375 
L 16.265625 10.109375 
Q 16.265625 5.515625 16.765625 4.390625 
Q 17.28125 3.265625 18.671875 2.515625 
Q 20.0625 1.765625 23.484375 1.765625 
L 23.484375 0 
L 1.3125 0 
L 1.3125 1.765625 
Q 4.296875 1.765625 6 2.6875 
Q 6.984375 3.171875 7.5625 4.53125 
Q 8.15625 5.90625 8.15625 10.109375 
L 8.15625 50.59375 
Q 8.15625 58.25 7.78125 60 
Q 7.421875 61.765625 6.65625 62.390625 
Q 5.90625 63.03125 4.640625 63.03125 
Q 3.609375 63.03125 1.3125 62.25 
L 0.640625 63.96875 
L 14.015625 69.4375 
z
" id="TimesNewRomanPSMT-104"/>
     <path d="M -1.3125 66.21875 
L 16.65625 66.21875 
L 57.125 16.546875 
L 57.125 54.734375 
Q 57.125 60.84375 55.765625 62.359375 
Q 53.953125 64.40625 50.046875 64.40625 
L 47.75 64.40625 
L 47.75 66.21875 
L 70.796875 66.21875 
L 70.796875 64.40625 
L 68.453125 64.40625 
Q 64.265625 64.40625 62.5 61.859375 
Q 61.421875 60.296875 61.421875 54.734375 
L 61.421875 -1.078125 
L 59.671875 -1.078125 
L 16.015625 52.25 
L 16.015625 11.46875 
Q 16.015625 5.375 17.328125 3.859375 
Q 19.1875 1.8125 23.046875 1.8125 
L 25.390625 1.8125 
L 25.390625 0 
L 2.34375 0 
L 2.34375 1.8125 
L 4.640625 1.8125 
Q 8.890625 1.8125 10.640625 4.34375 
Q 11.71875 5.90625 11.71875 11.46875 
L 11.71875 57.515625 
Q 8.84375 60.890625 7.34375 61.953125 
Q 5.859375 63.03125 2.984375 63.96875 
Q 1.5625 64.40625 -1.3125 64.40625 
z
" id="TimesNewRomanPSMT-78"/>
     <path d="M 45.84375 67.71875 
L 45.84375 44.828125 
L 44.046875 44.828125 
Q 43.171875 51.421875 40.890625 55.328125 
Q 38.625 59.234375 34.421875 61.515625 
Q 30.21875 63.8125 25.734375 63.8125 
Q 20.65625 63.8125 17.328125 60.71875 
Q 14.015625 57.625 14.015625 53.65625 
Q 14.015625 50.640625 16.109375 48.140625 
Q 19.140625 44.484375 30.515625 38.375 
Q 39.796875 33.40625 43.1875 30.734375 
Q 46.578125 28.078125 48.40625 24.453125 
Q 50.25 20.84375 50.25 16.890625 
Q 50.25 9.375 44.40625 3.921875 
Q 38.578125 -1.515625 29.390625 -1.515625 
Q 26.515625 -1.515625 23.96875 -1.078125 
Q 22.46875 -0.828125 17.703125 0.703125 
Q 12.9375 2.25 11.671875 2.25 
Q 10.453125 2.25 9.734375 1.515625 
Q 9.03125 0.78125 8.6875 -1.515625 
L 6.890625 -1.515625 
L 6.890625 21.1875 
L 8.6875 21.1875 
Q 9.96875 14.0625 12.109375 10.515625 
Q 14.265625 6.984375 18.671875 4.640625 
Q 23.09375 2.296875 28.375 2.296875 
Q 34.46875 2.296875 38 5.515625 
Q 41.546875 8.734375 41.546875 13.140625 
Q 41.546875 15.578125 40.203125 18.0625 
Q 38.875 20.5625 36.03125 22.703125 
Q 34.125 24.171875 25.625 28.921875 
Q 17.140625 33.6875 13.546875 36.515625 
Q 9.96875 39.359375 8.109375 42.765625 
Q 6.25 46.1875 6.25 50.296875 
Q 6.25 57.421875 11.71875 62.5625 
Q 17.1875 67.71875 25.640625 67.71875 
Q 30.90625 67.71875 36.8125 65.140625 
Q 39.546875 63.921875 40.671875 63.921875 
Q 41.9375 63.921875 42.75 64.671875 
Q 43.5625 65.4375 44.046875 67.71875 
z
" id="TimesNewRomanPSMT-83"/>
     <path d="M 32.03125 46.046875 
L 32.03125 30.8125 
L 30.421875 30.8125 
Q 28.5625 37.984375 25.65625 40.578125 
Q 22.75 43.171875 18.265625 43.171875 
Q 14.84375 43.171875 12.734375 41.359375 
Q 10.640625 39.546875 10.640625 37.359375 
Q 10.640625 34.625 12.203125 32.671875 
Q 13.71875 30.671875 18.359375 28.421875 
L 25.484375 24.953125 
Q 35.40625 20.125 35.40625 12.203125 
Q 35.40625 6.109375 30.78125 2.359375 
Q 26.171875 -1.375 20.453125 -1.375 
Q 16.359375 -1.375 11.078125 0.09375 
Q 9.46875 0.59375 8.453125 0.59375 
Q 7.328125 0.59375 6.6875 -0.6875 
L 5.078125 -0.6875 
L 5.078125 15.28125 
L 6.6875 15.28125 
Q 8.0625 8.453125 11.90625 4.984375 
Q 15.765625 1.515625 20.5625 1.515625 
Q 23.921875 1.515625 26.046875 3.484375 
Q 28.171875 5.46875 28.171875 8.25 
Q 28.171875 11.625 25.796875 13.921875 
Q 23.4375 16.21875 16.359375 19.734375 
Q 9.28125 23.25 7.078125 26.078125 
Q 4.890625 28.859375 4.890625 33.109375 
Q 4.890625 38.625 8.671875 42.328125 
Q 12.453125 46.046875 18.453125 46.046875 
Q 21.09375 46.046875 24.859375 44.921875 
Q 27.34375 44.1875 28.171875 44.1875 
Q 28.953125 44.1875 29.390625 44.53125 
Q 29.828125 44.875 30.421875 46.046875 
z
" id="TimesNewRomanPSMT-115"/>
    </defs>
    <g transform="translate(52.9125 20.532)scale(0.192 -0.192)">
     <use xlink:href="#TimesNewRomanPSMT-65"/>
     <use x="72.216797" xlink:href="#TimesNewRomanPSMT-65"/>
     <use x="144.355469" xlink:href="#TimesNewRomanPSMT-32"/>
     <use x="169.355469" xlink:href="#TimesNewRomanPSMT-67"/>
     <use x="236.054688" xlink:href="#TimesNewRomanPSMT-117"/>
     <use x="286.054688" xlink:href="#TimesNewRomanPSMT-114"/>
     <use x="319.355469" xlink:href="#TimesNewRomanPSMT-118"/>
     <use x="369.355469" xlink:href="#TimesNewRomanPSMT-101"/>
     <use x="413.740234" xlink:href="#TimesNewRomanPSMT-32"/>
     <use x="438.740234" xlink:href="#TimesNewRomanPSMT-64"/>
     <use x="530.830078" xlink:href="#TimesNewRomanPSMT-32"/>
     <use x="555.830078" xlink:href="#TimesNewRomanPSMT-49"/>
     <use x="605.830078" xlink:href="#TimesNewRomanPSMT-50"/>
     <use x="655.830078" xlink:href="#TimesNewRomanPSMT-32"/>
     <use x="680.830078" xlink:href="#TimesNewRomanPSMT-102"/>
     <use x="714.130859" xlink:href="#TimesNewRomanPSMT-111"/>
     <use x="764.130859" xlink:href="#TimesNewRomanPSMT-114"/>
     <use x="797.431641" xlink:href="#TimesNewRomanPSMT-32"/>
     <use x="822.431641" xlink:href="#TimesNewRomanPSMT-116"/>
     <use x="850.214844" xlink:href="#TimesNewRomanPSMT-104"/>
     <use x="900.214844" xlink:href="#TimesNewRomanPSMT-101"/>
     <use x="944.599609" xlink:href="#TimesNewRomanPSMT-32"/>
     <use x="969.599609" xlink:href="#TimesNewRomanPSMT-78"/>
     <use x="1041.816406" xlink:href="#TimesNewRomanPSMT-97"/>
     <use x="1086.201172" xlink:href="#TimesNewRomanPSMT-116"/>
     <use x="1113.984375" xlink:href="#TimesNewRomanPSMT-117"/>
     <use x="1163.984375" xlink:href="#TimesNewRomanPSMT-114"/>
     <use x="1197.285156" xlink:href="#TimesNewRomanPSMT-97"/>
     <use x="1241.669922" xlink:href="#TimesNewRomanPSMT-108"/>
     <use x="1269.453125" xlink:href="#TimesNewRomanPSMT-32"/>
     <use x="1294.453125" xlink:href="#TimesNewRomanPSMT-83"/>
     <use x="1350.068359" xlink:href="#TimesNewRomanPSMT-99"/>
     <use x="1394.453125" xlink:href="#TimesNewRomanPSMT-101"/>
     <use x="1438.837891" xlink:href="#TimesNewRomanPSMT-110"/>
     <use x="1488.837891" xlink:href="#TimesNewRomanPSMT-101"/>
     <use x="1533.222656" xlink:href="#TimesNewRomanPSMT-32"/>
     <use x="1558.222656" xlink:href="#TimesNewRomanPSMT-68"/>
     <use x="1630.439453" xlink:href="#TimesNewRomanPSMT-97"/>
     <use x="1674.824219" xlink:href="#TimesNewRomanPSMT-116"/>
     <use x="1702.607422" xlink:href="#TimesNewRomanPSMT-97"/>
     <use x="1746.992188" xlink:href="#TimesNewRomanPSMT-115"/>
     <use x="1785.908203" xlink:href="#TimesNewRomanPSMT-101"/>
     <use x="1830.292969" xlink:href="#TimesNewRomanPSMT-116"/>
    </g>
   </g>
   <g id="legend_1">
    <g id="patch_7">
     <path d="M 221.6825 284.644 
L 398.6525 284.644 
Q 401.8525 284.644 401.8525 281.444 
L 401.8525 192.524 
Q 401.8525 189.324 398.6525 189.324 
L 221.6825 189.324 
Q 218.4825 189.324 218.4825 192.524 
L 218.4825 281.444 
Q 218.4825 284.644 221.6825 284.644 
z
" style="fill:#ffffff;opacity:0.8;stroke:#cccccc;stroke-linejoin:miter;"/>
    </g>
    <g id="line2d_45">
     <path d="M 224.8825 201.324 
L 256.8825 201.324 
" style="fill:none;stroke:#1f77b4;stroke-linecap:square;stroke-width:1.5;"/>
    </g>
    <g id="line2d_46"/>
    <g id="text_24">
     <!-- Conic x 4 -->
     <defs>
      <path d="M 1.3125 44.734375 
L 22.359375 44.734375 
L 22.359375 42.921875 
Q 20.359375 42.921875 19.546875 42.234375 
Q 18.75 41.546875 18.75 40.4375 
Q 18.75 39.265625 20.453125 36.8125 
Q 21 36.03125 22.078125 34.375 
L 25.25 29.296875 
L 28.90625 34.375 
Q 32.421875 39.203125 32.421875 40.484375 
Q 32.421875 41.5 31.59375 42.203125 
Q 30.765625 42.921875 28.90625 42.921875 
L 28.90625 44.734375 
L 44.046875 44.734375 
L 44.046875 42.921875 
Q 41.65625 42.78125 39.890625 41.609375 
Q 37.5 39.9375 33.34375 34.375 
L 27.25 26.21875 
L 38.375 10.203125 
Q 42.484375 4.296875 44.234375 3.09375 
Q 46 1.90625 48.78125 1.765625 
L 48.78125 0 
L 27.6875 0 
L 27.6875 1.765625 
Q 29.890625 1.765625 31.109375 2.734375 
Q 32.03125 3.421875 32.03125 4.546875 
Q 32.03125 5.671875 28.90625 10.203125 
L 22.359375 19.78125 
L 15.1875 10.203125 
Q 11.859375 5.765625 11.859375 4.9375 
Q 11.859375 3.765625 12.953125 2.8125 
Q 14.0625 1.859375 16.265625 1.765625 
L 16.265625 0 
L 1.65625 0 
L 1.65625 1.765625 
Q 3.421875 2 4.734375 2.984375 
Q 6.59375 4.390625 10.984375 10.203125 
L 20.359375 22.65625 
L 11.859375 34.96875 
Q 8.25 40.234375 6.265625 41.578125 
Q 4.296875 42.921875 1.3125 42.921875 
z
" id="TimesNewRomanPSMT-120"/>
     </defs>
     <g transform="translate(269.6825 206.924)scale(0.16 -0.16)">
      <use xlink:href="#TimesNewRomanPSMT-67"/>
      <use x="66.699219" xlink:href="#TimesNewRomanPSMT-111"/>
      <use x="116.699219" xlink:href="#TimesNewRomanPSMT-110"/>
      <use x="166.699219" xlink:href="#TimesNewRomanPSMT-105"/>
      <use x="194.482422" xlink:href="#TimesNewRomanPSMT-99"/>
      <use x="238.867188" xlink:href="#TimesNewRomanPSMT-32"/>
      <use x="263.867188" xlink:href="#TimesNewRomanPSMT-120"/>
      <use x="313.867188" xlink:href="#TimesNewRomanPSMT-32"/>
      <use x="338.867188" xlink:href="#TimesNewRomanPSMT-52"/>
     </g>
    </g>
    <g id="line2d_47">
     <path d="M 224.8825 223.9465 
L 256.8825 223.9465 
" style="fill:none;stroke:#ff7f0e;stroke-linecap:square;stroke-width:1.5;"/>
    </g>
    <g id="line2d_48"/>
    <g id="text_25">
     <!-- vpdet [50] -->
     <defs>
      <path d="M -0.09375 40.28125 
L 13.671875 45.84375 
L 15.53125 45.84375 
L 15.53125 35.40625 
Q 19 41.3125 22.484375 43.671875 
Q 25.984375 46.046875 29.828125 46.046875 
Q 36.578125 46.046875 41.0625 40.765625 
Q 46.578125 34.328125 46.578125 23.96875 
Q 46.578125 12.40625 39.9375 4.828125 
Q 34.46875 -1.375 26.171875 -1.375 
Q 22.5625 -1.375 19.921875 -0.34375 
Q 17.96875 0.390625 15.53125 2.59375 
L 15.53125 -11.03125 
Q 15.53125 -15.625 16.09375 -16.859375 
Q 16.65625 -18.109375 18.046875 -18.84375 
Q 19.4375 -19.578125 23.09375 -19.578125 
L 23.09375 -21.390625 
L -0.34375 -21.390625 
L -0.34375 -19.578125 
L 0.875 -19.578125 
Q 3.5625 -19.625 5.46875 -18.5625 
Q 6.390625 -18.015625 6.90625 -16.8125 
Q 7.421875 -15.625 7.421875 -10.75 
L 7.421875 31.546875 
Q 7.421875 35.890625 7.03125 37.0625 
Q 6.640625 38.234375 5.78125 38.8125 
Q 4.9375 39.40625 3.46875 39.40625 
Q 2.296875 39.40625 0.484375 38.71875 
z
M 15.53125 32.515625 
L 15.53125 15.828125 
Q 15.53125 10.40625 15.96875 8.6875 
Q 16.65625 5.859375 19.3125 3.703125 
Q 21.96875 1.5625 26.03125 1.5625 
Q 30.90625 1.5625 33.9375 5.375 
Q 37.890625 10.359375 37.890625 19.390625 
Q 37.890625 29.640625 33.40625 35.15625 
Q 30.28125 38.96875 25.984375 38.96875 
Q 23.640625 38.96875 21.34375 37.796875 
Q 19.578125 36.921875 15.53125 32.515625 
z
" id="TimesNewRomanPSMT-112"/>
      <path d="M 34.71875 5.03125 
Q 31.453125 1.609375 28.328125 0.109375 
Q 25.203125 -1.375 21.578125 -1.375 
Q 14.265625 -1.375 8.796875 4.75 
Q 3.328125 10.890625 3.328125 20.515625 
Q 3.328125 30.125 9.375 38.109375 
Q 15.4375 46.09375 24.953125 46.09375 
Q 30.859375 46.09375 34.71875 42.328125 
L 34.71875 50.59375 
Q 34.71875 58.25 34.34375 60 
Q 33.984375 61.765625 33.203125 62.390625 
Q 32.421875 63.03125 31.25 63.03125 
Q 29.984375 63.03125 27.875 62.25 
L 27.25 63.96875 
L 40.578125 69.4375 
L 42.78125 69.4375 
L 42.78125 17.71875 
Q 42.78125 9.859375 43.140625 8.125 
Q 43.5 6.390625 44.3125 5.703125 
Q 45.125 5.03125 46.1875 5.03125 
Q 47.515625 5.03125 49.703125 5.859375 
L 50.25 4.15625 
L 36.96875 -1.375 
L 34.71875 -1.375 
z
M 34.71875 8.453125 
L 34.71875 31.5 
Q 34.421875 34.8125 32.953125 37.546875 
Q 31.5 40.28125 29.078125 41.671875 
Q 26.65625 43.0625 24.359375 43.0625 
Q 20.0625 43.0625 16.703125 39.203125 
Q 12.25 34.125 12.25 24.359375 
Q 12.25 14.5 16.546875 9.25 
Q 20.84375 4 26.125 4 
Q 30.5625 4 34.71875 8.453125 
z
" id="TimesNewRomanPSMT-100"/>
      <path d="M 29.6875 -19.828125 
L 8.203125 -19.828125 
L 8.203125 67.71875 
L 29.6875 67.71875 
L 29.6875 63.875 
L 15.53125 63.875 
L 15.53125 -16.015625 
L 29.6875 -16.015625 
z
" id="TimesNewRomanPSMT-91"/>
      <path d="M 3.65625 67.71875 
L 25.140625 67.71875 
L 25.140625 -19.875 
L 3.65625 -19.875 
L 3.65625 -16.015625 
L 17.828125 -16.015625 
L 17.828125 63.875 
L 3.65625 63.875 
z
" id="TimesNewRomanPSMT-93"/>
     </defs>
     <g transform="translate(269.6825 229.5465)scale(0.16 -0.16)">
      <use xlink:href="#TimesNewRomanPSMT-118"/>
      <use x="50" xlink:href="#TimesNewRomanPSMT-112"/>
      <use x="100" xlink:href="#TimesNewRomanPSMT-100"/>
      <use x="150" xlink:href="#TimesNewRomanPSMT-101"/>
      <use x="194.384766" xlink:href="#TimesNewRomanPSMT-116"/>
      <use x="222.167969" xlink:href="#TimesNewRomanPSMT-32"/>
      <use x="247.167969" xlink:href="#TimesNewRomanPSMT-91"/>
      <use x="280.46875" xlink:href="#TimesNewRomanPSMT-53"/>
      <use x="330.46875" xlink:href="#TimesNewRomanPSMT-48"/>
      <use x="380.46875" xlink:href="#TimesNewRomanPSMT-93"/>
     </g>
    </g>
    <g id="line2d_49">
     <path d="M 224.8825 246.569 
L 256.8825 246.569 
" style="fill:none;stroke:#2ca02c;stroke-linecap:square;stroke-width:1.5;"/>
    </g>
    <g id="line2d_50"/>
    <g id="text_26">
     <!-- CNN Classification -->
     <g transform="translate(269.6825 252.169)scale(0.16 -0.16)">
      <use xlink:href="#TimesNewRomanPSMT-67"/>
      <use x="66.699219" xlink:href="#TimesNewRomanPSMT-78"/>
      <use x="138.916016" xlink:href="#TimesNewRomanPSMT-78"/>
      <use x="211.132812" xlink:href="#TimesNewRomanPSMT-32"/>
      <use x="236.132812" xlink:href="#TimesNewRomanPSMT-67"/>
      <use x="302.832031" xlink:href="#TimesNewRomanPSMT-108"/>
      <use x="330.615234" xlink:href="#TimesNewRomanPSMT-97"/>
      <use x="375" xlink:href="#TimesNewRomanPSMT-115"/>
      <use x="413.916016" xlink:href="#TimesNewRomanPSMT-115"/>
      <use x="452.832031" xlink:href="#TimesNewRomanPSMT-105"/>
      <use x="480.615234" xlink:href="#TimesNewRomanPSMT-102"/>
      <use x="513.916016" xlink:href="#TimesNewRomanPSMT-105"/>
      <use x="541.699219" xlink:href="#TimesNewRomanPSMT-99"/>
      <use x="586.083984" xlink:href="#TimesNewRomanPSMT-97"/>
      <use x="630.46875" xlink:href="#TimesNewRomanPSMT-116"/>
      <use x="658.251953" xlink:href="#TimesNewRomanPSMT-105"/>
      <use x="686.035156" xlink:href="#TimesNewRomanPSMT-111"/>
      <use x="736.035156" xlink:href="#TimesNewRomanPSMT-110"/>
     </g>
    </g>
    <g id="line2d_51">
     <path d="M 224.8825 269.1915 
L 256.8825 269.1915 
" style="fill:none;stroke:#d62728;stroke-linecap:square;stroke-width:1.5;"/>
    </g>
    <g id="line2d_52"/>
    <g id="text_27">
     <!-- CNN Regression -->
     <defs>
      <path d="M 67.578125 0 
L 49.90625 0 
L 27.484375 30.953125 
Q 25 30.859375 23.4375 30.859375 
Q 22.796875 30.859375 22.0625 30.875 
Q 21.34375 30.90625 20.5625 30.953125 
L 20.5625 11.71875 
Q 20.5625 5.46875 21.921875 3.953125 
Q 23.78125 1.8125 27.484375 1.8125 
L 30.078125 1.8125 
L 30.078125 0 
L 1.703125 0 
L 1.703125 1.8125 
L 4.203125 1.8125 
Q 8.40625 1.8125 10.203125 4.546875 
Q 11.234375 6.0625 11.234375 11.71875 
L 11.234375 54.5 
Q 11.234375 60.75 9.859375 62.25 
Q 7.953125 64.40625 4.203125 64.40625 
L 1.703125 64.40625 
L 1.703125 66.21875 
L 25.828125 66.21875 
Q 36.375 66.21875 41.375 64.671875 
Q 46.390625 63.140625 49.875 59.015625 
Q 53.375 54.890625 53.375 49.171875 
Q 53.375 43.0625 49.390625 38.5625 
Q 45.40625 34.078125 37.0625 32.234375 
L 50.734375 13.234375 
Q 55.421875 6.6875 58.78125 4.53125 
Q 62.15625 2.390625 67.578125 1.8125 
z
M 20.5625 34.03125 
Q 21.484375 34.03125 22.171875 34 
Q 22.859375 33.984375 23.296875 33.984375 
Q 32.765625 33.984375 37.578125 38.078125 
Q 42.390625 42.1875 42.390625 48.53125 
Q 42.390625 54.734375 38.5 58.609375 
Q 34.625 62.5 28.21875 62.5 
Q 25.390625 62.5 20.5625 61.578125 
z
" id="TimesNewRomanPSMT-82"/>
     </defs>
     <g transform="translate(269.6825 274.7915)scale(0.16 -0.16)">
      <use xlink:href="#TimesNewRomanPSMT-67"/>
      <use x="66.699219" xlink:href="#TimesNewRomanPSMT-78"/>
      <use x="138.916016" xlink:href="#TimesNewRomanPSMT-78"/>
      <use x="211.132812" xlink:href="#TimesNewRomanPSMT-32"/>
      <use x="236.132812" xlink:href="#TimesNewRomanPSMT-82"/>
      <use x="302.832031" xlink:href="#TimesNewRomanPSMT-101"/>
      <use x="347.216797" xlink:href="#TimesNewRomanPSMT-103"/>
      <use x="397.216797" xlink:href="#TimesNewRomanPSMT-114"/>
      <use x="430.517578" xlink:href="#TimesNewRomanPSMT-101"/>
      <use x="474.902344" xlink:href="#TimesNewRomanPSMT-115"/>
      <use x="513.818359" xlink:href="#TimesNewRomanPSMT-115"/>
      <use x="552.734375" xlink:href="#TimesNewRomanPSMT-105"/>
      <use x="580.517578" xlink:href="#TimesNewRomanPSMT-111"/>
      <use x="630.517578" xlink:href="#TimesNewRomanPSMT-110"/>
     </g>
    </g>
   </g>
  </g>
 </g>
 <defs>
  <clipPath id="pac81b371a2">
   <rect height="266.112" width="357.12" x="52.7325" y="26.532"/>
  </clipPath>
 </defs>
</svg>
